<svg xmlns="http://www.w3.org/2000/svg" width="80" height="80" viewBox="0 0 80 80">
  <g fill="none" transform="translate(4)">
    <path fill="#C0DBFF" d="M69.9993897,22.03125 L69.9993897,9.0625 C69.9993897,6.05102531 68.2238769,3.45581062 65.6634522,2.26257328 C63.1030273,3.45581062 61.3275147,6.05102531 61.3275147,9.0625 L61.3275147,25.15625 L66.8743897,25.15625 C68.6004639,25.15625 69.9993897,23.7573242 69.9993897,22.03125 Z"/>
    <path fill="#FFF" d="M62.4993897,1.5625 L9.0625,1.5625 C4.92004391,1.5625 1.5625,4.92004391 1.5625,9.0625 L1.5625,66.8743897 C1.5625,68.6004639 2.96142578,69.9993897 4.6875,69.9993897 L54.9993897,69.9993897 L54.9993897,9.0625 C54.9993897,4.92004391 58.3575439,1.5625 62.4993897,1.5625"/>
    <path fill="#EBE0DA" d="M65.9893798,65.2490234 L65.9893798,48.6395264 C65.9893798,43.640747 64.2260742,38.8244628 61.0461425,35.0195312 L61.0461425,59.4165039 C61.0461425,61.7236328 59.1760253,63.5931397 56.8688966,63.5931397 C55.7000733,63.5931397 54.6185303,63.1048584 53.8470459,62.2955322 C53.0865478,63.0944825 52.0129394,63.5931397 50.8227539,63.5931397 C49.0252686,63.5931397 47.4285889,62.4426269 46.8603516,60.7373047 L44.5050048,53.6724853 C44.4702148,53.5668945 44.4287109,53.4661866 44.3841553,53.3666992 C44.1986084,53.7799072 44.0930175,54.2376709 44.0930175,54.7198486 L44.0930175,66.8353272 C44.0930175,68.9239502 44.5062256,70.9918213 45.3100586,72.9199219 L47.6086425,78.4368897 L63.0206298,78.4368897 C64.9749756,74.3157959 65.9893798,69.8107909 65.9893798,65.2490234 L65.9893798,65.2490234 Z"/>
    <path fill="#8ECB51" d="M3.99902344 10L1.20910641 10C.598754844 10 .104370156 9.50500484.104370156 8.89526375L.104370156 1.10473625C.104370156.494384688.598754844 0 1.20910641 0L3.99902344 0C4.609375 0 5.10437016.494384688 5.10437016 1.10473625L5.10437016 8.89526375C5.10437016 9.50500484 4.609375 10 3.99902344 10zM3.99902344 28.75L1.20910641 28.75C.598754844 28.75.104370156 28.2550048.104370156 27.6446533L.104370156 19.8547363C.104370156 19.2443847.598754844 18.75 1.20910641 18.75L3.99902344 18.75C4.609375 18.75 5.10437016 19.2443847 5.10437016 19.8547363L5.10437016 27.6446533C5.10437016 28.2550048 4.609375 28.75 3.99902344 28.75zM3.99902344 47.4993897L1.20910641 47.4993897C.598754844 47.4993897.104370156 47.0050048.104370156 46.3946533L.104370156 38.6047363C.104370156 37.9943847.598754844 37.5 1.20910641 37.5L3.99902344 37.5C4.609375 37.5 5.10437016 37.9943847 5.10437016 38.6047363L5.10437016 46.3946533C5.10437016 47.0050048 4.609375 47.4993897 3.99902344 47.4993897z" transform="translate(14.844 10)"/>
    <path fill="#574CFA" d="M62.4993897,-2.84217094e-14 L9.0625,-2.84217094e-14 C4.06555172,-2.84217094e-14 0,4.06555172 0,9.0625 L0,66.8743897 C0,69.4592284 2.10266109,71.5618897 4.6875,71.5618897 L25.2081298,71.5618897 C26.071167,71.5618897 26.7706298,70.8624267 26.7706298,69.9993897 C26.7706298,69.1363525 26.071167,68.4368897 25.2081298,68.4368897 L4.6875,68.4368897 C3.82568359,68.4368897 3.125,67.7362061 3.125,66.8743897 L3.125,9.0625 C3.125,5.78857422 5.78857422,3.125 9.0625,3.125 L55.6616211,3.125 C54.2779541,4.71679687 53.4368897,6.7926025 53.4368897,9.0625 L53.4368897,59.4165039 C53.4368897,60.8581544 52.2644044,62.0306397 50.8227539,62.0306397 C49.696045,62.0306397 48.6993408,61.3122559 48.3422852,60.2435303 L45.9875488,53.1781006 C45.3228759,51.1834717 43.4631347,49.84375 41.3610841,49.84375 C38.671875,49.84375 36.484375,52.03125 36.484375,54.7198486 L36.484375,55.9368897 L28.3856202,55.9368897 C27.522583,55.9368897 26.8231202,56.6369628 26.8231202,57.4993897 C26.8231202,58.3624267 27.522583,59.0618897 28.3856202,59.0618897 L36.484375,59.0618897 L36.484375,66.8353272 C36.484375,69.1424561 36.9342041,71.3922119 37.8216553,73.5211181 L40.1202392,79.0380859 C40.3704834,79.6380616 40.9509278,80 41.5631103,80 C41.7633056,80 41.9671631,79.9615478 42.1630859,79.8797608 C42.960205,79.5477295 43.336792,78.6328125 43.0047608,77.8363037 L40.7061767,72.3193359 C39.9786377,70.5731202 39.609375,68.7280273 39.609375,66.8359375 L39.609375,54.7204591 C39.609375,53.7542725 40.3948975,52.96875 41.3610841,52.96875 C42.1160889,52.96875 42.7844238,53.449707 43.0230713,54.1662597 L45.3778077,61.2316894 C46.1602783,63.5784912 48.3483888,65.1556397 50.8227539,65.1556397 C53.9874267,65.1556397 56.5618897,62.5811767 56.5618897,59.4165039 L56.5618897,32.6275634 L58.6499023,34.7113037 C62.3754883,38.4295655 64.4268798,43.3764648 64.4268798,48.6395264 L64.4268798,65.2490234 C64.4268798,69.5513916 63.4521484,73.8800048 61.6088867,77.7673341 C61.2390137,78.546753 61.5716553,79.4787597 62.3510742,79.8486328 C63.1304931,80.2185059 64.0625,79.8864747 64.4323731,79.1064453 C66.4727783,74.8034669 67.5518798,70.0115967 67.5518798,65.2490234 L67.5518798,48.6395264 C67.5518798,42.5402831 65.1745606,36.8084717 60.8575439,32.4993897 L56.5618897,28.21167 L56.5618897,26.71875 L66.8743897,26.71875 C69.4592284,26.71875 71.5618897,24.6160889 71.5618897,22.03125 L71.5618897,9.0625 C71.5618897,4.06555172 67.4969483,-2.84217094e-14 62.4993897,-2.84217094e-14 Z M68.4368897,22.03125 C68.4368897,22.8924561 67.7362061,23.59375 66.8743897,23.59375 L56.5618897,23.59375 L56.5618897,9.0625 C56.5618897,5.78857422 59.2254639,3.125 62.4993897,3.125 C65.7733155,3.125 68.4368897,5.78857422 68.4368897,9.0625 L68.4368897,22.03125 Z"/>
    <path fill="#574CFA" d="M32.03125 68.4368897C31.6198731 68.4368897 31.2170409 68.6041259 30.9265137 68.8946533 30.6359863 69.1857909 30.46875 69.5886231 30.46875 69.9993897 30.46875 70.4107666 30.6359863 70.8135986 30.9265137 71.1041259 31.2170409 71.3946533 31.6198731 71.5618897 32.03125 71.5618897 32.4420166 71.5618897 32.8448486 71.3946533 33.1359863 71.1041259 33.4265137 70.8135986 33.59375 70.4107666 33.59375 69.9993897 33.59375 69.5886231 33.4265137 69.1857909 33.1359863 68.8946533 32.8448486 68.6041259 32.4420166 68.4368897 32.03125 68.4368897zM21.5106202 11.5625C21.5106202 9.8394775 20.1086425 8.4375 18.3856202 8.4375L11.5106202 8.4375C9.78698734 8.4375 8.38562016 9.8394775 8.38562016 11.5625L8.38562016 18.4375C8.38562016 20.1605225 9.78698734 21.5625 11.5106202 21.5625L18.3856202 21.5625C20.1086425 21.5625 21.5106202 20.1605225 21.5106202 18.4375L21.5106202 11.5625zM18.3856202 18.4375L11.5106202 18.4375 11.5106202 11.5625 18.3856202 11.5625 18.3874512 18.4375C18.3874512 18.4375 18.3868408 18.4375 18.3856202 18.4375zM21.5106202 30.3125C21.5106202 28.5894775 20.1086425 27.1875 18.3856202 27.1875L11.5106202 27.1875C9.78698734 27.1875 8.38562016 28.5894775 8.38562016 30.3125L8.38562016 37.1875C8.38562016 38.9105225 9.78698734 40.3125 11.5106202 40.3125L18.3856202 40.3125C20.1086425 40.3125 21.5106202 38.9105225 21.5106202 37.1875L21.5106202 30.3125zM18.3856202 37.1875L11.5106202 37.1875 11.5106202 30.3125 18.3856202 30.3125 18.3874512 37.1875C18.3874512 37.1875 18.3868408 37.1875 18.3856202 37.1875zM18.3856202 45.9375L11.5106202 45.9375C9.78698734 45.9375 8.38562016 47.3388672 8.38562016 49.0625L8.38562016 55.9368897C8.38562016 57.6605225 9.78698734 59.0618897 11.5106202 59.0618897L18.3856202 59.0618897C20.1086425 59.0618897 21.5106202 57.6605225 21.5106202 55.9368897L21.5106202 49.0625C21.5106202 47.3388672 20.1086425 45.9375 18.3856202 45.9375zM18.3856202 55.9368897L11.5106202 55.9368897 11.5106202 49.0625 18.3856202 49.0625 18.3874512 55.9368897C18.3874512 55.9368897 18.3868408 55.9368897 18.3856202 55.9368897zM46.3018798 21.5625C47.164917 21.5625 47.8643798 20.8630372 47.8643798 20 47.8643798 19.1369628 47.164917 18.4375 46.3018798 18.4375L35.5303955 18.4375C34.6673584 18.4375 33.9678955 19.1369628 33.9678955 20 33.9678955 20.8630372 34.6673584 21.5625 35.5303955 21.5625L46.3018798 21.5625zM28.3856202 21.5625C28.796997 21.5625 29.1998291 21.3952637 29.4903564 21.1047363 29.7808838 20.8142091 29.9481202 20.4107666 29.9481202 20 29.9481202 19.5892334 29.7808838 19.1857909 29.4903564 18.8952637 29.1998291 18.6047363 28.796997 18.4375 28.3856202 18.4375 27.9730225 18.4375 27.5714111 18.6047363 27.2808838 18.8952637 26.9891358 19.1857909 26.8231202 19.5892334 26.8231202 20 26.8231202 20.4107666 26.9891358 20.8142091 27.2808838 21.1047363 27.5714111 21.3952637 27.9730225 21.5625 28.3856202 21.5625zM28.3850097 40.3125L46.3018798 40.3125C47.164917 40.3125 47.8643798 39.6130372 47.8643798 38.75 47.8643798 37.8869628 47.164917 37.1875 46.3018798 37.1875L28.3850097 37.1875C27.522583 37.1875 26.8225097 37.8869628 26.8225097 38.75 26.8225097 39.6130372 27.522583 40.3125 28.3850097 40.3125L28.3850097 40.3125z"/>
  </g>
</svg>
