<svg xmlns="http://www.w3.org/2000/svg" width="80" height="80" viewBox="0 0 80 80">
  <g fill="none">
    <rect width="4.792" height="27.694" x="5.208" y="42.306" fill="#C0DBFF"/>
    <path fill="#8ECB51" d="M66.796875,14.6875 C66.796875,16.4134375 68.1959375,17.8125 69.921875,17.8125 L78.4375,17.8125 L66.796875,6.171875 L66.796875,14.6875 Z"/>
    <path fill="#FFF" d="M32.2814063,27.163125 C33.3426562,24.6423437 32.8957812,21.7284375 31.1082812,19.6392188 L29.3314063,17.5623438 L9.988125,40.9415625 L9.988125,67.6526562 L12.961875,68.8189062 C14.3182812,69.3509375 15.734375,69.7059375 17.175625,69.8784375 L17.175625,45.420625 L32.2814063,27.163125 Z"/>
    <path fill="#FEDA9B" d="M49.2517188,50.0082813 C49.251875,50.0057812 49.2520313,50.0032813 49.2523438,50.0009375 C49.1740625,50.0054687 49.0954688,50.0082813 49.0160938,50.0082813 L49.2517188,50.0082813 Z"/>
    <path fill="#FFF" d="M45.8510938,41.85125 C45.8617188,41.7320313 45.868125,41.6115625 45.868125,41.4895312 L45.868125,41.4115625 C45.868125,39.180625 44.0595313,37.3720312 41.8285938,37.3720312 L36.8228125,37.3720312 L34.7503125,41.85125 L45.8510938,41.85125 L45.8510938,41.85125 Z"/>
    <path fill="#EBE0DA" d="M21.9696875,70 L40.2878125,70 C42.51875,70 44.3273437,68.1914062 44.3273437,65.9604687 L44.3273437,65.8825 C44.3273437,63.6515625 42.51875,61.8429687 40.2878125,61.8429687 C42.7392187,61.8429687 45.229375,61.8429687 45.229375,61.8429687 C47.4603125,61.8429687 49.2689063,60.034375 49.2689063,57.8034375 L49.2689063,57.7254687 C49.2689063,55.4945312 47.4603125,53.6859375 45.229375,53.6859375 C47.3382812,53.6859375 49.0689062,52.0695312 49.251875,50.008125 L49.01625,50.008125 C49.095625,50.008125 49.1742188,50.0051562 49.2525,50.0007812 C49.2626562,49.8839062 49.2689063,49.7659375 49.2689063,49.6465625 L49.2689063,49.5685937 C49.2689063,47.3376562 47.4603125,45.5290625 45.229375,45.5290625 L41.82875,45.5290625 C43.9376563,45.5290625 45.6682812,43.9126562 45.85125,41.85125 L34.7504687,41.85125 L36.8229688,37.3720312 L27.5629687,37.3720312 L32.1792187,27.3953125 C32.2148438,27.3182812 32.2489062,27.2407812 32.2817187,27.1629687 L17.1757812,45.420625 L17.1757812,69.8782812 C17.8490625,69.9589062 18.5278125,70 19.2085937,70 L21.9696875,70 L21.9696875,70 Z"/>
    <path fill="#574CFA" d="M6.0671875 62.7478125C5.20421875 62.7478125 4.5046875 63.4475 4.5046875 64.3103125L4.5046875 64.3307813C4.5046875 65.1935938 5.20421875 65.8932813 6.0671875 65.8932813 6.93015625 65.8932813 7.6296875 65.1935938 7.6296875 64.3307813L7.6296875 64.3103125C7.6296875 63.4473438 6.93015625 62.7478125 6.0671875 62.7478125zM20.7640625 30.35625C21.0546875 30.065625 21.221875 29.6625 21.221875 29.2515625 21.221875 28.840625 21.0546875 28.4375 20.7640625 28.146875 20.4734375 27.8564062 20.0703125 27.6890625 19.659375 27.6890625 19.2484375 27.6890625 18.8453125 27.85625 18.5546875 28.146875 18.2640625 28.4375 18.096875 28.840625 18.096875 29.2515625 18.096875 29.6625 18.2640625 30.065625 18.5546875 30.35625 18.8453125 30.6467187 19.2484375 30.8140625 19.659375 30.8140625 20.071875 30.8140625 20.4734375 30.646875 20.7640625 30.35625z"/>
    <path fill="#574CFA" d="M79.99625,17.8123438 C79.9960938,17.4059375 79.8410937,17.0064062 79.5423438,16.7075 L63.2923438,0.4575 C62.9929688,0.158125 62.5923437,0.00328125 62.185,0.00375 C62.1859375,0.0025 62.1865625,0.00140625 62.1875,0 L19.0625,0 C16.4778125,0 14.375,2.1028125 14.375,4.6875 L14.375,22.1092188 C14.375,22.9720312 15.0745312,23.6717188 15.9375,23.6717188 C16.8004688,23.6717188 17.5,22.9720312 17.5,22.1092188 L17.5,4.6875 C17.5,3.8259375 18.2009375,3.125 19.0625,3.125 L60.625,3.125 L60.625,14.6875 C60.625,17.2721875 62.7278125,19.375 65.3125,19.375 L76.875,19.375 L76.875,75.3125 C76.875,76.1740625 76.1740625,76.875 75.3125,76.875 L19.0625,76.875 C18.2009375,76.875 17.5,76.1740625 17.5,75.3125 L17.5,71.4845313 C18.0659375,71.53625 18.635625,71.5625 19.2082812,71.5625 L40.2878125,71.5625 C43.3767187,71.5625 45.8898437,69.0495313 45.8898437,65.9604688 L45.8898437,65.8825 C45.8898437,64.9926562 45.6803125,64.15125 45.3096875,63.4032812 C48.3615625,63.36 50.8314062,60.8654687 50.8314062,57.8034375 L50.8314062,57.7254687 C50.8314062,56.139375 50.1676562,54.70625 49.1046875,53.6859375 C50.1676562,52.6657812 50.8314062,51.2326562 50.8314062,49.6464062 L50.8314062,49.5684375 C50.8314062,47.0039062 49.09875,44.8379687 46.743125,44.1757812 C47.1810937,43.3776562 47.4307812,42.4621875 47.4307812,41.489375 L47.4307812,41.4114062 C47.4307812,38.3223437 44.9178125,35.809375 41.82875,35.809375 L30.0075,35.809375 L33.5971875,28.05125 C35.0395312,24.9340625 34.52875,21.2332812 32.295625,18.623125 L30.51875,16.54625 C30.2217187,16.1990625 29.7879687,15.9995312 29.3314062,15.9995312 C29.3271875,15.9995312 29.3228125,15.9995312 29.3184375,15.9995312 C28.8573437,16.0032812 28.4214062,16.2107812 28.1275,16.5659375 L22.6959375,23.1309375 C22.1457812,23.7959375 22.2389062,24.7809375 22.90375,25.3309375 C23.5685937,25.8809375 24.5535937,25.7879687 25.1035937,25.123125 L29.3514062,19.9890625 L29.9209375,20.6548437 C31.3620313,22.3392187 31.6917187,24.7273437 30.7607813,26.7390625 L26.1445312,36.7159375 C25.920625,37.1998437 25.9589062,37.764375 26.2460938,38.2135937 C26.5332812,38.6628125 27.0295313,38.9345312 27.5626562,38.9345312 L41.8284375,38.9345312 C43.1942187,38.9345312 44.3054688,40.045625 44.3054688,41.4115625 L44.3054688,41.4895312 C44.3054688,42.8553125 43.194375,43.9665625 41.8284375,43.9665625 L34.3882812,43.9665625 C33.5253125,43.9665625 32.8257812,44.66625 32.8257812,45.5290625 C32.8257812,46.391875 33.5253125,47.0915625 34.3882812,47.0915625 L41.8284375,47.0915625 L45.2290625,47.0915625 C46.5948437,47.0915625 47.7060938,48.2028125 47.7060938,49.56875 L47.7060938,49.6467187 C47.7060938,51.0125 46.595,52.12375 45.2290625,52.12375 L34.3882812,52.12375 C33.5253125,52.12375 32.8257812,52.8234375 32.8257812,53.68625 C32.8257812,54.5490625 33.5253125,55.24875 34.3882812,55.24875 L45.2290625,55.24875 C46.5948437,55.24875 47.7060938,56.3598437 47.7060938,57.7257812 L47.7060938,57.80375 C47.7060938,59.1695312 46.595,60.2807812 45.2290625,60.2807812 L40.2876562,60.2807812 L34.3884375,60.2807812 C33.5254688,60.2807812 32.8259375,60.9804688 32.8259375,61.8432812 C32.8259375,62.7060937 33.5254688,63.4057812 34.3884375,63.4057812 L40.2876562,63.4057812 C41.6534375,63.4057812 42.7646875,64.5170313 42.7646875,65.8829687 L42.7646875,65.9609375 C42.7646875,67.3267187 41.6535938,68.4379687 40.2876562,68.4379687 L19.2082813,68.4379687 C17.2579687,68.4379687 15.3482813,68.0767187 13.5323437,67.3646875 L11.5625,66.5917187 L11.5625,41.4896875 L16.338125,35.7175 C16.8882812,35.0525 16.7951562,34.0675 16.1303125,33.5175 C15.4654687,32.9673437 14.4804688,33.0604687 13.9304687,33.7253125 L11.2284375,36.99125 C10.9423437,36.6270312 10.4990625,36.3921875 10,36.3921875 L1.5625,36.3921875 C0.69953125,36.3921875 0,37.091875 0,37.9546875 L0,70 C0,70.8628125 0.69953125,71.5625 1.5625,71.5625 L10,71.5625 C10.8629688,71.5625 11.5625,70.8628125 11.5625,70 L11.5625,69.9484375 L12.3914063,70.2734375 C13.043125,70.5290625 13.705,70.7460938 14.375,70.9260938 L14.375,75.3125 C14.375,77.8971875 16.4778125,80 19.0625,80 L75.3125,80 C77.8971875,80 80,77.8971875 80,75.3125 L80,17.8125 C79.99875,17.8125 79.9975,17.8123438 79.99625,17.8123438 Z M3.125,68.4375 L3.125,39.5171875 L8.4375,39.5171875 L8.4375,68.4375 L3.125,68.4375 Z M65.3125,16.25 C64.4509375,16.25 63.75,15.5490625 63.75,14.6875 L63.75,5.33484375 L74.6653125,16.25 L65.3125,16.25 Z"/>
    <path fill="#574CFA" d="M66.9640625 27.0420312C67.2546875 26.7515625 67.421875 26.3484375 67.421875 25.9375 67.421875 25.5265625 67.2546875 25.1234375 66.9640625 24.8328125 66.6734375 24.5421875 66.2703125 24.375 65.859375 24.375 65.4484375 24.375 65.0453125 24.5420312 64.7546875 24.8328125 64.4640625 25.1234375 64.296875 25.5265625 64.296875 25.9375 64.296875 26.3484375 64.4640625 26.7515625 64.7546875 27.0420312 65.0453125 27.3326562 65.4484375 27.5 65.859375 27.5 66.2703125 27.5 66.6734375 27.3328125 66.9640625 27.0420312zM39.0625 27.5L59.53125 27.5C60.3942188 27.5 61.09375 26.8003125 61.09375 25.9375 61.09375 25.0746875 60.3942188 24.375 59.53125 24.375L39.0625 24.375C38.1995312 24.375 37.5 25.0746875 37.5 25.9375 37.5 26.8003125 38.1995312 27.5 39.0625 27.5zM47.109375 34.0625C47.109375 34.9253125 47.8089062 35.625 48.671875 35.625L65.925625 35.625C66.7885938 35.625 67.488125 34.9253125 67.488125 34.0625 67.488125 33.1996875 66.7885938 32.5 65.925625 32.5L48.671875 32.5C47.8089062 32.5 47.109375 33.1996875 47.109375 34.0625zM55.4296875 43.8684375L65.859375 43.8684375C66.7223438 43.8684375 67.421875 43.16875 67.421875 42.3059375 67.421875 41.443125 66.7223438 40.7434375 65.859375 40.7434375L55.4296875 40.7434375C54.5667187 40.7434375 53.8671875 41.443125 53.8671875 42.3059375 53.8671875 43.16875 54.5667187 43.8684375 55.4296875 43.8684375zM55.4296875 51.9934375L65.925625 51.9934375C66.7885938 51.9934375 67.488125 51.29375 67.488125 50.4309375 67.488125 49.568125 66.7885938 48.8684375 65.925625 48.8684375L55.4296875 48.8684375C54.5667187 48.8684375 53.8671875 49.568125 53.8671875 50.4309375 53.8671875 51.29375 54.5667187 51.9934375 55.4296875 51.9934375zM39.0625 19.375L52.03125 19.375C52.8942188 19.375 53.59375 18.6753125 53.59375 17.8125 53.59375 16.9496875 52.8942188 16.25 52.03125 16.25L39.0625 16.25C38.1995312 16.25 37.5 16.9496875 37.5 17.8125 37.5 18.6753125 38.1995312 19.375 39.0625 19.375z"/>
  </g>
</svg>
