<svg xmlns="http://www.w3.org/2000/svg" width="80" height="80" viewBox="0 0 80 80">
  <g fill="none">
    <path fill="#C0DBFF" d="M29.4039062,52.6201563 L23.8715625,51.294375 L18.3060938,52.6239063 C14.1134375,53.6254688 11.155625,57.3729688 11.155625,61.6835938 L11.155625,72.186875 L15.7754688,72.186875 L33.9390625,55.2160937 C32.7371875,53.9682813 31.1825,53.0464063 29.4039062,52.6201563 Z"/>
    <path fill="#FFF5F4" d="M21.99875,47.3110937 C25.3829687,46.1021875 27.8054687,42.8695312 27.8054687,39.07 L27.8054687,33.6340625 L16.191875,33.6340625 L16.191875,39.07 C16.191875,42.8695312 18.614375,46.1021875 21.99875,47.3110937 Z"/>
    <path fill="#8ECB51" d="M16.32125,35.3534375 L16.3365625,35.3534375 C20.11375,35.3534375 23.8201563,34.3279688 27.0601562,32.3865625 L27.8054687,35.3534375 L27.8054687,33.2470312 C27.8054687,29.7560938 25.760625,26.7434375 22.8035938,25.339375 C18.9934375,26.9576562 16.32125,30.7335937 16.32125,35.1340625 C16.32125,35.1340625 16.32125,35.3534375 16.32125,35.3534375 Z"/>
    <path fill="#C0DBFF" d="M71.2870312,52.6240625 L64.8751563,51.0923437 L64.8751563,47.1551562 L57.0246875,47.1551562 L57.0246875,51.0796875 L55.4046875,51.4678125 L60.2442188,52.6239062 C64.436875,53.6254688 67.3946875,57.3729687 67.3946875,61.6835937 L67.3946875,72.186875 L78.4375,72.186875 L78.4375,61.6835937 C78.4375,57.373125 75.4796875,53.625625 71.2870312,52.6240625 Z"/>
    <path fill="#FFF" d="M39.7125,57.2079687 L47.0284375,55.4548437 L45.4585937,55.0798438 L34.5240625,55.0623437 L25.57,57.2079687 C19.734375,58.6064062 15.6192187,63.8240625 15.6192187,69.8246875 L15.6192187,78.436875 L29.761875,78.436875 L29.761875,69.8246875 C29.7617187,63.8240625 33.876875,58.6064063 39.7125,57.2079687 Z"/>
    <path fill="#C0DBFF" d="M54.3892187,57.2132813 L47.0284375,55.4548438 L39.7125,57.2079688 C33.876875,58.6064063 29.7617188,63.8240625 29.7617188,69.8246875 L29.7617188,78.436875 L64.34875,78.436875 L64.34875,69.8321875 C64.34875,63.828125 60.2290625,58.6084375 54.3892187,57.2132813 Z"/>
    <g fill="#FFF" transform="translate(15 47.031)">
      <polygon points="3.828 .124 0 .124 0 4.168 4.07 13.913 5.983 9.329 3.828 4.168"/>
      <polygon points="45.684 .124 41.856 .124 41.856 4.154 45.93 13.913 47.845 9.329 45.684 4.154"/>
    </g>
    <g fill="#FFF5F4" transform="translate(18.75 47.031)">
      <polygon points="4.394 .124 .078 .124 .078 4.168 2.233 9.329 4.394 4.154"/>
      <polygon points="46.25 .124 41.934 .124 41.934 4.154 44.095 9.329 46.25 4.168"/>
    </g>
    <path fill="#FFF" d="M39.6104688,51.9117188 L39.6104688,50.639375 L34.8448437,50.639375 L34.8448437,51.9117188 C34.8448437,52.8054688 34.5992187,53.6498438 34.1678125,54.375625 L40.0015625,67.6148438 L42.3839063,62.2060938 L38.9334375,54.375625 C39.3648437,53.6498438 39.6104688,52.8054688 39.6104688,51.9117188 Z"/>
    <path fill="#FFF5F4" d="M9.05828125 22.0678125L9.05828125 20.795625 3.51671875 20.795625 3.51671875 22.0679688C3.51671875 22.9617188 3.27109375 23.8060938 2.8396875 24.531875L6.29015625 32.3623438 9.7375 24.5354688C9.30484375 23.8089063 9.05828125 22.963125 9.05828125 22.0678125zM8.046875 19.955625C12.739375 18.2604688 16.09375 13.7678125 16.09375 8.490625L16.09375.08140625 0 .08140625 0 8.490625C0 13.7678125 3.354375 18.260625 8.046875 19.955625z" transform="translate(36.094 29.844)"/>
    <path fill="#8ECB51" d="M44.9770313,19.0995312 C39.7653125,21.2348437 36.09375,26.3571875 36.09375,32.3379687 L36.09375,32.9540625 C39.17375,32.4117187 41.9945313,30.8026562 44.0346875,28.368125 L44.0346875,28.368125 L51.9682813,33.0292187 C52.0420312,32.97875 52.1148437,32.9267187 52.1876563,32.875 L52.1876563,30.2242187 C52.1876563,25.2665625 49.2259375,21.0035938 44.9770313,19.0995312 Z"/>
    <path fill="#FFF5F4" d="M63.9329687,47.2959375 C67.2940625,46.0746875 69.695,42.8529687 69.695,39.0698437 L69.695,33.6339063 L58.1707812,33.6339063 L58.1707812,39.0698437 C58.1707812,42.8529687 60.571875,46.0748437 63.9329687,47.2959375 Z"/>
    <path fill="#8ECB51" d="M64.8192188,25.40125 C61.173125,26.98375 58.5571875,30.4875 58.2448438,34.6354688 C58.5065625,34.7059375 58.7698438,34.7704688 59.0342188,34.830625 L59.1446875,34.3907813 L59.1446875,34.3907813 C59.5578125,34.6384375 59.9784375,34.8709375 60.4032813,35.0945313 C61.4776563,35.2645312 62.5671875,35.3535938 63.6632813,35.3535938 L69.695,35.3535938 L69.695,33.2471875 C69.695,29.8060937 67.7078125,26.8304688 64.8192188,25.40125 Z"/>
    <path fill="#574CFA" d="M1.5625 73.749375L14.0567187 73.749375 14.0567187 78.436875C14.0567187 79.2998438 14.7564062 79.999375 15.6192187 79.999375L32.7604687 79.999375C33.6232812 79.999375 34.3229687 79.2998438 34.3229687 78.436875 34.3229687 77.5739063 33.6232812 76.874375 32.7604687 76.874375L25.785 76.874375 25.785 69.9975C25.785 69.1345312 25.0853125 68.435 24.2225 68.435 23.3596875 68.435 22.66 69.1345312 22.66 69.9975L22.66 76.874375 17.1815625 76.874375 17.1815625 69.8246875C17.1815625 64.525625 20.780625 59.9623438 25.9339062 58.7275L33.61875 56.8859375 38.5634375 68.1353125C38.8128125 68.7026562 39.3739062 69.0690625 39.9935937 69.0690625L39.99375 69.0690625C40.6134375 69.0690625 41.1746875 68.7028125 41.4240625 68.1354688L46.36375 56.9025 54.02625 58.7329687C59.1842187 59.965 62.7864062 64.5292187 62.7864062 69.8320312L62.7864062 71.575625C62.7065625 71.7634375 62.6621875 71.9698437 62.6621875 72.1867187 62.6621875 72.4035937 62.7065625 72.6101562 62.7864062 72.7978125L62.7864062 76.8742187 57.34 76.8742187 57.34 69.9973437C57.34 69.134375 56.6403125 68.4348437 55.7775 68.4348437 54.9146875 68.4348437 54.215 69.134375 54.215 69.9973437L54.215 76.8742187 46.5626562 76.8742187C45.6998437 76.8742187 45.0001562 77.57375 45.0001562 78.4367187 45.0001562 79.2996875 45.6998437 79.999375 46.5626562 79.999375L64.3489062 79.999375C65.2117187 79.999375 65.9114062 79.2996875 65.9114062 78.4367187L65.9114062 73.7492188 78.4375 73.7492188C79.3003125 73.7492188 80 73.0496875 80 72.1867187L80 61.6834375C80 56.6289062 76.56625 52.2784375 71.65 51.1040625L66.4378125 49.8589062 66.4378125 47.7914062C69.3309375 45.9628125 71.2578125 42.7379687 71.2578125 39.0698437L71.2578125 35.3532812 71.2578125 33.63375 71.2578125 33.246875C71.2578125 27.5604687 66.6315625 22.934375 60.945 22.934375 57.8775 22.934375 55.1201563 24.2821875 53.229375 26.4148437 51.5734375 20.68 46.2770313 16.47375 40.01625 16.47375L40.0160938 16.47375C33.7451563 16.47375 28.4415625 20.6932812 26.7948438 26.4421875 24.9035938 24.29375 22.1360938 22.934375 19.0554688 22.934375 13.3689063 22.934375 8.74265625 27.560625 8.74265625 33.246875L8.74265625 33.63375 8.74265625 35.3532812 8.74265625 39.0698437C8.74265625 42.738125 10.6695313 45.9629687 13.5626563 47.7914062L13.5626563 49.8589063 8.35046875 51.1040625C3.43375 52.27875 0 56.6290625 0 61.68375L0 72.1870313C0 73.0498438.6996875 73.749375 1.5625 73.749375zM27.766875 44.5784375C28.9448437 46.8798437 30.7528125 48.8070312 32.9614062 50.1326563L32.9614062 52.431875C31.9804688 51.8234375 30.9042187 51.3729688 29.7679688 51.1007812L24.5376563 49.8475 24.5376563 47.7982812C25.8384375 46.9784375 26.9432812 45.8765625 27.766875 44.5784375zM55.4623438 47.7982812L55.4623438 49.8475 50.2320313 51.1007812C49.0889063 51.3746875 48.0065625 51.8292187 47.0207812 52.4432812L47.0207812 50.1621875C49.2429687 48.8410937 51.0635938 46.9125 52.250625 44.6060937 53.0726563 45.8920312 54.1707812 46.9842187 55.4623438 47.7982812zM50.6321875 35.3534375L50.6321875 38.70125C50.4376562 44.3904687 45.751875 48.9596875 40.0159375 48.9596875 34.1571875 48.9596875 29.390625 44.1932812 29.390625 38.3345312L29.390625 34.7204687 33.7871875 34.7204687C37.7753125 34.7204687 41.5551562 33.1442187 44.3476562 30.3546875L50.6321875 34.0467187 50.6321875 35.3534375 50.6321875 35.3534375 50.6321875 35.3534375zM25.2057812 55.6885938C24.283125 55.9096875 23.4014062 56.2173438 22.5642187 56.5967188L24.0860937 52.9526563 29.0396875 54.1396875C29.4239062 54.2317187 29.7982812 54.3534375 30.160625 54.50125L25.2057812 55.6885938zM39.9940625 63.6242188L36.0864063 54.7340625 36.0864063 51.5115625C37.3320313 51.88375 38.6509375 52.0845312 40.0159375 52.0845312 41.3628125 52.0845312 42.6648438 51.8889062 43.8957813 51.52625L43.8957813 54.7514063 39.9940625 63.6242188zM49.8107813 54.513125C50.1820313 54.36 50.5659375 54.2342187 50.9603125 54.1396875L55.901875 52.955625 57.43 56.6159375C56.5820312 56.2296875 55.688125 55.9173438 54.7521875 55.69375L49.8107813 54.513125zM76.875 61.68375L76.875 70.6245312 73.75 70.6245312 73.75 63.6825C73.75 62.8195312 73.0503125 62.12 72.1875 62.12 71.3246875 62.12 70.625 62.8195312 70.625 63.6825L70.625 70.6245312 65.9114062 70.6245312 65.9114062 69.8323437C65.9114062 66.410625 64.7323437 63.2315625 62.7164063 60.7221875L65.9590625 52.9578125 70.9239063 54.1439062C74.4278125 54.9807812 76.875 58.08125 76.875 61.68375zM63.31625 51.1767187L60.930625 56.8890625 58.5771875 51.251875C58.5834375 51.1951563 58.5879688 51.138125 58.5879688 51.0809375 58.5879688 51.0664063 58.5878125 51.0517188 58.5873438 51.0371875L58.5873438 49.1075C59.3451563 49.2854688 60.1335938 49.3825 60.9448438 49.3825 61.7596875 49.3825 62.551875 49.2845313 63.3126563 49.105L63.3126563 51.0921875C63.3126563 51.1207813 63.3146875 51.1485937 63.31625 51.1767187zM60.9448437 46.2575C56.9815625 46.2575 53.7570312 43.033125 53.7570312 39.0698437L53.7570312 38.8148437C53.7625 38.6553125 53.7664062 38.4953125 53.7664062 38.334375L53.7664062 34.6134375C56.838125 36.1240625 60.2245312 36.9157812 63.6635937 36.9157812L68.1328125 36.9157812 68.1328125 39.0698437C68.1326562 43.0332813 64.908125 46.2575 60.9448437 46.2575zM60.9448438 26.0595312C64.908125 26.0595312 68.1326563 29.2839062 68.1326563 33.2470312L68.1326563 33.6339062 68.1326563 33.7909375 63.6634375 33.7909375C60.2875 33.7909375 56.9701563 32.9045312 54.0465625 31.224375 54.9225 28.2428125 57.6834375 26.0595312 60.9448438 26.0595312zM29.390625 30.2240625C29.390625 24.3653125 34.1571875 19.5990625 40.0160937 19.5990625 45.8748437 19.5990625 50.6414063 24.3654687 50.6414063 30.2240625L50.6414063 30.4278125 44.8421875 27.0207812C44.1842187 26.6340625 43.3432812 26.7795312 42.853125 27.364375 40.6 30.053125 37.295625 31.5953125 33.7873437 31.5953125L29.390625 31.5953125 29.390625 30.7628125 29.390625 30.2240625zM11.8673437 33.2470312C11.8673437 29.28375 15.091875 26.0595312 19.0551563 26.0595312 22.3165625 26.0595312 25.0775 28.2428125 25.9532812 31.2245312 23.0296875 32.9045312 19.7125 33.7910937 16.3364062 33.7910937L11.8673437 33.7910937 11.8673437 33.6340625 11.8673437 33.2470312zM11.8673437 36.9159375L16.3365625 36.9159375C19.7790625 36.9159375 23.1689062 36.1228125 26.2429687 34.6092187L26.2429687 35.3534375 26.2429687 39.07C26.2429687 43.0332812 23.0184375 46.2576562 19.0551562 46.2576562 15.091875 46.2576562 11.8673437 43.0332812 11.8673437 39.07 11.8673437 39.07 11.8673437 36.9159375 11.8673437 36.9159375zM19.0551562 49.3825C19.8664063 49.3825 20.6548438 49.2853125 21.4126563 49.1075L21.4126563 50.9934375C21.4109375 51.0228125 21.4101562 51.0521875 21.4101562 51.0815625 21.4101562 51.1307812 21.4148438 51.1796875 21.4195313 51.2285937L19.0554688 56.8890625 16.6825 51.2048437C16.6851563 51.1675 16.6873438 51.1301562 16.6873438 51.0923437L16.6873438 49.1051562C17.448125 49.2846875 18.2403125 49.3825 19.0551562 49.3825zM3.125 61.68375C3.125 58.0814063 5.5721875 54.9809375 9.07609375 54.1439063L14.0289063 52.960625 17.2614063 60.7035938C15.2396875 63.215 14.0567187 66.3984375 14.0567187 69.8246875L14.0567187 70.624375 9.375 70.624375 9.375 63.6823438C9.375 62.819375 8.6753125 62.1198438 7.8125 62.1198438 6.9496875 62.1198438 6.25 62.819375 6.25 63.6823438L6.25 70.624375 3.125 70.624375 3.125 61.68375zM63.534375 11.561875L64.6060937 11.561875C65.4689063 11.561875 66.1685937 10.8623437 66.1685937 9.999375 66.1685937 9.13640625 65.4689063 8.436875 64.6060937 8.436875L63.534375 8.436875C62.6715625 8.436875 61.971875 9.13640625 61.971875 9.999375 61.971875 10.8623437 62.6715625 11.561875 63.534375 11.561875zM71.1157813 11.561875L72.1875 11.561875C73.0503125 11.561875 73.75 10.8623437 73.75 9.999375 73.75 9.13640625 73.0503125 8.436875 72.1875 8.436875L71.1157813 8.436875C70.2529688 8.436875 69.5532813 9.13640625 69.5532813 9.999375 69.5532813 10.8623437 70.2528125 11.561875 71.1157813 11.561875z"/>
    <path fill="#574CFA" d="M36.203125 37.0978125C36.1640625 37.0025 36.1154688 36.911875 36.0592188 36.8275 36.0015625 36.7415625 35.9359375 36.661875 35.8639063 36.59 35.7920313 36.518125 35.7123438 36.4525 35.6264063 36.39625 35.5420313 36.34 35.4514063 36.2915625 35.3576563 36.2525 35.2623438 36.2134375 35.1639063 36.18375 35.0654688 36.1634375 34.8639063 36.1228125 34.6560938 36.1228125 34.4545313 36.1634375 34.3545313 36.18375 34.2560938 36.2134375 34.1623438 36.2525 34.0670312 36.2915625 33.9765625 36.34 33.8921875 36.39625 33.8060938 36.4525 33.7264063 36.518125 33.6545313 36.59 33.3639062 36.880625 33.1967188 37.28375 33.1967188 37.6946875 33.1967188 37.79625 33.2075 37.899375 33.2279688 37.999375 33.2482812 38.099375 33.2778125 38.1978125 33.316875 38.2915625 33.3559375 38.386875 33.4045312 38.4775 33.460625 38.561875 33.516875 38.6478125 33.5825 38.7275 33.654375 38.799375 33.72625 38.87125 33.8059375 38.936875 33.8920312 38.993125 33.9764062 39.049375 34.066875 39.0978125 34.1621875 39.136875 34.2560937 39.1759375 34.354375 39.2071875 34.454375 39.2259375 34.554375 39.24625 34.6575 39.2571875 34.7590625 39.2571875 35.17 39.2571875 35.573125 39.09 35.8635937 38.799375 35.935625 38.7275 36.00125 38.6478125 36.0589062 38.561875 36.1151562 38.4775 36.16375 38.386875 36.2028125 38.2915625 36.241875 38.1978125 36.2714062 38.099375 36.2917187 37.999375 36.3120312 37.899375 36.3214062 37.79625 36.3214062 37.6946875 36.3214062 37.593125 36.311875 37.49 36.2917187 37.39 36.2715625 37.29 36.2421875 37.1915625 36.203125 37.0978125zM44.103125 36.59C44.03125 36.661875 43.965625 36.7415625 43.909375 36.8275 43.8532813 36.911875 43.8046875 37.0025 43.765625 37.0978125 43.7265625 37.1915625 43.6970312 37.29 43.6765625 37.39 43.65625 37.49 43.6454687 37.593125 43.6454687 37.6946875 43.6454687 37.79625 43.65625 37.899375 43.6765625 37.999375 43.6970312 38.099375 43.7265625 38.1978125 43.765625 38.293125 43.8046875 38.386875 43.8532812 38.4775 43.909375 38.561875 43.965625 38.6478125 44.03125 38.7275 44.103125 38.799375 44.175 38.87125 44.2546875 38.936875 44.340625 38.9946875 44.425 39.0509375 44.515625 39.0978125 44.6109375 39.136875 44.7046875 39.1759375 44.803125 39.2071875 44.903125 39.2275 45.003125 39.2478125 45.10625 39.2571875 45.2078125 39.2571875 45.3109375 39.2571875 45.4125 39.2478125 45.5140625 39.2275 45.6125 39.2071875 45.7109375 39.1759375 45.80625 39.136875 45.9 39.0978125 45.990625 39.0509375 46.075 38.9946875 46.1609375 38.936875 46.240625 38.87125 46.3140625 38.799375 46.6045312 38.50875 46.7703125 38.105625 46.7703125 37.6946875 46.7703125 37.28375 46.6045313 36.880625 46.3140625 36.59 46.2404687 36.518125 46.1609375 36.4525 46.075 36.39625 45.990625 36.34 45.9 36.2915625 45.80625 36.2525 45.7109375 36.2134375 45.6125 36.1821875 45.5140625 36.1634375 45.3125 36.1228125 45.1046875 36.1228125 44.903125 36.1634375 44.803125 36.1821875 44.7045312 36.2134375 44.6109375 36.2525 44.515625 36.2915625 44.425 36.34 44.340625 36.39625 44.2545312 36.4525 44.175 36.518125 44.103125 36.59zM40.7975 41.8496875C40.3354688 42.3117188 39.58375 42.3117188 39.1217188 41.8496875 38.5114063 41.2395313 37.5223438 41.2395313 36.911875 41.8496875 36.3017188 42.4598438 36.3017188 43.4492188 36.911875 44.0595313 37.7521875 44.8996875 38.8557813 45.3198438 39.9595313 45.3198438 41.0632813 45.3198438 42.166875 44.8998438 43.0071875 44.0595313 43.6173438 43.449375 43.6173438 42.46 43.0071875 41.8496875 42.3970313 41.2395313 41.4079688 41.2395313 40.7975 41.8496875zM67.8610937 15.8884375C68.7239062 15.8884375 69.4235937 15.1889062 69.4235937 14.3259375L69.4235937 13.2542187C69.4235937 12.39125 68.7239062 11.6917187 67.8610937 11.6917187 66.9982812 11.6917187 66.2985937 12.39125 66.2985937 13.2542187L66.2985937 14.3259375C66.2985937 15.1889062 66.998125 15.8884375 67.8610937 15.8884375zM67.8610937 8.3071875C68.7239062 8.3071875 69.4235937 7.60765625 69.4235937 6.7446875L69.4235937 5.67296875C69.4235937 4.81 68.7239062 4.11046875 67.8610937 4.11046875 66.9982812 4.11046875 66.2985937 4.81 66.2985937 5.67296875L66.2985937 6.7446875C66.2985937 7.60765625 66.998125 8.3071875 67.8610937 8.3071875zM7.725625 11.561875L8.7971875 11.561875C9.66 11.561875 10.3596875 10.8623437 10.3596875 9.999375 10.3596875 9.13640625 9.66 8.436875 8.7971875 8.436875L7.725625 8.436875C6.8628125 8.436875 6.163125 9.13640625 6.163125 9.999375 6.163125 10.8623437 6.8628125 11.561875 7.725625 11.561875zM15.3070312 11.561875L16.3785938 11.561875C17.2414063 11.561875 17.9410938 10.8623437 17.9410938 9.999375 17.9410938 9.13640625 17.2414063 8.436875 16.3785938 8.436875L15.3070312 8.436875C14.4442187 8.436875 13.7445312 9.13640625 13.7445312 9.999375 13.7445312 10.8623437 14.4440625 11.561875 15.3070312 11.561875zM12.0521875 15.8884375C12.915 15.8884375 13.6146875 15.1889062 13.6146875 14.3259375L13.6146875 13.2542187C13.6146875 12.39125 12.915 11.6917187 12.0521875 11.6917187 11.189375 11.6917187 10.4896875 12.39125 10.4896875 13.2542187L10.4896875 14.3259375C10.4896875 15.1889062 11.1892188 15.8884375 12.0521875 15.8884375zM12.0521875 8.3071875C12.915 8.3071875 13.6146875 7.60765625 13.6146875 6.7446875L13.6146875 5.67296875C13.6146875 4.81 12.915 4.11046875 12.0521875 4.11046875 11.189375 4.11046875 10.4896875 4.81 10.4896875 5.67296875L10.4896875 6.7446875C10.4896875 7.60765625 11.1892188 8.3071875 12.0521875 8.3071875zM40 13.1865625C40.8628125 13.1865625 41.5625 12.4870312 41.5625 11.6240625L41.5625 7.513125C41.5625 6.65015625 40.8628125 5.950625 40 5.950625 39.1371875 5.950625 38.4375 6.65015625 38.4375 7.513125L38.4375 11.6240625C38.4375 12.4870312 39.1371875 13.1865625 40 13.1865625zM38.5578125 2.1603125C38.596875 2.2540625 38.6454687 2.3446875 38.7015625 2.4290625 38.7578125 2.515 38.8234375 2.5946875 38.8953125 2.6665625 38.9671875 2.7384375 39.046875 2.8040625 39.1329687 2.8603125 39.2173437 2.9165625 39.3078125 2.965 39.403125 3.0040625 39.496875 3.043125 39.5953125 3.0728125 39.6953125 3.093125 39.7953125 3.1134375 39.8984375 3.124375 40 3.124375 40.4109375 3.124375 40.8140625 2.9571875 41.1045313 2.6665625 41.1764062 2.5946875 41.2421875 2.515 41.2982813 2.4290625 41.3545313 2.3446875 41.4029688 2.2540625 41.4420313 2.1603125 41.4810938 2.065 41.5123438 1.9665625 41.5310938 1.8665625 41.5514063 1.7665625 41.5623438 1.6634375 41.5623438 1.561875 41.5623438 1.4603125 41.5514063 1.3571875 41.5310938 1.2571875 41.5123438 1.1571875 41.4810938 1.05875 41.4420313.965 41.4029688.8696875 41.3545313.7790625 41.2982813.6946875 41.2421875.60875 41.1764063.5290625 41.1045313.4571875 40.7421875.0946875 40.2029688-.0725 39.6951562.030625 39.5951563.049375 39.4965625.080625 39.4029687.1196875 39.3076562.15875 39.2171875.2071875 39.1328125.2634375 39.0467187.3196875 38.9670312.3853125 38.8951562.4571875 38.8232813.5290625 38.7576562.60875 38.7014062.6946875 38.6453125.7790625 38.5967187.8696875 38.5576562.965 38.5185937 1.05875 38.4890625 1.1571875 38.46875 1.2571875 38.4482813 1.3571875 38.4375 1.4603125 38.4375 1.561875 38.4375 1.6634375 38.4482813 1.7665625 38.46875 1.8665625 38.4890625 1.9665625 38.51875 2.065 38.5578125 2.1603125zM32.3145312 8.4778125C32.6196875 8.78296875 33.0195312 8.93546875 33.419375 8.93546875 33.8192187 8.93546875 34.2190625 8.78296875 34.5242187 8.4778125 35.134375 7.86765625 35.134375 6.87828125 34.5242187 6.26796875L32.2376562 3.98140625C31.6273437 3.37125 30.6382812 3.37125 30.0278125 3.98140625 29.4176562 4.5915625 29.4176562 5.5809375 30.0278125 6.19125L32.3145312 8.4778125zM46.5040625 8.92609375C46.9040625 8.92609375 47.30375 8.77359375 47.6089063 8.4684375L49.971875 6.10546875C50.5820312 5.4953125 50.5820312 4.5059375 49.971875 3.895625 49.3615625 3.28546875 48.3725 3.28546875 47.7620313 3.895625L45.3990625 6.25859375C44.7889063 6.86875 44.7889063 7.858125 45.3990625 8.4684375 45.704375 8.77359375 46.1040625 8.92609375 46.5040625 8.92609375zM38.6609375 79.3040625C38.7171875 79.39 38.7828125 79.4696875 38.8546875 79.5415625 38.9265625 79.6134375 39.00625 79.6790625 39.0921875 79.7353125 39.1765625 79.7915625 39.2671875 79.84 39.3625 79.8790625 39.45625 79.918125 39.5545313 79.949375 39.6546875 79.968125 39.7546875 79.9884375 39.8578125 79.999375 39.959375 79.999375 40.3703125 79.999375 40.7734375 79.8321875 41.0639063 79.5415625 41.1357813 79.4696875 41.2014063 79.39 41.2576563 79.3040625 41.3139063 79.2196875 41.3623438 79.1290625 41.4014063 79.03375 41.4404688 78.94 41.4717188 78.8415625 41.4904688 78.7415625 41.5107813 78.6415625 41.5217188 78.5384375 41.5217188 78.436875 41.5217188 78.3353125 41.5107813 78.2321875 41.4904688 78.1321875 41.4717188 78.0321875 41.4404688 77.93375 41.4014063 77.84 41.3623438 77.7446875 41.3139063 77.6540625 41.2576563 77.5696875 41.2014063 77.48375 41.1357813 77.4040625 41.0639063 77.3321875 40.7015625 76.9696875 40.1623438 76.8025 39.6545313 76.905625 39.554375 76.924375 39.4559375 76.955625 39.3623438 76.9946875 39.2670313 77.03375 39.1764062 77.0821875 39.0920313 77.1384375 39.0060938 77.1946875 38.9264063 77.2603125 38.8545313 77.3321875 38.7826563 77.4040625 38.7170313 77.48375 38.6607812 77.5696875 38.6045313 77.6540625 38.5560938 77.7446875 38.5170313 77.84 38.4779688 77.93375 38.4467188 78.0321875 38.4279688 78.1321875 38.4076563 78.2321875 38.396875 78.3353125 38.396875 78.436875 38.396875 78.5384375 38.4076563 78.6415625 38.4279688 78.7415625 38.4467188 78.8415625 38.4779688 78.94 38.5170313 79.03375 38.55625 79.1290625 38.6045313 79.2196875 38.6609375 79.3040625z"/>
  </g>
</svg>
