<svg xmlns="http://www.w3.org/2000/svg" width="122" height="122" viewBox="0 0 122 122">
  <g fill="#FFF" transform="translate(5)">
    <path d="M72.7660069 22.39C72.7732168 14.3770567 67.1178458 7.4754325 59.2598011 5.90748982 51.4017563 4.33954713 43.5307109 8.54219901 40.4621121 15.9442942 37.3935133 23.3463894 39.9824375 31.8853068 46.645 36.337L46.645 39.278C44.7781847 39.6557487 43.32995 41.1328696 42.9891389 43.0067803 42.6483277 44.880691 43.483733 46.7731412 45.098 47.784 44.5374135 49.2155279 44.7231185 50.8318679 45.5937555 52.0989592 46.4643925 53.3660505 47.9066551 54.1189915 49.444 54.1090982L62.505 54.1090982C64.0423449 54.1189915 65.4846075 53.3660505 66.3552445 52.0989592 67.2258815 50.8318679 67.4115865 49.2155279 66.851 47.784 68.465267 46.7731412 69.3006723 44.880691 68.9598611 43.0067803 68.61905 41.1328696 67.1708153 39.6557487 65.304 39.278L65.304 36.337C69.9544621 33.2168743 72.7508891 27.9901565 72.7660069 22.39L72.7660069 22.39zM62.505 50.377L49.444 50.377C48.9287183 50.377 48.511 49.9592817 48.511 49.444 48.511 48.9287183 48.9287183 48.511 49.444 48.511L62.505 48.511C63.0202817 48.511 63.438 48.9287183 63.438 49.444 63.438 49.9592817 63.0202817 50.377 62.505 50.377L62.505 50.377zM64.371 44.777L47.582 44.777C47.0667183 44.777 46.649 44.3592817 46.649 43.844 46.649 43.3287183 47.0667183 42.911 47.582 42.911L64.374 42.911C64.8892817 42.911 65.307 43.3287183 65.307 43.844 65.307 44.3592817 64.8892817 44.777 64.374 44.777L64.371 44.777zM54.109 22.387C54.109 21.3564367 54.9444367 20.521 55.975 20.521 57.0055633 20.521 57.841 21.3564367 57.841 22.387 57.841 23.4175633 57.0055633 24.2530003 55.975 24.2530003 54.9452167 24.2535532 54.1096555 23.4197821 54.108 22.39L54.109 22.387zM62.503 33.687L61.572 34.226 61.572 39.182 57.84 39.182 57.84 27.644C60.4116612 26.7351458 61.9544739 24.1056966 61.4934117 21.4174111 61.0323495 18.7291256 58.7015369 16.7640337 55.974 16.7640337 53.2464631 16.7640337 50.9156505 18.7291256 50.4545883 21.4174111 49.9935261 24.1056966 51.5363388 26.7351458 54.108 27.644L54.108 39.182 50.376 39.182 50.376 34.229 49.445 33.69C44.3246115 30.7349493 41.8276334 24.7089712 43.357244 18.9983675 44.8868546 13.2877638 50.061588 9.31668774 55.9735 9.31668774 61.885412 9.31668774 67.0601454 13.2877638 68.589756 18.9983675 70.1193666 24.7089712 67.6223885 30.7349493 62.502 33.69L62.503 33.687zM71.703 97.506C70.866575 95.3619289 68.7974316 93.9532265 66.496 93.961L65.304 93.961 65.304 72.504C65.304 68.8973044 62.3801956 65.9735 58.7735 65.9735 55.1668044 65.9735 52.243 68.8973044 52.243 72.504L52.243 81.376C51.579841 81.0761497 50.8626595 80.9142055 50.135 80.9L48.363 80.9C45.354875 80.9044059 42.9174059 83.341875 42.913 86.35L42.913 86.497 40.9 86.497C37.891875 86.5014059 35.4544059 88.938875 35.45 91.947L35.45 92.094 35.303 92.094C32.294875 92.0984059 29.8574059 94.535875 29.8529841 97.544L29.8529841 101.818C29.8496593 104.370063 30.3728997 106.895371 31.39 109.236L34.219 115.765C35.0334235 117.637529 35.4525029 119.65803 35.45 121.7L35.45 121.948 39.182 121.948 39.182 121.698C39.1853407 119.145937 38.6621003 116.620629 37.645 114.28L34.816 107.751C34.3397426 106.640732 34.0008996 105.476442 33.807 104.284L40.823 111.3C43.0094093 113.483874 46.5515907 113.483874 48.738 111.3L49.059 110.979C49.9055829 110.127469 50.4529953 109.024222 50.619 107.835 50.693 107.835 50.766 107.855 50.841 107.855 51.8709342 107.85616 52.8799192 107.564113 53.75 107.013L53.864 106.942C54.1259098 106.763658 54.371834 106.562903 54.599 106.342 55.4606548 107.120666 56.5004897 107.675611 57.627 107.958L60.127 108.585 61.67 113.21 65.208 112.029 63.019 105.459 58.53 104.336C56.875136 103.925856 55.7870316 102.344689 55.9951473 100.652507 56.2032631 98.9603248 57.6420708 97.6899343 59.347 97.693L66.495 97.693C67.2597017 97.6971624 67.9456845 98.1641051 68.23 98.874L70.512 104.665C70.7686103 105.317994 70.9002275 106.013394 70.9 106.715L70.9 107.126C70.8986401 107.993668 70.6967165 108.849276 70.31 109.626L68.153 113.94C67.5071585 115.23461 67.1700115 116.661238 67.168 118.108L67.168 121.944 70.9 121.944 70.9 118.108C70.9013599 117.240332 71.1032835 116.384724 71.49 115.608L73.647 111.294C74.2928415 109.99939 74.6299885 108.572762 74.6320019 107.126L74.6320019 106.718C74.6327424 105.547972 74.412552 104.388325 73.983 103.3L71.703 97.506zM46.42 108.341L46.099 108.662C45.7494856 109.012397 45.2749124 109.209322 44.78 109.209322 44.2850876 109.209322 43.8105144 109.012397 43.461 108.662L34.089 99.29C33.7666936 98.9672531 33.5866865 98.5291158 33.588978 98.073L33.588978 97.545C33.5895517 96.5958511 34.3588511 95.8265517 35.308 95.8259656L35.836 95.8259656C36.2916414 95.8231036 36.7293735 96.0032402 37.051 96.326L46.423 105.698C46.7740412 106.048375 46.9710609 106.524147 46.9704991 107.020123 46.969935 107.516099 46.7718357 107.991423 46.42 108.341zM52.479 102.859C52.3818929 103.246485 52.1487111 103.586143 51.822 103.816L51.785 103.84C51.1035028 104.291585 50.1984237 104.201746 49.619 103.625L49.058 103.064 39.686 93.692C39.3642577 93.3688779 39.1843515 92.930986 39.1859888 92.475L39.1859888 91.947C39.1865517 90.9978511 39.9558511 90.2285517 40.905 90.228L42.991 90.228C43.5289687 90.229323 44.0354075 90.4819875 44.36 90.911L48.689 96.68 52.215 101.372C52.23 101.391 52.243 101.423 52.258 101.423L52.258 101.423 52.277 101.457C52.3031994 101.923339 52.375553 102.385933 52.493 102.838 52.488 102.847 52.486 102.854 52.479 102.859zM55.973 94.506C55.973 95.023 54.337 95.827 53.573 97.693L53.563 97.693 49.563 91.993 47.35 88.862 46.993 88.25C46.7670355 87.9346091 46.6463081 87.5559801 46.6479825 87.168L46.6479825 86.351C46.6485517 85.4018511 47.4178511 84.6325517 48.367 84.632L50.138 84.632C50.761 84.632 51.009 84.972 51.311 85.516L55.976 94.504 55.973 94.506zM61.573 93.961L60.597 93.961 55.975 85.643 55.975 72.505C55.975 70.9586027 57.2286027 69.705 58.775 69.705 60.3213973 69.705 61.575 70.9586027 61.575 72.505L61.573 93.961z"/>
    <rect width="3.732" height="3.732" x="54.108"/>
    <rect width="3.732" height="3.732" x="43.847" y="2.75" transform="rotate(60.007 45.713 4.616)"/>
    <rect width="3.732" height="3.732" x="36.333" y="10.262" transform="rotate(29.993 38.2 12.128)"/>
    <rect width="3.732" height="3.732" x="33.584" y="20.524"/>
    <rect width="3.732" height="3.732" x="36.332" y="30.787" transform="rotate(-119.993 38.198 32.653)"/>
    <rect width="3.732" height="3.732" x="71.88" y="30.783" transform="rotate(-150.007 73.746 32.65)"/>
    <rect width="3.732" height="3.732" x="74.632" y="20.524"/>
    <rect width="3.732" height="3.732" x="71.884" y="10.266" transform="rotate(60.007 73.75 12.132)"/>
    <rect width="3.732" height="3.732" x="64.368" y="2.749" transform="rotate(29.993 66.234 4.615)"/>
    <polygon points="108.217 22.39 108.217 18.658 104.486 18.658 104.486 22.39 100.754 22.39 100.754 26.122 104.486 26.122 104.486 29.853 108.217 29.853 108.217 26.121 111.949 26.121 111.949 22.39"/>
    <polygon points="89.558 11.195 93.29 11.195 93.29 7.463 97.022 7.463 97.022 3.732 93.29 3.732 93.29 0 89.558 0 89.558 3.732 85.827 3.732 85.827 7.463 89.558 7.463"/>
    <polygon points="7.463 29.853 3.732 29.853 3.732 33.585 0 33.585 0 37.317 3.732 37.317 3.732 41.049 7.463 41.049 7.463 37.316 11.194 37.316 11.194 33.585 7.463 33.585"/>
    <polygon points="24.256 14.924 20.528 14.924 20.528 11.195 16.793 11.195 16.793 14.924 13.061 14.924 13.061 18.656 16.793 18.656 16.793 22.388 20.528 22.388 20.528 18.658 24.26 18.658"/>
    <polygon points="29.853 59.701 29.853 55.969 33.585 55.969 33.585 52.237 29.853 52.237 29.853 48.511 26.122 48.511 26.122 52.242 22.39 52.242 22.39 55.974 26.122 55.974 26.122 59.701"/>
    <polygon points="95.156 39.182 91.424 39.182 91.424 42.914 87.693 42.914 87.693 46.646 91.424 46.646 91.424 50.377 95.156 50.377 95.156 46.646 98.883 46.646 98.883 42.914 95.151 42.914"/>
  </g>
</svg>
