<svg xmlns="http://www.w3.org/2000/svg" width="36" height="36" viewBox="0 0 36 36">
  <defs>
    <linearGradient id="1-a" x1="100%" x2="0%" y1="0%" y2="100%">
      <stop offset="0%" stop-color="#83CEFD"/>
      <stop offset="100%" stop-color="#574CFA"/>
    </linearGradient>
  </defs>
  <g fill="none" fill-rule="evenodd">
    <circle cx="18" cy="18" r="18" fill="url(#1-a)"/>
    <g fill="#FFF" fill-rule="nonzero" transform="translate(8 8)">
      <path d="M13.6666667,13.52 L13.5866667,13.2566667 C13.1317935,11.6600939 11.9947042,10.3460969 10.48,9.66666667 C11.4169994,8.72929906 11.6932269,7.31795428 11.17875,6.09650459 C10.664273,4.87505491 9.46151203,4.08666295 8.13622516,4.10217473 C6.81093829,4.1176865 5.62695973,4.93401395 5.1412126,6.16717072 C4.65546546,7.40032749 4.96465087,8.80482033 5.92333333,9.72 C4.41635915,10.3959485 3.28274216,11.7002175 2.82333333,13.2866667 L2.74333333,13.55 C2.70582044,13.6756384 2.73818439,13.811746 2.82823399,13.9070523 C2.9182836,14.0023586 3.05233818,14.0423844 3.17990067,14.0120523 C3.30746316,13.9817202 3.40915378,13.8856384 3.44666667,13.76 L3.52666667,13.4966667 C3.95414867,12.0045707 5.06905109,10.80667 6.52666667,10.2733333 L6.64333333,10.2366667 C7.63334991,10.7707153 8.82951864,10.7530504 9.80333333,10.19 L9.91666667,10.2266667 C11.3742822,10.7600033 12.4891847,11.9579041 12.9166667,13.45 L12.9966667,13.7133333 C13.0857404,13.8447836 13.2493025,13.9039626 13.4018648,13.8599397 C13.5544272,13.8159167 13.661317,13.6786968 13.6666667,13.52 L13.6666667,13.52 Z M5.65,7.38666667 C5.65,5.99306815 6.77973481,4.86333333 8.17333333,4.86333333 C9.56693185,4.86333333 10.6966667,5.99306815 10.6966667,7.38666667 C10.6966667,8.78026519 9.56693185,9.91 8.17333333,9.91 C6.78049615,9.90816369 5.65183631,8.77950385 5.65,7.38666667 L5.65,7.38666667 Z"/>
      <path d="M8.15333333,16.1233333 C3.73505533,16.1233333 0.153333333,12.5416113 0.153333333,8.12333333 C0.153333333,3.70505533 3.73505533,0.123333333 8.15333333,0.123333333 C12.5716113,0.123333333 16.1533333,3.70505533 16.1533333,8.12333333 C16.1533333,12.5416113 12.5716113,16.1233333 8.15333333,16.1233333 Z M8.15333333,0.866666667 C4.1419051,0.866666667 0.89,4.11857177 0.89,8.13 C0.89,12.1414282 4.1419051,15.3933333 8.15333333,15.3933333 C12.1647616,15.3933333 15.4166667,12.1414282 15.4166667,8.13 C15.4129912,4.12009517 12.1632382,0.870342109 8.15333333,0.866666667 Z"/>
      <path d="M2.15 6.4633726C2.0984376 6.46409141 2.04730449 6.45386479 2 6.43333333 1.81438677 6.35385647 1.72795748 6.13927339 1.80666667 5.95333333 2.59332767 4.1063642 4.04801882 2.62429343 5.88 1.80333333 6.06009822 1.73880557 6.25953978 1.82358687 6.33804631 1.99804583 6.41655284 2.17250478 6.34773665 2.37800207 6.18 2.47 4.51839724 3.2172085 3.19958365 4.56339818 2.48666667 6.24 2.42927619 6.37513187 2.29681342 6.46300322 2.15 6.4633726L2.15 6.4633726zM17.6266667 19.8666809C17.0392563 19.867885 16.4755283 19.6351972 16.06 19.22L14.17 17.3333333C13.3056744 16.4680872 13.3064206 15.0659923 14.1716667 14.2016667 15.0369128 13.337341 16.4390077 13.3380872 17.3033333 14.2033333L19.1933333 16.0933333C20.0576098 16.9576793 20.0576098 18.3589873 19.1933333 19.2233333L19.1933333 19.2233333C18.7772591 19.6373086 18.2135984 19.8687693 17.6266667 19.8666809zM15.7366667 14.2799955C15.1365014 14.2785212 14.594863 14.6396387 14.3654311 15.194221 14.1359992 15.7488032 14.264204 16.3870363 14.69 16.81L16.58 18.7C16.9465809 19.1070395 17.5080069 19.2783134 18.0393692 19.1452089 18.5707315 19.0121045 18.9851196 18.5963925 19.1165284 18.0646083 19.2479372 17.5328242 19.0748734 16.9719474 18.6666667 16.6066667L16.7766667 14.7166667C16.5016475 14.4389197 16.1275318 14.2818391 15.7366667 14.2799955z"/>
    </g>
  </g>
</svg>
