<svg xmlns="http://www.w3.org/2000/svg" width="40" height="40" viewBox="0 0 40 40">
  <path fill="#4A4F53" d="M31.3984373,0.552083333 C30.5104167,0.552083333 29.6718753,0.901042 29.0416667,1.53125 L26.6875,3.88541667 C26.1666667,3.36718733 25.3203127,3.36718733 24.8020833,3.88541667 L21.03125,7.65625 C20.5104167,8.17708333 20.5104167,9.02343733 21.03125,9.54166667 L21.0625,9.57552067 L20.03125,10.6041667 L10.5729167,1.14583333 C9.815104,0.388020667 8.5,0.388020667 7.74218733,1.14583333 L1.14583333,7.74218733 C0.364583333,8.52343733 0.364583333,9.79166667 1.14583333,10.5729167 L10.596354,20.0234373 L3.01302067,27.5989587 C2.67708333,27.934896 2.471354,28.3802087 2.432292,28.8541667 L1.98177067,34.4505207 L1.51302067,37.7317707 C1.48177067,37.940104 1.55208333,38.1484373 1.70312533,38.2994793 C1.82812533,38.4244793 1.997396,38.4921873 2.17187533,38.4921873 C2.20572933,38.4921873 2.23697933,38.4921873 2.26822933,38.4869793 L5.55208333,38.0182293 L11.1770833,37.6041667 C11.65625,37.5677087 12.1041667,37.3645833 12.4427087,37.0234373 L20.026042,29.4557293 L29.4296873,38.8567707 C29.8203127,39.247396 30.3307293,39.440104 30.84375,39.440104 C31.3567707,39.440104 31.8671873,39.247396 32.2578127,38.8567707 L38.8567707,32.2578127 C39.6380207,31.4765627 39.6380207,30.2083333 38.8567707,29.4270833 L29.4609373,20.03125 L30.4921873,19 C30.7395833,19.2317707 31.0598958,19.3619793 31.3984373,19.3619793 C31.7552087,19.3619793 32.091146,19.221354 32.34375,18.96875 L36.1145833,15.1979167 C36.6354167,14.6796873 36.6354167,13.8333333 36.1145833,13.3125 L38.471354,10.9583333 C39.1015627,10.3281253 39.4479167,9.49218733 39.4479167,8.60156267 C39.4479167,7.70833333 39.1015627,6.872396 38.471354,6.24218733 L33.7578127,1.53125 C33.127604,0.901042 32.2916667,0.552083333 31.3984373,0.552083333 Z M9.15625,1.89583333 C9.33072933,1.89583333 9.502604,1.96093733 9.627604,2.088542 L10.1015627,2.557292 L8.6875,3.971354 C8.42447933,4.23177067 8.42447933,4.653646 8.6875,4.91406267 C8.815104,5.04427067 8.98697933,5.10937533 9.15625,5.10937533 C9.32812533,5.10937533 9.5,5.04427067 9.627604,4.91406267 L11.0416667,3.5 L12.4583333,4.91406267 L10.1015627,7.27083333 C9.838542,7.533854 9.838542,7.95312533 10.1015627,8.216146 C10.2291667,8.34375 10.401042,8.408854 10.5729167,8.408854 C10.7421873,8.408854 10.9140627,8.34375 11.0416667,8.216146 L13.3984373,5.85677067 L14.815104,7.27083333 L13.401042,8.6875 C13.1406253,8.94791667 13.1406253,9.36718733 13.401042,9.627604 C13.53125,9.75781267 13.7005207,9.82291667 13.872396,9.82291667 C14.0442707,9.82291667 14.213542,9.75781267 14.34375,9.627604 L15.7578127,8.216146 L17.1718753,9.627604 L14.815104,11.9869793 C14.5546873,12.247396 14.5546873,12.6666667 14.815104,12.9270833 C14.9453127,13.057292 15.1145833,13.125 15.2864587,13.125 C15.4583333,13.125 15.627604,13.057292 15.7578127,12.9270833 L18.1145833,10.5729167 L19.088542,11.5442707 L11.5416667,19.0833333 L2.088542,9.627604 C1.82812533,9.369792 1.82812533,8.94531267 2.088542,8.6875 L8.6875,2.088542 C8.8125,1.96093733 8.98437533,1.89583333 9.15625,1.89583333 Z M31.3984373,1.90622361 C31.9166667,1.90622361 32.4375,2.09375 32.815104,2.471354 L37.528646,7.184896 C37.90625,7.5625 38.1145833,8.065104 38.1145833,8.59895867 C38.1145833,9.13281267 37.90625,9.63541667 37.528646,10.0130207 L35.1718753,12.372396 L27.627604,4.82812533 L29.9869793,2.471354 C30.3645833,2.09375 30.8828127,1.903646 31.3984373,1.90622361 Z M25.7421873,4.82812533 L30.4583333,9.54166667 L34.7005207,13.783854 L35.1718753,14.2578127 L34.2291667,15.1979167 C33.96875,14.9375 33.5468753,14.9375 33.2864587,15.1979167 L32.34375,16.1432293 C32.0833333,16.403646 32.0833333,16.8229167 32.34375,17.0833333 L31.403646,18.028646 L31.401042,18.028646 L21.971354,8.59895867 L22.9140627,7.65625 C23.0442707,7.78645867 23.213542,7.85156267 23.3854167,7.85156267 C23.557292,7.85156267 23.7265627,7.78645867 23.8567707,7.65625 L24.8020833,6.713542 C25.0625,6.45312533 25.0625,6.03125 24.8020833,5.77083333 L25.7421873,4.82812533 Z M26.6875,7.932292 C26.5156253,7.932292 26.346354,7.997396 26.216146,8.127604 L25.2708333,9.07031267 C25.0104167,9.33072933 25.0104167,9.752604 25.2708333,10.0130207 C25.401042,10.1432293 25.5729167,10.2083333 25.7421873,10.2083333 C25.9140627,10.2083333 26.0859373,10.1432293 26.216146,10.0130207 L27.15625,9.07031267 C27.4192707,8.809896 27.4192707,8.38802067 27.15625,8.127604 C27.026042,7.997396 26.8567707,7.932292 26.6875,7.932292 Z M29.0416667,10.2916667 C28.872396,10.2916667 28.7031253,10.3541667 28.5729167,10.4869793 L27.627604,11.4270833 C27.369792,11.690104 27.369792,12.1119793 27.627604,12.372396 C27.7578127,12.5 27.9296873,12.565104 28.1015627,12.565104 C28.2708333,12.565104 28.440104,12.5 28.5729167,12.372396 L29.5130207,11.4270833 C29.7734373,11.1666667 29.7734373,10.744792 29.5130207,10.4869793 C29.3828127,10.3541667 29.213542,10.2916667 29.0416667,10.2916667 Z M22.0078127,10.5182293 L29.5494793,18.0625 L12.0182293,35.565104 L11.3828127,32.3880207 L22.4427087,21.3255207 C22.7031253,21.065104 22.7031253,20.6458333 22.4427087,20.3854167 C22.182292,20.122396 21.7630207,20.122396 21.5,20.3854167 L10.4375,31.4479167 L8.86718733,31.1328127 L8.55208333,29.559896 L17.7291667,20.3854167 C17.9895833,20.122396 17.9895833,19.7031253 17.7291667,19.440104 C17.46875,19.1796873 17.0468753,19.1796873 16.7864587,19.440104 L7.61197933,28.6171873 L4.502604,27.997396 L22.0078127,10.5182293 Z M31.401042,12.6458333 C31.2317707,12.6458333 31.059896,12.7109373 30.9296873,12.84375 L29.9869793,13.783854 C29.7265627,14.0468753 29.7265627,14.466146 29.9869793,14.7291667 C30.1171873,14.8567707 30.2864587,14.9244793 30.4583333,14.9244793 C30.6302087,14.9244793 30.7994793,14.8567707 30.9296873,14.7291667 L31.872396,13.783854 C32.1328127,13.5234373 32.1328127,13.1015627 31.872396,12.84375 C31.7421873,12.7109373 31.5703127,12.6458333 31.401042,12.6458333 Z M21.028646,15.4765627 C20.8567707,15.4765627 20.6875,15.5390627 20.559896,15.6692707 L18.6744793,17.557292 C18.4114587,17.8177087 18.4114587,18.2369793 18.6744793,18.5 C18.8020833,18.627604 18.9739587,18.6953127 19.1458333,18.6953127 C19.315104,18.6953127 19.4869793,18.627604 19.6145833,18.5 L21.5,16.6145833 C21.7630207,16.3515627 21.7630207,15.932292 21.5,15.6692707 C21.369792,15.5390627 21.2005207,15.4765627 21.028646,15.4765627 Z M28.5182293,20.9765627 L28.9583333,21.4140627 L27.5416667,22.8281253 C27.28125,23.088542 27.28125,23.5104167 27.5416667,23.7708333 C27.6718753,23.901042 27.84375,23.966146 28.0130207,23.966146 C28.184896,23.966146 28.3567707,23.901042 28.4869793,23.7708333 L29.8984373,22.3567707 L31.315104,23.7708333 L28.9583333,26.127604 C28.6953127,26.3906253 28.6953127,26.809896 28.9583333,27.0729167 C29.0859373,27.2005207 29.2578127,27.2682293 29.4270833,27.2682293 C29.5989587,27.2682293 29.7708333,27.2005207 29.8984373,27.0729167 L32.2578127,24.716146 L33.6718753,26.127604 L32.2578127,27.5416667 C31.994792,27.8046873 31.994792,28.2239587 32.2578127,28.4869793 C32.3854167,28.6145833 32.557292,28.6796873 32.7291667,28.6796873 C32.8984373,28.6796873 33.0703127,28.6145833 33.1979167,28.4869793 L34.6145833,27.0729167 L36.028646,28.4869793 L33.6692707,30.84375 C33.408854,31.1041667 33.408854,31.5234373 33.6692707,31.783854 C33.7994793,31.9140627 33.971354,31.9791667 34.1432293,31.9791667 C34.3125,31.9791667 34.4843753,31.9140627 34.6145833,31.783854 L36.96875,29.4270833 L37.9140627,30.372396 C38.1718753,30.6302087 38.1718753,31.0520833 37.9140627,31.3125 L31.3125,37.9140627 C31.0625,38.1640627 30.622396,38.1640627 30.372396,37.9140627 L20.96875,28.5104167 L28.5182293,20.9765627 Z M3.73958333,29.2031253 L7.26302067,29.90625 L7.64583333,31.8307293 C7.70052067,32.09375 7.90625,32.2994793 8.16927067,32.3515627 L10.091146,32.7369793 L10.8020833,36.2942707 L5.72916667,36.6666667 L3.33333333,34.2734373 L3.73958333,29.2031253 Z"/>
</svg>
