<svg xmlns="http://www.w3.org/2000/svg" width="40" height="40" viewBox="0 0 40 40">
  <path fill="#4A4F53" d="M2.14285714,0 C0.959285714,0 0,0.959285714 0,2.14285714 L0,32.1428571 C0,33.3264286 0.959285714,34.2857143 2.14285714,34.2857143 L37.8571429,34.2857143 C39.0407143,34.2857143 40,33.3264286 40,32.1428571 L40,2.14285714 C40,0.959285714 39.0407143,0 37.8571429,0 L2.14285714,0 Z M2.14285714,1.42857143 L37.8571429,1.42857143 C38.2514286,1.42857143 38.5714286,1.74857143 38.5714286,2.14285714 L38.5714286,32.1428571 C38.5714286,32.5371429 38.2514286,32.8571429 37.8571429,32.8571429 L2.14285714,32.8571429 C1.74857143,32.8571429 1.42857143,32.5371429 1.42857143,32.1428571 L1.42857143,8.57142857 L30.7142857,8.57142857 C31.1085714,8.57142857 31.4285714,8.25142857 31.4285714,7.85714286 C31.4285714,7.46285714 31.1085714,7.14285714 30.7142857,7.14285714 L1.42857143,7.14285714 L1.42857143,2.14285714 C1.42857143,1.74857143 1.74857143,1.42857143 2.14285714,1.42857143 Z M4.28571429,2.85714286 C3.89142857,2.85714286 3.57142857,3.17714286 3.57142857,3.57142857 L3.57142857,5 C3.57142857,5.39428571 3.89142857,5.71428571 4.28571429,5.71428571 C4.68,5.71428571 5,5.39428571 5,5 L5,3.57142857 C5,3.17714286 4.68,2.85714286 4.28571429,2.85714286 Z M7.85714286,2.85714286 C7.46285714,2.85714286 7.14285714,3.17714286 7.14285714,3.57142857 L7.14285714,5 C7.14285714,5.39428571 7.46285714,5.71428571 7.85714286,5.71428571 C8.25142857,5.71428571 8.57142857,5.39428571 8.57142857,5 L8.57142857,3.57142857 C8.57142857,3.17714286 8.25142857,2.85714286 7.85714286,2.85714286 Z M11.4285714,2.85714286 C11.0342857,2.85714286 10.7142857,3.17714286 10.7142857,3.57142857 L10.7142857,5 C10.7142857,5.39428571 11.0342857,5.71428571 11.4285714,5.71428571 C11.8228571,5.71428571 12.1428571,5.39428571 12.1428571,5 L12.1428571,3.57142857 C12.1428571,3.17714286 11.8228571,2.85714286 11.4285714,2.85714286 Z M15,2.85714286 C14.6057143,2.85714286 14.2857143,3.17714286 14.2857143,3.57142857 L14.2857143,5 C14.2857143,5.39428571 14.6057143,5.71428571 15,5.71428571 C15.3942857,5.71428571 15.7142857,5.39428571 15.7142857,5 L15.7142857,3.57142857 C15.7142857,3.17714286 15.3942857,2.85714286 15,2.85714286 Z M18.5714286,2.85714286 C18.1771429,2.85714286 17.8571429,3.17714286 17.8571429,3.57142857 L17.8571429,5 C17.8571429,5.39428571 18.1771429,5.71428571 18.5714286,5.71428571 C18.9657143,5.71428571 19.2857143,5.39428571 19.2857143,5 L19.2857143,3.57142857 C19.2857143,3.17714286 18.9657143,2.85714286 18.5714286,2.85714286 Z M22.1428571,2.85714286 C21.7485714,2.85714286 21.4285714,3.17714286 21.4285714,3.57142857 L21.4285714,5 C21.4285714,5.39428571 21.7485714,5.71428571 22.1428571,5.71428571 C22.5371429,5.71428571 22.8571429,5.39428571 22.8571429,5 L22.8571429,3.57142857 C22.8571429,3.17714286 22.5371429,2.85714286 22.1428571,2.85714286 Z M25.7142857,2.85714286 C25.32,2.85714286 25,3.17714286 25,3.57142857 L25,5 C25,5.39428571 25.32,5.71428571 25.7142857,5.71428571 C26.1085714,5.71428571 26.4285714,5.39428571 26.4285714,5 L26.4285714,3.57142857 C26.4285714,3.17714286 26.1085714,2.85714286 25.7142857,2.85714286 Z M29.2857143,2.85714286 C28.8914286,2.85714286 28.5714286,3.17714286 28.5714286,3.57142857 L28.5714286,5 C28.5714286,5.39428571 28.8914286,5.71428571 29.2857143,5.71428571 C29.68,5.71428571 30,5.39428571 30,5 L30,3.57142857 C30,3.17714286 29.68,2.85714286 29.2857143,2.85714286 Z M32.8571429,2.85714286 C32.4628571,2.85714286 32.1428571,3.17714286 32.1428571,3.57142857 L32.1428571,5 C32.1428571,5.39428571 32.4628571,5.71428571 32.8571429,5.71428571 C33.2514286,5.71428571 33.5714286,5.39428571 33.5714286,5 L33.5714286,3.57142857 C33.5714286,3.17714286 33.2514286,2.85714286 32.8571429,2.85714286 Z M36.4285714,2.85714286 C36.0342857,2.85714286 35.7142857,3.17714286 35.7142857,3.57142857 L35.7142857,5 C35.7142857,5.39428571 36.0342857,5.71428571 36.4285714,5.71428571 C36.8228571,5.71428571 37.1428571,5.39428571 37.1428571,5 L37.1428571,3.57142857 C37.1428571,3.17714286 36.8228571,2.85714286 36.4285714,2.85714286 Z M33.5714286,7.14285714 C33.1771429,7.14285714 32.8571429,7.46285714 32.8571429,7.85714286 C32.8571429,8.25142857 33.1771429,8.57142857 33.5714286,8.57142857 L36.4285714,8.57142857 C36.8228571,8.57142857 37.1428571,8.25142857 37.1428571,7.85714286 C37.1428571,7.46285714 36.8228571,7.14285714 36.4285714,7.14285714 L33.5714286,7.14285714 Z M6.42857143,11.4285714 C6.03428571,11.4285714 5.71428571,11.7485714 5.71428571,12.1428571 L5.71428571,15 C5.71428571,15.3942857 6.03428571,15.7142857 6.42857143,15.7142857 L33.5714286,15.7142857 C33.9657143,15.7142857 34.2857143,15.3942857 34.2857143,15 L34.2857143,12.1428571 C34.2857143,11.7485714 33.9657143,11.4285714 33.5714286,11.4285714 L6.42857143,11.4285714 Z M7.14285714,12.8571429 L32.8571429,12.8571429 L32.8571429,14.2857143 L7.14285714,14.2857143 L7.14285714,12.8571429 Z M7.14285714,18.5714286 C6.355,18.5714286 5.71428571,19.2121429 5.71428571,20 L5.71428571,21.4285714 C5.71428571,22.2164286 6.355,22.8571429 7.14285714,22.8571429 L17.1428571,22.8571429 C17.9307143,22.8571429 18.5714286,22.2164286 18.5714286,21.4285714 L18.5714286,20 C18.5714286,19.2121429 17.9307143,18.5714286 17.1428571,18.5714286 L7.14285714,18.5714286 Z M22.1428571,18.5714286 C21.7485714,18.5714286 21.4285714,18.8914286 21.4285714,19.2857143 L21.4285714,27.8571429 C21.4285714,28.2514286 21.7485714,28.5714286 22.1428571,28.5714286 L33.5714286,28.5714286 C33.9657143,28.5714286 34.2857143,28.2514286 34.2857143,27.8571429 L34.2857143,19.2857143 C34.2857143,18.8914286 33.9657143,18.5714286 33.5714286,18.5714286 L22.1428571,18.5714286 Z M7.14285714,20 L17.1428571,20 L17.1442521,21.4285714 L7.14285714,21.4285714 L7.14285714,20 Z M22.8571429,20 L32.8571429,20 L32.8571429,27.1428571 L22.8571429,27.1428571 L22.8571429,20 Z M7.14285714,24.2857143 C6.355,24.2857143 5.71428571,24.9264286 5.71428571,25.7142857 L5.71428571,27.1428571 C5.71428571,27.9307143 6.355,28.5714286 7.14285714,28.5714286 L17.1428571,28.5714286 C17.9307143,28.5714286 18.5714286,27.9307143 18.5714286,27.1428571 L18.5714286,25.7142857 C18.5714286,24.9264286 17.9307143,24.2857143 17.1428571,24.2857143 L7.14285714,24.2857143 Z M7.14285714,25.7142857 L17.1428571,25.7142857 L17.1442521,27.1428571 L7.14285714,27.1428571 L7.14285714,25.7142857 Z" transform="translate(0 3)"/>
</svg>
