<svg xmlns="http://www.w3.org/2000/svg" width="40" height="40" viewBox="0 0 40 40">
  <path fill="#4A4F53" d="M14.375,0 C11.963125,0 10,1.963125 10,4.375 L10,8.75 L9.73266625,8.75 C9.15829125,8.75 8.66047875,9.13914062 8.52172875,9.69726562 L7.95166,11.9763181 C7.73041,12.0569431 7.50700187,12.1502638 7.28637688,12.2546387 L5.26977563,11.0437012 C4.77727563,10.7480763 4.14830063,10.8241894 3.74267575,11.2316894 L2.48168944,12.4926756 C2.07606444,12.8995506 1.99870119,13.52668 2.29370119,14.018555 L3.50463869,16.0363769 C3.40026369,16.2563769 3.30756837,16.4779394 3.22631837,16.7004394 L0.947265625,17.2705075 C0.389140625,17.4098831 0,17.9095119 0,18.4838869 L0,20.2661131 C0,20.8404881 0.389140625,21.3395213 0.947265625,21.4782712 L3.22509762,22.04834 C3.30634769,22.27084 3.39904294,22.4942481 3.503418,22.7136231 L2.29370119,24.7302244 C1.99807619,25.2220994 2.07481444,25.8498244 2.48168944,26.2573244 L3.74267575,27.5183106 C4.14830063,27.9251856 4.77727563,28.0012988 5.26977563,27.7062988 L7.28637688,26.4953613 C7.50762687,26.5997362 7.73041,26.6930569 7.95166,26.7736819 L8.52172875,29.0527344 C8.66047875,29.6108594 9.15829125,30 9.73266625,30 L10,30 L10,35.625 C10,38.036875 11.963125,40 14.375,40 L28.125,40 C30.536875,40 32.5,38.036875 32.5,35.625 L32.5,4.375 C32.5,1.963125 30.536875,0 28.125,0 L14.375,0 Z M14.375,1.25 L28.125,1.25 C29.848125,1.25 31.25,2.651875 31.25,4.375 L31.25,5 L11.25,5 L11.25,4.375 C11.25,2.651875 12.651875,1.25 14.375,1.25 Z M18.125,2.5 C17.779375,2.5 17.5,2.779375 17.5,3.125 C17.5,3.470625 17.779375,3.75 18.125,3.75 L19.375,3.75 C19.720625,3.75 20,3.470625 20,3.125 C20,2.779375 19.720625,2.5 19.375,2.5 L18.125,2.5 Z M21.875,2.5 C21.529375,2.5 21.25,2.779375 21.25,3.125 C21.25,3.470625 21.529375,3.75 21.875,3.75 L24.375,3.75 C24.720625,3.75 25,3.470625 25,3.125 C25,2.779375 24.720625,2.5 24.375,2.5 L21.875,2.5 Z M11.25,6.25 L31.25,6.25 L31.25,32.5 L11.25,32.5 L11.25,30 L11.5161131,30 C12.0911131,30 12.5895213,29.6108594 12.7282713,29.0527344 L13.29834,26.7736819 C13.51959,26.6924319 13.7417775,26.5997362 13.9624025,26.4953613 L15.9802244,27.7050781 C16.4714744,28.0019531 17.0998244,27.9264356 17.5073244,27.5183106 L18.7683106,26.2573244 C19.1733106,25.8516994 19.2506737,25.2233494 18.9562988,24.7302244 L17.7453613,22.7136231 C17.8491112,22.4929981 17.9418069,22.270215 18.0236819,22.04834 L20.3027344,21.4782712 C20.8608594,21.3395213 21.25,20.8411131 21.25,20.2661131 L21.25,18.4838869 C21.25,17.9088869 20.8608594,17.4104788 20.3027344,17.2717288 L18.0236819,16.70166 C17.9418069,16.479785 17.8491112,16.2563769 17.7453613,16.0363769 L18.9562988,14.018555 C19.2506737,13.5260544 19.1745606,12.8989256 18.7683106,12.4926756 L17.5073244,11.2316894 C17.1004494,10.8248144 16.4708494,10.7480763 15.9802244,11.0437012 L13.9624025,12.2546387 C13.7411525,12.1502638 13.51959,12.0575681 13.29834,11.9763181 L12.7282713,9.69726562 C12.5895213,9.13914062 12.0911131,8.75 11.5161131,8.75 L11.25,8.75 L11.25,6.25 Z M9.73266625,10 L11.5173338,10 L12.1691894,12.6098631 C12.2216894,12.8223631 12.3815819,12.99042 12.5903319,13.05542 C12.9565819,13.16917 13.3311719,13.3261331 13.7011719,13.5205075 C13.8942969,13.6217575 14.1258694,13.6134475 14.3127444,13.5021975 L16.623535,12.1154787 L17.8845212,13.376465 L16.4978025,15.6872556 C16.3853025,15.8747556 16.3788381,16.1069237 16.4807131,16.3000487 C16.6732131,16.6662987 16.82958,17.0396681 16.94458,17.4096681 C17.00958,17.6184181 17.1782619,17.7783106 17.3901369,17.8308106 L20,18.4838869 L20,20.2661131 L17.3901369,20.9191894 C17.1782619,20.9716894 17.00958,21.1315819 16.94458,21.3403319 C16.828955,21.7109569 16.6725881,22.0837013 16.4807131,22.4499512 C16.3788381,22.6437012 16.3859275,22.8758694 16.4978025,23.0627444 L17.8845212,25.373535 L16.623535,26.6345212 L14.3127444,25.2478025 C14.1252444,25.1353025 13.8930469,25.1282419 13.7011719,25.2294925 C13.3305469,25.4244919 12.9565819,25.581455 12.5903319,25.69458 C12.3815819,25.75958 12.2216894,25.9276369 12.1691894,26.1401369 L11.5161131,28.75 L9.73266625,28.75 L9.08081062,26.1401369 C9.02831062,25.9276369 8.86841812,25.75958 8.65966812,25.69458 C8.29216812,25.58083 7.91879875,25.4244631 7.55004875,25.2307131 C7.45879875,25.1825881 7.35830063,25.1586913 7.25830062,25.1586913 C7.14642562,25.1586913 7.03663062,25.1884275 6.93725562,25.2478025 L4.62524437,26.6345212 L3.3654785,25.3747556 L4.7521975,23.0627444 C4.8646975,22.8752444 4.87116187,22.6430763 4.76928687,22.4499512 C4.57616187,22.0843263 4.419795,21.7115525 4.30542,21.3415525 C4.24042,21.1328025 4.07236312,20.97291 3.85986312,20.92041 L1.25,20.2661131 L1.24877931,18.4826663 L3.85986312,17.8308106 C4.07236312,17.7783106 4.24042,17.6184181 4.30542,17.4096681 C4.42042,17.0390431 4.57678687,16.6656737 4.76928687,16.3000487 C4.87116187,16.1062988 4.8640725,15.8741306 4.7521975,15.6872556 L3.3654785,13.376465 L4.626465,12.1154787 L6.93725562,13.5021975 C7.12538062,13.6146975 7.35692375,13.6217869 7.55004875,13.5192869 C7.91942375,13.3249119 8.29279312,13.168545 8.65966812,13.05542 C8.86841812,12.99042 9.02831062,12.8223631 9.08081062,12.6098631 L9.73266625,10 Z M10.625,16.25 C8.901875,16.25 7.5,17.651875 7.5,19.375 C7.5,21.098125 8.901875,22.5 10.625,22.5 C12.348125,22.5 13.75,21.098125 13.75,19.375 C13.75,17.651875 12.348125,16.25 10.625,16.25 Z M10.625,17.5 C11.65875,17.5 12.5,18.34125 12.5,19.375 C12.5,20.40875 11.65875,21.25 10.625,21.25 C9.59125,21.25 8.75,20.40875 8.75,19.375 C8.75,18.34125 9.59125,17.5 10.625,17.5 Z M23.125,18.7854006 C22.779375,18.7854006 22.5,19.0647756 22.5,19.4104006 L22.5,20.6604006 C22.5,21.0054006 22.779375,21.2854006 23.125,21.2854006 C23.470625,21.2854006 23.75,21.0060256 23.75,20.6604006 L23.75,19.4104006 C23.75,19.0647756 23.470625,18.7854006 23.125,18.7854006 Z M26.25,18.7854006 C25.904375,18.7854006 25.625,19.0647756 25.625,19.4104006 L25.625,20.6604006 C25.625,21.0054006 25.904375,21.2854006 26.25,21.2854006 C26.595625,21.2854006 26.875,21.0060256 26.875,20.6604006 L26.875,19.4104006 C26.875,19.0647756 26.595625,18.7854006 26.25,18.7854006 Z M29.375,18.7854006 C29.029375,18.7854006 28.75,19.0647756 28.75,19.4104006 L28.75,20.6604006 C28.75,21.0054006 29.029375,21.2854006 29.375,21.2854006 C29.720625,21.2854006 30,21.0060256 30,20.6604006 L30,19.4104006 C30,19.0647756 29.720625,18.7854006 29.375,18.7854006 Z M11.25,33.75 L31.25,33.75 L31.25,35.625 C31.25,37.348125 29.848125,38.75 28.125,38.75 L14.375,38.75 C12.651875,38.75 11.25,37.348125 11.25,35.625 L11.25,33.75 Z M21.25,35 C20.5596441,35 20,35.5596441 20,36.25 C20,36.9403559 20.5596441,37.5 21.25,37.5 C21.9403559,37.5 22.5,36.9403559 22.5,36.25 C22.5,35.5596441 21.9403559,35 21.25,35 Z" transform="translate(4)"/>
</svg>
