<svg xmlns="http://www.w3.org/2000/svg" width="40" height="40" viewBox="0 0 40 40">
  <path fill="#4A4F53" d="M4.375,0 C1.96289062,0 0,1.96289062 0,4.375 L0,35.625 C0,38.0371094 1.96289062,40 4.375,40 L18.125,40 C20.5371094,40 22.5,38.0371094 22.5,35.625 L22.5,4.375 C22.5,1.96289062 20.5371094,0 18.125,0 L4.375,0 Z M4.375,1.25 L18.125,1.25 C19.8486331,1.25 21.25,2.6513675 21.25,4.375 L21.25,5 L1.25,5 L1.25,4.375 C1.25,2.6513675 2.6513675,1.25 4.375,1.25 Z M8.125,2.5 C7.77832062,2.5 7.5,2.77832062 7.5,3.125 C7.5,3.47168 7.77832062,3.75 8.125,3.75 L9.375,3.75 C9.72168,3.75 10,3.47168 10,3.125 C10,2.77832062 9.72168,2.5 9.375,2.5 L8.125,2.5 Z M11.875,2.5 C11.5283206,2.5 11.25,2.77832062 11.25,3.125 C11.25,3.47168 11.5283206,3.75 11.875,3.75 L14.375,3.75 C14.72168,3.75 15,3.47168 15,3.125 C15,2.77832062 14.72168,2.5 14.375,2.5 L11.875,2.5 Z M1.25,6.25 L21.25,6.25 L21.25,32.5 L1.25,32.5 L1.25,6.25 Z M4.375,8.75 C4.02832062,8.75 3.75,9.02832063 3.75,9.375 C3.75,9.72168 4.02832062,10 4.375,10 L13.125,10 C13.47168,10 13.75,9.72168 13.75,9.375 C13.75,9.02832063 13.47168,8.75 13.125,8.75 L4.375,8.75 Z M15.625,8.75 C15.2783206,8.75 15,9.02832063 15,9.375 C15,9.72168 15.2783206,10 15.625,10 L18.125,10 C18.47168,10 18.75,9.72168 18.75,9.375 C18.75,9.02832063 18.47168,8.75 18.125,8.75 L15.625,8.75 Z M4.375,12.5 C4.02832062,12.5 3.75,12.7783206 3.75,13.125 C3.75,13.47168 4.02832062,13.75 4.375,13.75 L16.875,13.75 C17.22168,13.75 17.5,13.47168 17.5,13.125 C17.5,12.7783206 17.22168,12.5 16.875,12.5 L4.375,12.5 Z M4.375,16.25 C4.02832062,16.25 3.75,16.5283206 3.75,16.875 C3.75,17.22168 4.02832062,17.5 4.375,17.5 L18.125,17.5 C18.47168,17.5 18.75,17.22168 18.75,16.875 C18.75,16.5283206 18.47168,16.25 18.125,16.25 L4.375,16.25 Z M4.375,20 C4.02832062,20 3.75,20.2783206 3.75,20.625 C3.75,20.97168 4.02832062,21.25 4.375,21.25 L16.875,21.25 C17.22168,21.25 17.5,20.97168 17.5,20.625 C17.5,20.2783206 17.22168,20 16.875,20 L4.375,20 Z M4.375,23.75 C4.02832062,23.75 3.75,24.0283206 3.75,24.375 C3.75,24.72168 4.02832062,25 4.375,25 L18.125,25 C18.47168,25 18.75,24.72168 18.75,24.375 C18.75,24.0283206 18.47168,23.75 18.125,23.75 L4.375,23.75 Z M4.375,27.5 C4.02832062,27.5 3.75,27.7783206 3.75,28.125 C3.75,28.47168 4.02832062,28.75 4.375,28.75 L13.125,28.75 C13.47168,28.75 13.75,28.47168 13.75,28.125 C13.75,27.7783206 13.47168,27.5 13.125,27.5 L4.375,27.5 Z M1.25,33.75 L21.25,33.75 L21.25,35.625 C21.25,37.3486331 19.8486331,38.75 18.125,38.75 L4.375,38.75 C2.6513675,38.75 1.25,37.3486331 1.25,35.625 L1.25,33.75 Z M11.25,35 C10.5590819,35 10,35.5590819 10,36.25 C10,36.9409181 10.5590819,37.5 11.25,37.5 C11.9409181,37.5 12.5,36.9409181 12.5,36.25 C12.5,35.5590819 11.9409181,35 11.25,35 Z" transform="translate(9)"/>
</svg>
