<svg xmlns="http://www.w3.org/2000/svg" width="40" height="40" viewBox="0 0 40 40">
  <path fill="#4A4F53" d="M27.1875,0 C26.9116212,0 26.6674806,0.180664375 26.5893556,0.4467775 L25.2148437,5.04882812 C25.15625,5.24902375 25.0073244,5.40039062 24.8095706,5.4638675 C24.6142581,5.529785 24.4042969,5.49316438 24.2382812,5.36621125 L20.4199219,2.45117188 C20.2026369,2.282715 19.8974612,2.27783187 19.6752931,2.44140625 C19.4506837,2.60498063 19.3603519,2.89306625 19.453125,3.15429688 L21.0473631,7.68554688 C21.1181644,7.88085938 21.0864256,8.09082063 20.9643556,8.26171875 C20.842285,8.43017563 20.6518556,8.54492188 20.4418944,8.51806625 L15.64209,8.40087875 L15.625,8.40087875 C15.3564456,8.40087875 15.1147462,8.57421875 15.0317381,8.83300812 C14.9462894,9.09668 15.0439456,9.38232437 15.2709962,9.54101562 L19.2260744,12.2680663 C19.3969725,12.3852538 19.4946287,12.5732425 19.4946287,12.7832031 C19.4946287,12.9907225 19.3969725,13.1787112 19.2260744,13.2958987 L15.2709962,16.0253906 C15.0439456,16.1816406 14.9462894,16.467285 15.0317381,16.7309569 C15.1171875,16.9946288 15.3564456,17.1606444 15.64209,17.1630862 L19.3945312,17.0703125 L0.859375,35.6054688 C0.3857425,36.0791019 0.126953125,36.7065431 0.126953125,37.3730469 C0.126953125,38.0419925 0.3857425,38.6694337 0.859375,39.140625 C1.33056625,39.6142581 1.95800812,39.8730469 2.62695312,39.8730469 C3.29345687,39.8730469 3.92089875,39.6142581 4.39453125,39.140625 L24.7094725,18.8232425 L26.5893556,25.1196288 C26.6674806,25.3857425 26.9116212,25.5664062 27.1875,25.5664062 C27.4633787,25.5664062 27.7075194,25.3857425 27.7856444,25.1196288 L29.1601562,20.5175781 C29.21875,20.3149413 29.3676756,20.1635744 29.56543,20.0976562 C29.7607425,20.03418 29.9707031,20.0708006 30.1367187,20.1977538 L33.9550781,23.1152344 C34.1723631,23.2836913 34.4775394,23.2861331 34.6997069,23.125 C34.9243162,22.9614256 35.0146487,22.6708988 34.921875,22.4121094 L33.3276369,17.8808594 C33.2568362,17.6831056 33.2885744,17.4731444 33.4106444,17.3046875 C33.5302737,17.1386719 33.7133787,17.0458987 33.9160156,17.0458987 C33.9208987,17.0458987 33.9257812,17.0458987 33.9331056,17.04834 L38.73291,17.1655275 C39.0087894,17.1582031 39.2578125,16.9946288 39.3457031,16.7309569 C39.4311525,16.4697269 39.331055,16.1816406 39.1040037,16.0253906 L35.1489256,13.29834 C34.9780275,13.1787112 34.8803712,12.9931644 34.8803712,12.7832031 C34.8803712,12.5732425 34.9780275,12.3876956 35.1489256,12.2680663 L39.1040037,9.54101562 C39.331055,9.38476562 39.4311525,9.09668 39.3457031,8.83544937 C39.2602537,8.5717775 39.0112306,8.38867188 38.73291,8.40087875 L33.9331056,8.51806625 C33.6938475,8.53027375 33.532715,8.43017563 33.4106444,8.26171875 C33.2885744,8.09326187 33.2568362,7.88330063 33.3276369,7.68554688 L34.921875,3.15429688 C35.0146487,2.89550812 34.9243162,2.60498063 34.6997069,2.44140625 C34.4775394,2.28027375 34.1723631,2.282715 33.9550781,2.45117188 L30.1367187,5.3686525 C29.9707031,5.49560562 29.7607425,5.529785 29.56543,5.4638675 C29.3676756,5.40039062 29.21875,5.24902375 29.1601562,5.04882812 L27.7856444,0.4467775 C27.7075194,0.180664375 27.4633787,0 27.1875,0 Z M15.8862306,0.0048828125 C15.7250975,-0.0122070625 15.5590819,0.029296875 15.4272462,0.13916 C15.15625,0.356445625 15.1147462,0.749511875 15.3320312,1.01806625 L16.1206056,1.98974625 C16.2426756,2.14111312 16.42334,2.22168 16.6064456,2.22168 C16.7456056,2.22168 16.8823244,2.17529312 16.9995119,2.08251937 C17.2680663,1.86523437 17.3095706,1.47216812 17.0898438,1.20361312 L16.3061525,0.23193375 C16.1962894,0.09765625 16.0449219,0.01953125 15.8862306,0.0048828125 Z M13.4765625,2.37304688 C13.3178712,2.3999025 13.1689456,2.48291 13.0664062,2.62207063 C12.8637694,2.90283188 12.924805,3.29345688 13.2055663,3.49609375 L14.2163087,4.23339875 C14.3261719,4.313965 14.4555663,4.35058625 14.5825194,4.35058625 C14.7753906,4.35058625 14.9658206,4.26269563 15.0878906,4.09423813 C15.2929687,3.81591813 15.2319337,3.42529313 14.9511719,3.22265625 L13.94043,2.48535188 C13.8012694,2.38525375 13.6328125,2.34863313 13.4765625,2.37304688 Z M27.1875,2.8125 L27.9614256,5.40527375 C28.1372069,5.99609375 28.59375,6.4624025 29.1796875,6.65283188 C29.7631837,6.84570312 30.4052737,6.73584 30.8959962,6.35986313 L33.046875,4.71679688 L32.1484375,7.27050813 C31.9433594,7.8515625 32.0385744,8.49609375 32.3999025,8.99414062 C32.7612306,9.49462875 33.3496094,9.77050812 33.9624025,9.765625 L36.6699219,9.69970688 L34.4409181,11.2402344 C33.9331056,11.5893556 33.6303712,12.1655275 33.6303712,12.7832031 C33.6303712,13.3984375 33.9331056,13.9746094 34.4409181,14.3261719 L36.6699219,15.8642581 L33.9624025,15.79834 C33.3496094,15.7934569 32.7612306,16.0717775 32.3999025,16.5698244 C32.0385744,17.0678712 31.9433594,17.7124025 32.1484375,18.2934569 L33.046875,20.8496094 L30.8959962,19.2065431 C30.407715,18.8305663 29.7631837,18.7207031 29.1796875,18.9111331 C28.59375,19.1015625 28.1372069,19.5678712 27.9614256,20.1586913 L27.1875,22.7539062 L25.7153319,17.8198244 L29.140625,14.3945312 C29.6142581,13.9208987 29.8730469,13.2934569 29.8730469,12.6269531 C29.8730469,11.9580081 29.6142581,11.3305663 29.140625,10.859375 C28.6694337,10.3857425 28.0419925,10.1269531 27.3730469,10.1269531 C26.7065431,10.1269531 26.0791019,10.3857425 25.6054688,10.859375 L20.6738281,15.7910156 L17.7050781,15.8642581 L19.9316406,14.3261719 C20.4394531,13.9746094 20.7421875,13.3984375 20.7421875,12.7832031 C20.7421875,12.1655275 20.4418944,11.5893556 19.9316406,11.2402344 L17.7050781,9.69970688 L20.4101562,9.765625 C21.032715,9.77050812 21.6137694,9.4921875 21.9750975,8.99414062 C22.3364256,8.49609375 22.4316406,7.8515625 22.2265625,7.27050813 L21.328125,4.71679688 L23.4765625,6.35986313 C23.967285,6.73584 24.609375,6.84570312 25.1953125,6.65283188 C25.78125,6.4624025 26.2377931,5.99609375 26.4135744,5.40527375 L27.1875,2.8125 Z M11.9921875,5.23193375 C11.7504881,5.23925813 11.5234375,5.39306625 11.4282225,5.63476562 C11.3061525,5.95459 11.467285,6.31835938 11.7895506,6.44287125 L12.9565431,6.88964875 C13.029785,6.91894563 13.1054687,6.9311525 13.1811525,6.9311525 C13.4301756,6.9311525 13.6669925,6.77734375 13.7622069,6.53076187 C13.8867187,6.20849625 13.7255862,5.84716812 13.4057619,5.72265625 L12.2363281,5.2734375 C12.1582031,5.24169937 12.0751956,5.2294925 11.9921875,5.23193375 Z M11.3159181,8.40820312 C10.9765625,8.36669937 10.6640625,8.62060562 10.6274413,8.96484375 C10.5932619,9.30908188 10.842285,9.61425813 11.1840819,9.65087875 L12.4291994,9.782715 C12.4487306,9.78515625 12.4731444,9.78515625 12.4926756,9.78515625 C12.8100587,9.78515625 13.081055,9.54834 13.1152344,9.22607437 C13.1518556,8.88183625 12.9028319,8.57421875 12.5585938,8.5375975 L11.3159181,8.40820312 Z M27.3730469,11.3769531 C27.7075194,11.3769531 28.0224612,11.5063475 28.2592775,11.7407225 C28.4936525,11.9775394 28.6230469,12.2924806 28.6230469,12.6269531 C28.6230469,12.9589844 28.4936525,13.2739256 28.2592775,13.5083006 L21.9506837,19.8168944 L20.1831056,18.0493163 L26.4916994,11.7407225 C26.7260744,11.5063475 27.0410156,11.3769531 27.3730469,11.3769531 Z M12.4707031,11.4794925 L11.2353519,11.674805 C10.893555,11.7285156 10.6616212,12.04834 10.7153319,12.3901369 C10.76416,12.6977538 11.0302737,12.9174806 11.3330081,12.9174806 C11.3647462,12.9174806 11.3964844,12.9150394 11.4306644,12.9101563 L12.6660156,12.7148438 C13.0053712,12.6611331 13.2397462,12.3413088 13.186035,12.0019531 C13.1323244,11.657715 12.8125,11.42334 12.4707031,11.4794925 Z M19.2993163,18.9331056 L21.0668944,20.7006837 L3.5107425,38.2592775 C3.03710938,38.7304688 2.21435563,38.7304688 1.74316438,38.2592775 C1.5063475,38.0224612 1.37695312,37.7075194 1.37695312,37.3730469 C1.37695312,37.0410156 1.5063475,36.7260744 1.74316438,36.4916994 L19.2993163,18.9331056 Z M22.9907225,26.2719725 C22.7709962,26.2719725 22.5512694,26.3745119 22.4414062,26.5747069 L21.6552737,28.0151369 C21.5356444,28.2324219 21.3574219,28.4106444 21.1401369,28.5302738 L19.6997069,29.3164063 C19.4995119,29.4262694 19.375,29.6386719 19.375,29.8657225 C19.375,30.0927737 19.4995119,30.3051756 19.6997069,30.4125975 L21.1425781,31.2011719 C21.3574219,31.3208006 21.5356444,31.4990237 21.6552737,31.7163087 L22.4414062,33.1567381 C22.5512694,33.3569337 22.7636719,33.4838869 22.9907225,33.4838869 C23.2177737,33.4838869 23.4301756,33.359375 23.5375975,33.1567381 L24.3286131,31.7163087 C24.4458006,31.4990237 24.6240237,31.3208006 24.84375,31.2011719 L26.2817381,30.4125975 C26.4819337,30.3051756 26.6088869,30.0927737 26.6088869,29.8657225 C26.6088869,29.6386719 26.4819337,29.4262694 26.2817381,29.3164063 L24.84375,28.5302738 C24.6240237,28.4106444 24.4458006,28.2324219 24.3261719,28.0151369 L23.5375975,26.5747069 C23.4301756,26.3745119 23.2104494,26.2719725 22.9907225,26.2719725 Z M22.9907225,28.1762694 L23.2299806,28.6132812 C23.4619144,29.0405275 23.8134769,29.39209 24.2407225,29.626465 L24.6777344,29.8657225 L24.2431644,30.1049806 C23.8134769,30.3393556 23.4643556,30.6884769 23.2324219,31.1157225 L22.9907225,31.5527344 L22.751465,31.1157225 C22.51709,30.6884769 22.1655275,30.3393556 21.7382812,30.1074219 L21.3012694,29.8657225 L21.7382812,29.626465 C22.1679688,29.39209 22.51709,29.0429688 22.751465,28.6132812 L22.9907225,28.1762694 Z M34.2407225,28.7719725 C34.0209962,28.7719725 33.8012694,28.8745119 33.6914062,29.0747069 L32.4121094,31.4160156 C32.1801756,31.8383788 31.8383788,32.1801756 31.4160156,32.4121094 L29.0747069,33.6914062 C28.8745119,33.8012694 28.75,34.0136719 28.75,34.2407225 C28.75,34.4677737 28.8745119,34.6801756 29.0747069,34.7875975 L31.4160156,36.0717775 C31.8383788,36.3012694 32.1826175,36.6430663 32.4121094,37.0629881 L33.6914062,39.4067381 C33.8012694,39.6069337 34.0136719,39.7338869 34.2407225,39.7338869 C34.4677737,39.7338869 34.6801756,39.6069337 34.7875975,39.4067381 L36.0717775,37.06543 C36.3012694,36.6455081 36.6455081,36.3012694 37.06543,36.0717775 L39.4067381,34.7875975 C39.609375,34.6801756 39.7338869,34.4677737 39.7338869,34.2407225 C39.7338869,34.0136719 39.6069337,33.8012694 39.4067381,33.6914062 L37.06543,32.4121094 C36.6430663,32.1801756 36.3012694,31.8359375 36.0717775,31.4160156 L34.7875975,29.0747069 C34.6801756,28.8745119 34.4604494,28.7719725 34.2407225,28.7719725 Z M34.2407225,30.6762694 L34.9731444,32.0190431 C35.3173831,32.6489256 35.8325194,33.1616213 36.4648437,33.5058594 L37.8051756,34.2407225 L36.4648437,34.9731444 C35.8349612,35.3173831 35.3173831,35.8349613 34.9731444,36.4648438 L34.2407225,37.8051756 L33.5058594,36.4648438 C33.1616212,35.8349613 32.6464844,35.3173831 32.0166019,34.9731444 L30.6762694,34.2407225 L32.0190431,33.5058594 C32.6489256,33.1616213 33.1616212,32.6464844 33.5058594,32.0166019 L34.2407225,30.6762694 Z"/>
</svg>
