<?xml version="1.0" standalone="no"?>
<!DOCTYPE svg PUBLIC "-//W3C//DTD SVG 20010904//EN"
 "http://www.w3.org/TR/2001/REC-SVG-20010904/DTD/svg10.dtd">
<svg version="1.0" xmlns="http://www.w3.org/2000/svg"
 width="260.000000pt" height="260.000000pt" viewBox="0 0 260.000000 260.000000"
 preserveAspectRatio="xMidYMid meet">
<metadata>
Created by potrace 1.11, written by Peter Selinger 2001-2013
</metadata>
<g transform="translate(0.000000,260.000000) scale(0.100000,-0.100000)"
fill="#000000" stroke="none">
<path d="M1014 2556 c-7 -17 -41 -31 -114 -46 -30 -6 -77 -21 -105 -34 -27
-13 -66 -31 -85 -40 -43 -20 -118 -64 -154 -91 -187 -140 -288 -245 -366 -384
-8 -14 -25 -39 -36 -56 -12 -16 -27 -48 -34 -69 -7 -22 -21 -53 -31 -70 -10
-18 -25 -63 -33 -101 -10 -46 -22 -75 -35 -86 -20 -17 -21 -26 -21 -288 0
-216 3 -272 14 -278 20 -12 32 -41 46 -108 7 -33 23 -78 36 -101 13 -22 24
-47 24 -55 0 -8 15 -38 33 -67 17 -28 52 -84 77 -123 74 -117 259 -292 368
-348 21 -11 44 -27 51 -35 8 -9 19 -16 26 -16 7 0 38 -13 69 -29 31 -17 84
-37 118 -46 38 -9 68 -23 77 -35 13 -19 26 -20 332 -20 l318 0 24 24 c14 14
46 28 78 35 29 7 67 20 84 29 16 10 51 26 76 35 26 10 55 27 64 37 10 11 24
20 31 20 21 0 135 91 220 175 107 106 193 224 239 325 9 19 29 62 45 94 17 32
30 66 30 76 0 9 12 50 27 91 27 73 28 77 28 319 0 239 -1 247 -26 315 -14 39
-29 87 -33 107 -4 21 -20 63 -36 94 -17 31 -30 62 -30 69 0 7 -13 29 -30 50
-16 21 -30 43 -30 50 0 7 -7 19 -16 26 -9 7 -31 36 -49 64 -68 104 -236 254
-357 319 -26 14 -49 30 -52 35 -4 5 -29 17 -58 27 -28 9 -65 25 -82 35 -17 10
-65 25 -106 33 -49 10 -81 23 -92 36 -15 19 -28 20 -267 20 -207 0 -253 -2
-257 -14z m426 -151 c30 -8 84 -20 120 -26 36 -5 88 -21 115 -34 28 -13 70
-33 95 -45 56 -25 133 -69 140 -79 3 -4 25 -21 50 -38 79 -54 205 -190 250
-272 9 -15 25 -40 37 -55 12 -15 27 -44 34 -64 6 -20 22 -55 34 -77 13 -22 26
-58 29 -80 4 -22 17 -69 29 -105 19 -57 22 -86 22 -240 0 -164 -2 -180 -28
-258 -15 -46 -27 -91 -27 -101 0 -10 -13 -42 -29 -72 -15 -30 -31 -64 -35 -76
-7 -23 -48 -88 -112 -178 -57 -82 -186 -199 -294 -268 -67 -43 -205 -107 -254
-117 -27 -6 -76 -20 -110 -32 -53 -19 -82 -22 -236 -22 -156 0 -182 3 -235 22
-33 13 -90 29 -127 38 -37 8 -72 22 -78 29 -6 8 -28 19 -48 26 -84 27 -277
173 -355 268 -88 106 -123 159 -158 231 -50 104 -69 155 -82 220 -9 41 -23
109 -32 150 -18 80 -16 260 3 311 6 14 19 68 30 120 11 52 32 116 46 143 14
27 26 54 26 60 0 14 51 96 112 181 50 69 163 185 216 221 20 13 51 35 69 47
63 43 121 77 132 77 6 0 37 13 69 29 31 15 86 34 122 40 36 6 90 18 120 26 75
18 271 19 340 0z"/>
<path d="M1160 2199 c-84 -14 -166 -76 -240 -181 -43 -62 -59 -176 -41 -285
20 -112 101 -210 225 -269 75 -36 78 -36 169 -31 75 4 102 10 149 34 81 41
141 101 185 185 37 70 38 76 38 173 0 94 -2 103 -33 160 -64 116 -151 189
-249 210 -76 16 -122 17 -203 4z m172 -130 c45 -9 61 -20 110 -70 68 -70 83
-114 74 -208 -6 -72 -19 -95 -85 -159 -58 -57 -95 -72 -171 -72 -76 0 -111 15
-177 74 -41 37 -56 59 -68 99 -44 147 22 293 149 330 63 19 100 20 168 6z"/>
<path d="M1060 1315 c-130 -24 -182 -44 -310 -120 -44 -26 -167 -151 -187
-189 -9 -17 -24 -42 -34 -56 -11 -15 -26 -68 -36 -128 -16 -92 -16 -106 -3
-130 11 -19 25 -28 47 -30 42 -4 55 18 83 138 25 110 65 177 145 245 54 46
197 125 226 125 10 0 57 9 105 21 68 16 110 20 184 16 110 -5 312 -47 337 -69
10 -9 34 -23 54 -31 52 -21 128 -82 177 -141 41 -49 57 -91 110 -276 10 -34
62 -40 91 -11 27 27 26 65 -3 173 -43 161 -168 302 -336 378 -25 11 -62 30
-83 41 -46 25 -297 69 -382 68 -33 -1 -116 -11 -185 -24z"/>
<path d="M1324 953 c-36 -38 -52 -73 -60 -124 -3 -24 -17 -60 -30 -79 -13 -20
-28 -60 -34 -90 -6 -34 -20 -64 -35 -80 -31 -33 -34 -84 -5 -100 15 -8 24 -6
40 10 11 11 20 24 20 30 0 5 11 25 24 44 13 19 26 57 30 84 3 27 17 63 31 82
14 19 28 55 31 82 4 26 17 62 30 80 28 37 31 73 8 82 -23 9 -22 9 -50 -21z"/>
<path d="M1465 903 c-12 -12 -15 -25 -10 -52 9 -48 10 -49 56 -63 23 -6 48
-22 56 -35 14 -21 14 -25 0 -47 -9 -13 -28 -27 -44 -31 -55 -13 -87 -71 -63
-114 13 -25 52 -28 71 -4 8 9 37 27 64 40 28 13 70 38 95 56 41 31 45 37 45
77 0 42 -3 45 -55 81 -29 21 -68 44 -85 50 -16 7 -43 23 -58 36 -34 27 -50 29
-72 6z"/>
<path d="M1006 891 c-10 -11 -31 -23 -47 -26 -15 -4 -45 -20 -65 -36 -20 -16
-40 -29 -45 -29 -21 0 -39 -35 -39 -75 0 -42 2 -46 53 -79 29 -20 71 -43 93
-52 21 -9 49 -25 61 -36 41 -38 85 4 69 67 -5 19 -21 32 -61 50 -50 22 -55 27
-55 55 0 27 5 33 38 46 20 8 44 18 52 23 21 11 34 53 26 85 -5 20 -12 26 -35
26 -15 0 -36 -9 -45 -19z"/>
</g>
</svg>
