<svg xmlns="http://www.w3.org/2000/svg" width="64" height="64" viewBox="0 0 64 64">
  <g fill="none" fill-rule="evenodd" transform="translate(1 1)">
    <ellipse cx="30.67" cy="10.27" fill="#574CFA" fill-rule="nonzero" opacity=".05" rx="10.01" ry="10"/>
    <ellipse cx="30.67" cy="10.27" stroke="#574CFA" stroke-width="2" rx="10.01" ry="10"/>
    <ellipse cx="8.81" cy="52.42" stroke="#574CFA" stroke-width="2" rx="8.76" ry="8.75"/>
    <circle cx="8.81" cy="49.88" r="2.11" stroke="#574CFA" stroke-width="2"/>
    <path stroke="#574CFA" stroke-width="2" d="M34.43,7.65 L29.42,12.89 L26.91,10.27 M5.33,57.07 C5.6,55.37 7.07,54.11 8.8,54.11 C9.67,54.11 10.47,54.42 11.09,54.95 C11.71,55.48 12.15,56.22 12.28,57.07"/>
    <g stroke="#574CFA" stroke-width="2" transform="translate(27 47)">
      <circle cx="3.67" cy="2.88" r="2.11"/>
      <path d="M0.19,10.07 C0.46,8.37 1.93,7.11 3.66,7.11 C4.53,7.11 5.33,7.42 5.95,7.95 C6.57,8.48 7.01,9.22 7.14,10.07"/>
    </g>
    <ellipse cx="30.68" cy="52.42" stroke="#574CFA" stroke-width="2" rx="8.76" ry="8.75"/>
    <g stroke="#574CFA" stroke-width="2" transform="translate(49 47)">
      <circle cx="3.53" cy="2.88" r="2.11"/>
      <path d="M0.06,10.07 C0.33,8.37 1.8,7.11 3.53,7.11 C4.4,7.11 5.2,7.42 5.82,7.95 C6.44,8.48 6.88,9.22 7.01,10.07"/>
    </g>
    <ellipse cx="52.55" cy="52.42" stroke="#574CFA" stroke-width="2" rx="8.76" ry="8.75"/>
    <path stroke="#574CFA" stroke-width="2" d="M30.67,23.83 L30.67,39.23 M26.22,22.9 L26.22,31.97 L8.81,31.97 L8.81,39.23 M35.18,22.9 L35.18,31.97 L52.59,31.97 L52.59,39.23"/>
  </g>
</svg>
