<svg xmlns="http://www.w3.org/2000/svg" width="64" height="64" viewBox="0 0 64 64">
  <g fill="none" fill-rule="evenodd" transform="translate(1 2)">
    <ellipse cx="51.1" cy="50.98" fill="#FFF" fill-rule="nonzero" opacity=".05" rx="10.01" ry="10"/>
    <ellipse cx="51.1" cy="50.98" stroke="#574CFA" stroke-width="2" rx="10.01" ry="10"/>
    <polyline stroke="#574CFA" stroke-width="2" points="37.71 25.54 28.32 35.52 23.62 30.53"/>
    <ellipse cx="51.1" cy="10.08" fill="#FFF" fill-rule="nonzero" opacity=".05" rx="10.01" ry="10"/>
    <ellipse cx="51.1" cy="10.08" stroke="#574CFA" stroke-width="2" rx="10.01" ry="10"/>
    <ellipse cx="10.23" cy="10.08" fill="#FFF" fill-rule="nonzero" opacity=".05" rx="10.01" ry="10"/>
    <ellipse cx="10.23" cy="10.08" stroke="#574CFA" stroke-width="2" rx="10.01" ry="10"/>
    <ellipse cx="10.23" cy="50.98" fill="#FFF" fill-rule="nonzero" opacity=".05" rx="10.01" ry="10"/>
    <ellipse cx="10.23" cy="50.98" stroke="#574CFA" stroke-width="2" rx="10.01" ry="10"/>
    <path stroke="#574CFA" stroke-width="2" d="M10.23 20.08L10.23 40.53M20.65 50.98L41.09 50.98M51.1 20.08L51.1 40.53M20.65 10.08L41.09 10.08M51.1 4.61L51.1 10.08 56.57 10.08M10.23 54.48L10.23 50.1M13.23 54.48L13.23 47.48M7.23 54.48L7.23 52.29"/>
    <g stroke="#574CFA" stroke-width="2" transform="translate(5 5)">
      <circle cx="5.23" cy="2.3" r="2.11"/>
      <path d="M0.83,9.96 C1.17441192,7.79777209 3.04051558,6.20734284 5.23,6.20999668 C6.33,6.20999668 7.34,6.6 8.13,7.28 C8.92,7.96 9.47,8.89 9.63,9.97"/>
    </g>
    <g stroke="#574CFA" stroke-width="2" transform="translate(46 46)">
      <circle cx="5.1" cy="2.2" r="2.11"/>
      <path d="M0.7,9.86 C1.04441192,7.69777209 2.91051558,6.10734284 5.1,6.10999668 C6.2,6.10999668 7.21,6.5 8,7.18 C8.79,7.86 9.34,8.79 9.5,9.87"/>
    </g>
  </g>
</svg>
