<svg xmlns="http://www.w3.org/2000/svg" xmlns:xlink="http://www.w3.org/1999/xlink" width="156" height="156" viewBox="0 0 156 156">
  <defs>
    <linearGradient id="1-c" x1="50%" x2="50%" y1="100%" y2="0%">
      <stop offset="0%" stop-color="#E0E0E0"/>
      <stop offset="100%" stop-color="#E2EEF4"/>
    </linearGradient>
    <circle id="1-a" cx="78" cy="78" r="78"/>
    <filter id="1-b" width="125%" height="125%" x="-12.5%" y="-10.6%" filterUnits="objectBoundingBox">
      <feMorphology in="SourceAlpha" operator="dilate" radius="3" result="shadowSpreadOuter1"/>
      <feOffset dy="3" in="shadowSpreadOuter1" result="shadowOffsetOuter1"/>
      <feGaussianBlur in="shadowOffsetOuter1" result="shadowBlurOuter1" stdDeviation="5"/>
      <feComposite in="shadowBlurOuter1" in2="SourceAlpha" operator="out" result="shadowBlurOuter1"/>
      <feColorMatrix in="shadowBlurOuter1" values="0 0 0 0 0   0 0 0 0 0   0 0 0 0 0  0 0 0 0.1 0"/>
    </filter>
  </defs>
  <g fill="none" fill-rule="evenodd">
    <mask id="1-d" fill="#fff">
      <use xlink:href="#1-a"/>
    </mask>
    <use fill="#000" filter="url(#1-b)" xlink:href="#1-a"/>
    <circle cx="78" cy="78" r="79.5" fill="url(#1-c)" stroke="#FFF" stroke-width="3"/>
    <g mask="url(#1-d)">
      <g transform="translate(18 40)">
        <path fill="#62A6FD" fill-rule="nonzero" stroke="#574CFA" d="M65.158302,67.3507083 L53.9689788,67.3507083 L45.2656675,110.684918 L73.8616134,110.684918 L65.158302,67.3507083 Z"/>
        <path fill="#4394FB" fill-rule="nonzero" stroke="#574CFA" d="M63.6022741,67.3507083 L53.9680614,67.3507083 L45.2656803,110.684918 L54.9008235,110.684918 L63.6022741,67.3507083 Z"/>
        <path fill="#81B8FD" fill-rule="nonzero" stroke="#574CFA" d="M81.2847013,106.363002 L37.8425795,106.363002 C36.9059678,106.363002 36.057862,106.74261 35.4439612,107.356511 C34.8302303,107.970242 34.4505584,108.818135 34.4505584,109.755023 L34.4505584,113.44685 C34.4505584,114.383333 34.8302945,115.231355 35.4441845,115.845245 C36.0580745,116.459135 36.906096,116.838871 37.8425795,116.838871 L81.2847013,116.838871 C82.2211848,116.838871 83.0692063,116.459135 83.6830963,115.845245 C84.2969863,115.231355 84.6767224,114.383333 84.6767224,113.44685 L84.6767224,109.755023 C84.6767224,108.818135 84.2970505,107.970242 83.6833197,107.356511 C83.0694189,106.74261 82.221313,106.363002 81.2847013,106.363002 Z"/>
        <path fill="#62A6FD" fill-rule="nonzero" d="M46.4568403,116.338871 L37.8425795,116.338871 C36.2447879,116.338871 34.9505584,115.043732 34.9505584,113.44685 L34.9505584,109.755023 C34.9505584,108.157232 36.2447879,106.863002 37.8425795,106.863002 L46.4568403,106.863002 C44.8599575,106.863002 43.5648189,108.157232 43.5648189,109.755023 L43.5648189,113.44685 C43.5648189,115.043732 44.8599575,116.338871 46.4568403,116.338871 Z"/>
        <path fill="#C0DBFF" fill-rule="nonzero" stroke="#574CFA" d="M114.689273,-0.5 L4.43800751,-0.5 C3.07381083,-0.5 1.83934307,0.0524611015 0.945902083,0.945902083 C0.0524611015,1.83934307 -0.5,3.07381083 -0.5,4.43800751 L-0.5,81.2501642 C-0.5,82.6139783 0.0525349529,83.8485617 0.946125335,84.7421521 C1.83955316,85.6355799 3.07393397,86.1881717 4.43800751,86.1881717 L114.689273,86.1881717 C116.053347,86.1881717 117.287728,85.6355799 118.181156,84.7421521 C119.074746,83.8485617 119.627281,82.6139783 119.627281,81.2501642 L119.627281,4.43800751 C119.627281,3.07381083 119.07482,1.83934307 118.181379,0.945902083 C117.287938,0.0524611015 116.05347,-0.5 114.689273,-0.5 Z"/>
        <path fill="#A0CAFE" fill-rule="nonzero" d="M13.052268,85.6881717 L4.43800751,85.6881717 C1.98587876,85.6881717 0,83.7013841 0,81.2501642 L0,4.43800751 C0,1.98587876 1.98587876,2.84217094e-14 4.43800751,2.84217094e-14 L13.052268,2.84217094e-14 C10.6010483,2.84217094e-14 8.61426074,1.98587876 8.61426074,4.43800751 L8.61426074,81.2501642 C8.61426074,83.7013841 10.6010483,85.6881717 13.052268,85.6881717 Z"/>
        <path fill="#FFF5F4" fill-rule="nonzero" stroke="#574CFA" d="M108.605304,10.7408921 L10.5219766,10.7408921 C9.75546972,10.7408921 9.06126416,11.0517734 8.55870261,11.5543349 C8.05614106,12.0568965 7.74525979,12.751102 7.74525979,13.517609 L7.74525979,56.7134272 C7.74525979,57.4803561 8.05608436,58.1744238 8.55847926,58.6768187 C9.06104979,59.1793892 9.75533764,59.490144 10.5219766,59.490144 L108.605304,59.490144 C109.371943,59.490144 110.066231,59.1793892 110.568802,58.6768187 C111.071196,58.1744238 111.382021,57.4803561 111.382021,56.7134272 L111.382021,13.517609 C111.382021,12.75068 111.071196,12.0566123 110.568802,11.5542174 C110.066231,11.0516469 109.371943,10.7408921 108.605304,10.7408921 Z"/>
        <path fill="#81B8FD" fill-rule="nonzero" stroke="#574CFA" d="M119.627281,69.7937482 L-0.5,69.7937482 L-0.5,81.2501642 C-0.5,82.6139783 0.0525349529,83.8485617 0.946125335,84.7421521 C1.83955316,85.6355799 3.07393397,86.1881717 4.43800751,86.1881717 L114.689273,86.1881717 C116.053347,86.1881717 117.287728,85.6355799 118.181156,84.7421521 C119.074746,83.8485617 119.627281,82.6139783 119.627281,81.2501642 L119.627281,69.7937482 Z"/>
        <path fill="#FFE046" fill-rule="nonzero" stroke="#574CFA" d="M108.236303 74.5071429C107.27394 74.5071429 106.402832 74.89707 105.772283 75.5274269 105.141603 76.1579148 104.751577 77.0289359 104.751577 77.99096 104.751577 78.9533979 105.141561 79.8245667 105.772129 80.4551344 106.402696 81.0857021 107.273865 81.4756858 108.236303 81.4756858 109.198327 81.4756858 110.069349 81.0856604 110.699836 80.4549806 111.330193 79.8244317 111.72012 78.9533233 111.72012 77.99096 111.72012 77.0290105 111.330152 76.1580498 110.699683 75.5275807 110.069213 74.8971116 109.198253 74.5071429 108.236303 74.5071429zM95.5603071 74.5071429C94.5979437 74.5071429 93.7268353 74.89707 93.0962864 75.5274269 92.4656065 76.1579147 92.075581 77.0289359 92.075581 77.99096 92.075581 78.9533979 92.4655648 79.8245668 93.0961325 80.4551344 93.7267002 81.0857021 94.5978691 81.4756858 95.5603071 81.4756858 96.5223422 81.4756858 97.3936381 81.085637 98.024364 80.4549111 98.6549206 79.8243544 99.0450328 78.9532701 99.0450328 77.99096 99.0450328 77.0290636 98.654879 76.158127 98.0242102 75.5276502 97.393503 74.897135 96.5222677 74.5071429 95.5603071 74.5071429z"/>
        <path fill="#81B8FD" fill-rule="nonzero" stroke="#574CFA" d="M88.1734684,36.7224102 C87.9109845,36.9855569 87.7799229,37.3302416 87.7802828,37.6747516 C87.7806425,38.0190711 87.9122964,38.3632313 88.1753034,38.6255758 L94.2730087,44.7114656 C94.535698,44.9741545 94.8802179,45.1052298 95.2240255,45.1052298 C95.568355,45.1052298 95.9133905,44.9735348 96.1756273,44.7099734 C96.4385552,44.4463811 96.5696168,44.1016964 96.5692569,43.7571864 C96.5688973,43.4128669 96.4372434,43.0687066 96.1742365,42.8063622 L90.076531,36.7204723 C89.8134874,36.4580913 89.4688027,36.3270298 89.1242928,36.3273896 C88.7799732,36.3277493 88.4358129,36.4594033 88.1734684,36.7224102 Z"/>
        <path fill="#FF7C48" fill-rule="nonzero" stroke="#574CFA" d="M96.6297608,41.1775118 L92.540142,45.2671307 L99.7065709,52.4335596 C100.283763,53.0107517 101.040133,53.2993658 101.796512,53.2993658 C102.552891,53.2993658 103.309261,53.0107517 103.886453,52.4335596 C104.463152,51.8564718 104.751577,51.1002766 104.751577,50.344073 C104.751577,49.5878695 104.463152,48.8316743 103.886334,48.2544674 L96.6297608,41.1775118 Z"/>
        <path fill="#C0DBFF" fill-rule="nonzero" stroke="#574CFA" d="M72.0551713,20.6040325 C69.6074782,23.0517254 68.3836546,26.2599947 68.3836546,29.4682603 C68.3836546,32.676526 69.6074782,35.8847953 72.0551397,38.3324566 C74.5028251,40.7805791 77.711083,42.0046233 80.9194496,42.0046233 C84.1278389,42.0046233 87.3363343,40.7805635 89.784441,38.3324566 C92.2321024,35.8847953 93.4559259,32.676526 93.4559259,29.4682603 C93.4559259,26.2599947 92.2321024,23.0517254 89.784441,20.6040641 C87.3363343,18.1559573 84.1278389,16.9318976 80.9194496,16.9318976 C77.711083,16.9318976 74.5028251,18.1559417 72.0551713,20.6040325 Z"/>
        <path fill="#FFF5F4" fill-rule="nonzero" stroke="#574CFA" d="M80.9202447,22.0853952 C78.949011,22.0853952 77.0947684,22.8526428 75.6996978,24.2477134 C74.3056021,25.6418089 73.5373796,27.4960517 73.5373796,29.4682605 C73.5373796,31.4404032 74.3055115,33.2936464 75.6995743,34.6886837 C77.094859,36.0829936 78.9481022,36.8511255 80.9202447,36.8511255 C82.8924534,36.8511255 84.7466962,36.0829031 86.1407918,34.6888073 C87.5358623,33.293737 88.30311,31.4404692 88.30311,29.4682605 C88.30311,27.4960694 87.5358447,25.6418573 86.1407917,24.2468045 C84.7466962,22.8527088 82.892471,22.0853952 80.9202447,22.0853952 Z"/>
        <path fill="#EBE0DA" fill-rule="nonzero" d="M19.1362374,58.990144 L10.5219766,58.990144 C9.26410191,58.990144 8.24525979,57.9713019 8.24525979,56.7134272 L8.24525979,13.517609 C8.24525979,12.2597342 9.26410191,11.2408921 10.5219766,11.2408921 L19.1362374,11.2408921 C17.8792715,11.2408921 16.8595205,12.2597342 16.8595205,13.517609 L16.8595205,56.7134272 C16.8595205,57.9713019 17.8792715,58.990144 19.1362374,58.990144 Z"/>
        <path fill="#81B8FD" fill-rule="nonzero" stroke="#574CFA" d="M8.37977241.504544287C8.08462781.504544287 7.8594834.628879164 7.7039756.824175697 7.48524658 1.09886943 7.39071543 1.48812 7.39071543 1.87459622 7.39071543 2.27978847 7.49558356 2.6927645 7.71963677 2.9869834 7.87472307 3.19063735 8.09371405 3.32997419 8.37977241 3.32997419L12.7824559 3.32997419 12.7824559 18.4736719C12.7824559 20.0685818 12.3822901 21.2552624 11.6424209 22.054187 10.8909628 22.8656253 9.77589603 23.3017061 8.2743436 23.3017061 6.75209766 23.3017061 5.75918853 22.8257997 5.10078716 22.1955092 4.08039304 21.2186814 3.86264943 19.8256354 3.83649708 19.0485347 3.82899735 18.8416576 3.76670252 18.5452581 3.47558712 18.3393627 3.22182803 18.159888 2.82861738 18.0538962 2.24672423 18.0538962 1.65231865 18.0538962 1.21158056 18.1339881.935761153 18.3963472.667602821 18.6514192.586342616 19.0612644.586342616 19.6088493.586342616 21.5479524 1.35517099 23.1719492 2.70503708 24.3091359 4.08674019 25.4731435 6.06188824 26.126227 8.41612717 26.126227 10.095032 26.126227 12.4571585 25.8015701 14.1066231 24.1447171 15.2523854 22.9938226 16.0323277 21.2022882 16.0323277 18.4736719L16.0323277 1.49145401C16.0323277 1.20519963 15.8973183.985012395 15.6973927.829556967 15.4125772.608093967 15.0126426.504544287 14.6200673.504544287L8.37977241.504544287zM26.8161805.504544287C29.3071853.504544287 31.2519045 1.16318301 32.5644773 2.46444054 33.8757255 3.76438482 34.5396275 5.69045143 34.5396275 8.15709956L34.5396275 8.15709956 34.5396275 18.4736719C34.5396275 20.9406394 33.8757977 22.8666558 32.564658 24.1664925 31.2520801 25.4677551 29.3072934 26.126227 26.8161805 26.126227 24.337108 26.126227 22.401392 25.4679367 21.0949018 24.1671023 19.7892434 22.867096 19.1281795 20.9408834 19.1281795 18.4736719L19.1281795 18.4736719 19.1281795 8.15709956C19.1281795 5.69020749 19.7893153 3.76394459 21.0950817 2.46383083 22.4015668 1.16300148 24.3372156.504544287 26.8161805.504544287zM26.8161805 3.32997419C25.3368525 3.32997419 24.2384616 3.76681476 23.4981539 4.5804355 22.7720908 5.378401 22.3789599 6.56383793 22.3789599 8.15709956L22.3789599 18.4736719C22.3789599 20.0673432 22.772065 21.2529697 23.4980662 22.0510348 24.2383804 22.8648336 25.3367973 23.3017061 26.8161805 23.3017061 28.2859059 23.3017061 29.3944157 22.8561874 30.146024 22.0375327 30.8845873 21.2330866 31.2897559 20.0456494 31.2897559 18.4736719L31.2897559 8.15709956C31.2897559 6.58515396 30.8846011 5.3979853 30.146094 4.5937693 29.3944955 3.77529715 28.2859685 3.32997419 26.8161805 3.32997419zM45.5716017.504544287C47.9093967.504544287 49.6618909.967059722 50.8188519 1.96348547 51.9507545 2.93832984 52.4797932 4.41789574 52.4797932 6.38480484 52.4797932 8.82845951 51.6284516 10.7440747 50.0467772 11.6752625 49.683216 11.8893038 49.2928985 12.0443679 48.8818134 12.1418776 49.2662655 12.2279576 49.6679664 12.365634 50.091562 12.5604117 51.2881465 13.1106251 52.0251068 13.824807 52.4648103 14.7016842 53.0229279 15.8147085 53.1178191 17.1683267 53.1178191 18.7217931 53.1178191 21.293023 52.4479284 23.001989 51.4049602 24.1006498 50.0420676 25.5363182 48.0760423 25.9135517 46.3159655 25.9135517L46.3159655 25.9135517 39.1195405 25.9135517C38.6973464 25.9135517 38.3225568 25.8017344 38.0562843 25.5997215 37.8457666 25.4400081 37.7063712 25.2206148 37.7063712 24.9620877L37.7063712 24.9620877 37.7063712 1.49236282C37.7063712 1.20572219 37.8413698.985251898 38.0414631.82964488 38.3263972.608059552 38.7265584.504544287 39.1195405.504544287L39.1195405.504544287zM45.6070477 13.3629792L40.9217059 13.3629792 40.9217059 23.0913245C41.6876201 23.0840879 42.4015569 23.0953693 43.0633738 23.1057992 45.5197726 23.1445109 47.2778827 23.1160989 48.3831041 22.285033 49.3240956 21.577459 49.8679478 20.3050538 49.8679478 17.8710917 49.8679478 16.3181419 49.5116015 15.2147543 48.8273619 14.485538 48.1336257 13.7462011 47.0856807 13.3629792 45.6070477 13.3629792zM45.3234805 3.32997419L40.9217059 3.32997419 40.9217059 10.8920083 45.3943722 10.8920083C46.6864381 10.8920083 47.6286014 10.5438955 48.260528 9.89853473 48.8891456 9.25655325 49.2290128 8.29895688 49.2290128 6.98647625 49.2290128 5.76705436 48.870848 4.86494194 48.2137465 4.25589112 47.5690984 3.65838306 46.6130801 3.32997419 45.3234805 3.32997419z" transform="translate(11.634 21.638)"/>
        <path fill="#EBE0DA" fill-rule="nonzero" d="M81.7718551,34.3352539 C82.3626199,34.9260189 83.0424539,35.3959041 83.7804555,35.7303679 C82.8943084,36.1366324 81.9245451,36.3511255 80.9202447,36.3511255 C79.0816028,36.3511255 77.3538428,35.6349367 76.05416,34.3352539 C74.7526596,33.0355713 74.0364708,31.3050847 74.0364708,29.4664426 C74.0364708,27.6305272 74.7526596,25.9000405 76.05416,24.600358 C77.3538428,23.3015842 79.0816028,22.5853952 80.9202447,22.5853952 C81.9245451,22.5853952 82.8943084,22.7989794 83.7804555,23.2025173 C83.0424539,23.5397077 82.3626199,24.0105018 81.7718551,24.600358 C80.4703547,25.9000405 79.7541659,27.6305272 79.7541659,29.4664426 C79.7541659,31.3050847 80.4703547,33.0355713 81.7718551,34.3352539 Z"/>
        <path fill="#62A6FD" fill-rule="nonzero" d="M13.052268,85.6881717 L4.43800751,85.6881717 C1.98587876,85.6881717 0,83.7013841 0,81.2501642 L0,70.2946571 L8.61426074,70.2946571 L8.61426074,81.2501642 C8.61426074,83.7013841 10.6010483,85.6881717 13.052268,85.6881717 Z"/>
        <path fill="#62A6FD" fill-rule="nonzero" d="M13.052268,85.6881717 L4.43800751,85.6881717 C1.98587876,85.6881717 0,83.7013841 0,81.2501642 L0,70.2946571 L8.61426074,70.2946571 L8.61426074,81.2501642 C8.61426074,83.7013841 10.6010483,85.6881717 13.052268,85.6881717 Z"/>
      </g>
    </g>
  </g>
</svg>
