<svg xmlns="http://www.w3.org/2000/svg" xmlns:xlink="http://www.w3.org/1999/xlink" width="156" height="156" viewBox="0 0 156 156">
  <defs>
    <linearGradient id="2-c" x1="50%" x2="50%" y1="100%" y2="0%">
      <stop offset="0%" stop-color="#E0E0E0"/>
      <stop offset="100%" stop-color="#E2EEF4"/>
    </linearGradient>
    <circle id="2-a" cx="78" cy="78" r="78"/>
    <filter id="2-b" width="125%" height="125%" x="-12.5%" y="-10.6%" filterUnits="objectBoundingBox">
      <feMorphology in="SourceAlpha" operator="dilate" radius="3" result="shadowSpreadOuter1"/>
      <feOffset dy="3" in="shadowSpreadOuter1" result="shadowOffsetOuter1"/>
      <feGaussianBlur in="shadowOffsetOuter1" result="shadowBlurOuter1" stdDeviation="5"/>
      <feComposite in="shadowBlurOuter1" in2="SourceAlpha" operator="out" result="shadowBlurOuter1"/>
      <feColorMatrix in="shadowBlurOuter1" values="0 0 0 0 0   0 0 0 0 0   0 0 0 0 0  0 0 0 0.1 0"/>
    </filter>
  </defs>
  <g fill="none" fill-rule="evenodd">
    <mask id="2-d" fill="#fff">
      <use xlink:href="#2-a"/>
    </mask>
    <use fill="#000" filter="url(#2-b)" xlink:href="#2-a"/>
    <circle cx="78" cy="78" r="79.5" fill="url(#2-c)" stroke="#FFF" stroke-width="3"/>
    <g mask="url(#2-d)">
      <g transform="translate(18 40)">
        <path fill="#62A6FD" fill-rule="nonzero" stroke="#574CFA" d="M65.158302,67.3507083 L53.9689788,67.3507083 L45.2656675,110.684918 L73.8616134,110.684918 L65.158302,67.3507083 Z"/>
        <polygon fill="#4394FB" fill-rule="nonzero" points="62.992 67.851 54.491 110.185 45.876 110.185 54.378 67.851"/>
        <path fill="#81B8FD" fill-rule="nonzero" stroke="#574CFA" d="M81.2847013,106.363002 L37.8425795,106.363002 C36.9059678,106.363002 36.057862,106.74261 35.4439612,107.356511 C34.8302303,107.970242 34.4505584,108.818135 34.4505584,109.755023 L34.4505584,113.44685 C34.4505584,114.383333 34.8302945,115.231355 35.4441845,115.845245 C36.0580745,116.459135 36.906096,116.838871 37.8425795,116.838871 L81.2847013,116.838871 C82.2211848,116.838871 83.0692063,116.459135 83.6830963,115.845245 C84.2969863,115.231355 84.6767224,114.383333 84.6767224,113.44685 L84.6767224,109.755023 C84.6767224,108.818135 84.2970505,107.970242 83.6833197,107.356511 C83.0694189,106.74261 82.221313,106.363002 81.2847013,106.363002 Z"/>
        <path fill="#62A6FD" fill-rule="nonzero" d="M46.4568403,116.338871 L37.8425795,116.338871 C36.2447879,116.338871 34.9505584,115.043732 34.9505584,113.44685 L34.9505584,109.755023 C34.9505584,108.157232 36.2447879,106.863002 37.8425795,106.863002 L46.4568403,106.863002 C44.8599575,106.863002 43.5648189,108.157232 43.5648189,109.755023 L43.5648189,113.44685 C43.5648189,115.043732 44.8599575,116.338871 46.4568403,116.338871 Z"/>
        <path fill="#C0DBFF" fill-rule="nonzero" stroke="#574CFA" d="M114.689273,-0.5 L4.43800751,-0.5 C3.07381083,-0.5 1.83934307,0.0524611015 0.945902083,0.945902083 C0.0524611015,1.83934307 -0.5,3.07381083 -0.5,4.43800751 L-0.5,81.2501642 C-0.5,82.6139783 0.0525349529,83.8485617 0.946125335,84.7421521 C1.83955316,85.6355799 3.07393397,86.1881717 4.43800751,86.1881717 L114.689273,86.1881717 C116.053347,86.1881717 117.287728,85.6355799 118.181156,84.7421521 C119.074746,83.8485617 119.627281,82.6139783 119.627281,81.2501642 L119.627281,4.43800751 C119.627281,3.07381083 119.07482,1.83934307 118.181379,0.945902083 C117.287938,0.0524611015 116.05347,-0.5 114.689273,-0.5 Z"/>
        <path fill="#A0CAFE" fill-rule="nonzero" d="M13.052268,85.6881717 L4.43800751,85.6881717 C1.98587876,85.6881717 0,83.7013841 0,81.2501642 L0,4.43800751 C0,1.98587876 1.98587876,2.84217094e-14 4.43800751,2.84217094e-14 L13.052268,2.84217094e-14 C10.6010483,2.84217094e-14 8.61426074,1.98587876 8.61426074,4.43800751 L8.61426074,81.2501642 C8.61426074,83.7013841 10.6010483,85.6881717 13.052268,85.6881717 Z"/>
        <path fill="#FFF5F4" fill-rule="nonzero" stroke="#574CFA" d="M108.605304,10.7408921 L10.5219766,10.7408921 C9.75546972,10.7408921 9.06126416,11.0517734 8.55870261,11.5543349 C8.05614106,12.0568965 7.74525979,12.751102 7.74525979,13.517609 L7.74525979,56.7134272 C7.74525979,57.4803561 8.05608436,58.1744238 8.55847926,58.6768187 C9.06104979,59.1793892 9.75533764,59.490144 10.5219766,59.490144 L108.605304,59.490144 C109.371943,59.490144 110.066231,59.1793892 110.568802,58.6768187 C111.071196,58.1744238 111.382021,57.4803561 111.382021,56.7134272 L111.382021,13.517609 C111.382021,12.75068 111.071196,12.0566123 110.568802,11.5542174 C110.066231,11.0516469 109.371943,10.7408921 108.605304,10.7408921 Z"/>
        <path fill="#81B8FD" fill-rule="nonzero" stroke="#574CFA" d="M119.627281,69.7937482 L-0.5,69.7937482 L-0.5,81.2501642 C-0.5,82.6139783 0.0525349529,83.8485617 0.946125335,84.7421521 C1.83955316,85.6355799 3.07393397,86.1881717 4.43800751,86.1881717 L114.689273,86.1881717 C116.053347,86.1881717 117.287728,85.6355799 118.181156,84.7421521 C119.074746,83.8485617 119.627281,82.6139783 119.627281,81.2501642 L119.627281,69.7937482 Z"/>
        <path fill="#FFE046" fill-rule="nonzero" stroke="#574CFA" d="M108.236303 74.5071429C107.27394 74.5071429 106.402832 74.89707 105.772283 75.5274269 105.141603 76.1579148 104.751577 77.0289359 104.751577 77.99096 104.751577 78.9533979 105.141561 79.8245667 105.772129 80.4551344 106.402696 81.0857021 107.273865 81.4756858 108.236303 81.4756858 109.198327 81.4756858 110.069349 81.0856604 110.699836 80.4549806 111.330193 79.8244317 111.72012 78.9533233 111.72012 77.99096 111.72012 77.0290105 111.330152 76.1580498 110.699683 75.5275807 110.069213 74.8971116 109.198253 74.5071429 108.236303 74.5071429zM95.5603071 74.5071429C94.5979437 74.5071429 93.7268353 74.89707 93.0962864 75.5274269 92.4656065 76.1579147 92.075581 77.0289359 92.075581 77.99096 92.075581 78.9533979 92.4655648 79.8245668 93.0961325 80.4551344 93.7267002 81.0857021 94.5978691 81.4756858 95.5603071 81.4756858 96.5223422 81.4756858 97.3936381 81.085637 98.024364 80.4549111 98.6549206 79.8243544 99.0450328 78.9532701 99.0450328 77.99096 99.0450328 77.0290636 98.654879 76.158127 98.0242102 75.5276502 97.393503 74.897135 96.5222677 74.5071429 95.5603071 74.5071429z"/>
        <path fill="#EBE0DA" fill-rule="nonzero" d="M19.1362374,58.990144 L10.5219766,58.990144 C9.26410191,58.990144 8.24525979,57.9713019 8.24525979,56.7134272 L8.24525979,13.517609 C8.24525979,12.2597342 9.26410191,11.2408921 10.5219766,11.2408921 L19.1362374,11.2408921 C17.8792715,11.2408921 16.8595205,12.2597342 16.8595205,13.517609 L16.8595205,56.7134272 C16.8595205,57.9713019 17.8792715,58.990144 19.1362374,58.990144 Z"/>
        <path fill="#62A6FD" fill-rule="nonzero" d="M13.052268,85.6881717 L4.43800751,85.6881717 C1.98587876,85.6881717 0,83.7013841 0,81.2501642 L0,70.2946571 L8.61426074,70.2946571 L8.61426074,81.2501642 C8.61426074,83.7013841 10.6010483,85.6881717 13.052268,85.6881717 Z"/>
        <path fill="#62A6FD" fill-rule="nonzero" d="M13.052268,85.6881717 L4.43800751,85.6881717 C1.98587876,85.6881717 0,83.7013841 0,81.2501642 L0,70.2946571 L8.61426074,70.2946571 L8.61426074,81.2501642 C8.61426074,83.7013841 10.6010483,85.6881717 13.052268,85.6881717 Z"/>
        <path fill="#8ECB51" fill-rule="nonzero" stroke="#574CFA" d="M94.5141988,22.5943618 L24.613082,22.5943618 C24.1691878,22.5943618 23.7672044,22.7741653 23.4762189,23.0649122 C23.1851975,23.3556949 23.0051708,23.7574306 23.0051708,24.2013644 L23.0051708,46.0296717 C23.0051708,46.4736056 23.1851975,46.8753413 23.4762189,47.166124 C23.7672043,47.4568708 24.1691878,47.6366743 24.613082,47.6366743 L94.5141988,47.6366743 C94.9580931,47.6366743 95.3600765,47.4568708 95.651062,47.166124 C95.9420833,46.8753413 96.12211,46.4736056 96.12211,46.0296717 L96.12211,24.2013644 C96.12211,23.7574306 95.9420833,23.3556949 95.6510619,23.0649122 C95.3600764,22.7741653 94.958093,22.5943618 94.5141988,22.5943618 Z"/>
        <path fill="#FFF5F4" fill-rule="nonzero" d="M5.68770224 5.35051201C4.65522703 4.8960775 3.83997157 4.53616536 3.83997157 3.96630443 3.83997157 2.99835897 5.80221986 2.78931898 7.20733125 3.51732324 7.48362744 3.66001562 7.74538171 3.79634586 8.07621027 3.79634586 9.07960168 3.79634586 9.49586357 2.62572255 9.49586357 1.99860304 9.49586357.180864994 6.15486104.0881602373 5.48593343.0881602373 3.13832469.0881602373.397175706 1.17880307.397175706 4.24987156.397175706 8.80239645 6.39298461 8.5606374 6.39298461 10.5665112 6.39298461 11.3063307 5.5368301 11.5689938 4.80428178 11.5689938 3.12105612 11.5689938 2.62026946 10.1693355 1.58961187 10.1693355.700738076 10.1693355.0572588067 11.2654316.0572588067 12.0043421.0572588067 15.1499377 9.8357807 16.6432096 9.8357807 10.2647669 9.8357807 7.17915649 7.4381841 6.12305056 5.68770224 5.35051201zM17.3248615 1.33694639L17.3248615 9.92394094C17.3248615 11.0154926 16.7968084 11.5689938 15.7552446 11.5689938 14.7145896 11.5689938 14.1856277 11.0154926 14.1856277 9.92394094L14.1856277 1.33694639C14.1856277-.174502853 10.7437407-.199951185 10.7437407 1.33694639L10.7437407 9.92394094C10.7437407 12.9613811 12.5233064 14.6337001 15.7552446 14.6337001 18.9880917 14.6337001 20.7676571 12.9613811 20.7676571 9.92394094L20.7676571 1.33694639C20.7676571-.176320475 17.3248615-.198133331 17.3248615 1.33694639zM30.4034866 6.75653222C31.2441904 6.18121818 31.699534 5.15692273 31.699534 3.81452324 31.699534 1.45146377 30.3071464.20176904 27.6714265.20176904L23.7941911.20176904C23.0561894.20176904 22.261838.563498795 22.261838 1.35603259L22.261838 13.3849142C22.261838 13.9493218 22.788073 14.5200915 23.7941911 14.5200915L27.9922572 14.5200915C30.602529 14.5200915 32.0403597 12.9886473 32.0403597 10.2075081 32.0403597 8.7469555 31.8803987 7.49362505 30.4034866 6.75653222L30.4034866 6.75653222zM27.4251229 5.4032263L25.6855475 5.4032263 25.6855475 3.26647516 27.4251229 3.26647516C28.5248543 3.26647516 28.5439407 5.4032263 27.4251229 5.4032263zM28.5975638 9.96120451C28.5975638 11.7507676 27.4805638 11.4553852 25.6855475 11.4553852L25.6855475 8.16527932C27.9313629 8.16527932 28.5975638 7.87625885 28.5975638 9.96120451zM43.2748899.20176904C41.3880775.20176904 41.4117083.684378318 39.0377424 4.83245655 36.6646853.683469507 36.6874072.20176904 34.8015039.20176904 34.0071522.20176904 33.0801058.652568076 33.0801058 1.92316686L33.0801058 13.3658278C33.0801058 14.905452 36.5229017 14.9045432 36.5229017 13.3658278L36.5229017 7.04918816C37.9289222 9.62401405 38.0070848 10.1702445 39.0004788 10.1702445 40.040225 10.1702445 40.1711021 9.54312476 41.5534918 7.18097411L41.5534918 13.3658278C41.5534918 14.905452 44.9962877 14.9045432 44.9962877 13.3658278L44.9962877 1.92316686C44.9962877.654385698 44.1074137.20176904 43.2748899.20176904zM46.5468184 1.33694639L46.5468184 13.3658278C46.5468184 14.905452 49.989614 14.9045432 49.989614 13.3658278L49.989614 1.33694639C49.989614-.189953568 46.5468184-.193589044 46.5468184 1.33694639zM59.9762671.20176904L51.8055344.20176904C50.274999.20176904 50.3049916 3.34191135 51.8055344 3.34191135L54.1695027 3.34191135 54.1695027 13.3658278C54.1695027 14.905452 57.6122986 14.9045432 57.6122986 13.3658278L57.6122986 3.34191135 59.9762671 3.34191135C61.4759008 3.34191135 61.5049847.20176904 59.9762671.20176904L59.9762671.20176904z" transform="translate(29.084 27.688)"/>
        <path fill="#62A6FD" fill-rule="nonzero" stroke="#574CFA" d="M93.3767448,52.554575 C93.563347,52.7863061 93.8177197,52.9462318 94.0953452,53.0205163 C94.5445185,53.140702 95.0533942,53.0386402 95.4294332,52.6626011 L97.8806497,50.2113848 L100.380945,52.7116802 C101.093558,53.4237669 102.026954,53.77972 102.960205,53.77972 C103.893551,53.77972 104.826761,53.4237022 105.538783,52.7116802 C106.250894,51.9995698 106.6069,51.0662184 106.60671,50.133027 C106.606519,49.1999014 106.250195,48.2669272 105.537613,47.5553981 L103.037523,45.0545116 L105.488796,42.603239 C105.864835,42.2272 105.966896,41.7183243 105.846711,41.2691509 C105.784655,41.0372281 105.662834,40.8215325 105.489313,40.6480169 C105.326665,40.4853739 105.118656,40.359044 104.870083,40.292505 L91.1280913,36.6107054 C90.6143584,36.4731875 90.1225222,36.6393654 89.7936985,36.968189 C89.6239367,37.1379508 89.4981448,37.3513431 89.4347804,37.5884187 C89.3754017,37.8105818 89.3701623,38.0538683 89.4370386,38.3024137 L93.3767448,52.554575 Z"/>
        <path fill="#4394FB" fill-rule="nonzero" d="M105.184321,52.3590356 C103.95553,53.5878265 101.964198,53.5878265 100.733589,52.3590356 L97.8815585,49.5042781 L95.074971,52.3099568 C94.5950881,52.7898396 93.7780148,52.5689844 93.6007853,51.9136899 L89.918957,38.172499 C89.7444542,37.5181134 90.3424899,36.917351 90.9996023,37.0945805 L94.0143208,37.9016562 L96.8009133,48.3054798 C96.9781428,48.9607745 97.7952159,49.1798119 98.2750987,48.6990202 L101.080777,45.8960679 L103.933717,48.7490078 C104.527209,49.3397728 105.297021,49.6469704 106.072286,49.6669657 C106.214979,50.6194604 105.917778,51.6255782 105.184321,52.3590356 Z"/>
      </g>
    </g>
  </g>
</svg>
