<svg xmlns="http://www.w3.org/2000/svg" xmlns:xlink="http://www.w3.org/1999/xlink" width="156" height="156" viewBox="0 0 156 156">
  <defs>
    <linearGradient id="3-c" x1="50%" x2="50%" y1="100%" y2="0%">
      <stop offset="0%" stop-color="#E0E0E0"/>
      <stop offset="100%" stop-color="#E2EEF4"/>
    </linearGradient>
    <circle id="3-a" cx="78" cy="78" r="78"/>
    <filter id="3-b" width="125%" height="125%" x="-12.5%" y="-10.6%" filterUnits="objectBoundingBox">
      <feMorphology in="SourceAlpha" operator="dilate" radius="3" result="shadowSpreadOuter1"/>
      <feOffset dy="3" in="shadowSpreadOuter1" result="shadowOffsetOuter1"/>
      <feGaussianBlur in="shadowOffsetOuter1" result="shadowBlurOuter1" stdDeviation="5"/>
      <feComposite in="shadowBlurOuter1" in2="SourceAlpha" operator="out" result="shadowBlurOuter1"/>
      <feColorMatrix in="shadowBlurOuter1" values="0 0 0 0 0   0 0 0 0 0   0 0 0 0 0  0 0 0 0.1 0"/>
    </filter>
  </defs>
  <g fill="none" fill-rule="evenodd">
    <mask id="3-d" fill="#fff">
      <use xlink:href="#3-a"/>
    </mask>
    <use fill="#000" filter="url(#3-b)" xlink:href="#3-a"/>
    <circle cx="78" cy="78" r="79.5" fill="url(#3-c)" stroke="#FFF" stroke-width="3"/>
    <g mask="url(#3-d)">
      <g transform="translate(18 37)">
        <path fill="#C0DBFF" fill-rule="nonzero" stroke="#574CFA" d="M60.4621599,26.6950814 C59.8930217,26.4244472 59.2342591,26.4244472 58.6649943,26.6951416 L0.5,54.3735065 L0.5,117.081417 C0.5,117.406622 0.629242408,117.69922 0.838591469,117.913691 C1.05419542,118.134413 1.35701917,118.271913 1.69049639,118.271913 L117.436784,118.271913 C117.770262,118.271913 118.073085,118.134413 118.288813,117.913564 C118.498038,117.69922 118.627281,117.406622 118.627281,117.081417 L118.627281,54.3735065 L60.4621599,26.6950814 Z"/>
        <path fill="#81B8FD" fill-rule="nonzero" stroke="#574CFA" d="M60.4630718,26.6959916 C59.8936455,26.4244869 59.2336353,26.4244869 58.6645597,26.6958246 L1.1636305,54.0577194 L58.6642148,81.4203436 C59.2334612,81.691029 59.8938196,81.691029 60.4631955,81.4202821 L117.96365,54.0577194 L60.4630718,26.6959916 Z"/>
        <path fill="#FFF5F4" fill-rule="nonzero" stroke="#574CFA" d="M95.0131679,0.5 L24.114113,0.5 C23.5854892,0.5 23.106795,0.714441622 22.7602424,1.0609943 C22.4136896,1.407547 22.199248,1.88624117 22.199248,2.41486494 L22.199248,64.0684414 L30.3665158,67.9536019 L58.6651166,81.4194315 C59.2342591,81.6900675 59.8930217,81.6900675 60.4622867,81.4193733 L96.9280328,64.0684741 L96.9280328,2.41486494 C96.9280328,1.88624117 96.7135912,1.407547 96.3670385,1.0609943 C96.0204858,0.714441622 95.5417917,0.5 95.0131679,0.5 Z"/>
        <path fill="#C8BEBC" fill-rule="nonzero" stroke="#574CFA" d="M1.92680233-.419110715C1.28836159-.419110715.710538365-.160452082.292311711.257774572-.125914943.676001226-.384573576 1.25382445-.384573576 1.89226519-.384573576 2.53070605-.125914954 3.1085293.292311663 3.52675597.710538324 3.94498269 1.28836156 4.20364133 1.92680233 4.20364133L49.2607012 4.20364133C49.8991419 4.20364133 50.4769652 3.94498269 50.8951918 3.52675597 51.3134184 3.1085293 51.5720771 2.53070605 51.5720771 1.89226519 51.5720771 1.25382445 51.3134184.676001226 50.8951918.257774572 50.4769651-.160452082 49.8991419-.419110715 49.2607012-.419110715L1.92680233-.419110715zM1.92680233 15.1979858C1.28836159 15.1979858.710538365 15.4566444.292311711 15.8748711-.125914943 16.2930977-.384573576 16.870921-.384573576 17.5093617-.384573576 18.1478026-.125914955 18.7256258.292311654 19.1438524.71053831 19.562079 1.28836155 19.8207376 1.92680233 19.8207376L49.2607012 19.8207376C49.8991419 19.8207376 50.4769652 19.562079 50.8951918 19.1438524 51.3134184 18.7256258 51.5720771 18.1478026 51.5720771 17.5093617 51.5720771 16.870921 51.3134184 16.2930977 50.8951918 15.8748711 50.4769651 15.4566444 49.8991419 15.1979858 49.2607012 15.1979858L1.92680233 15.1979858zM1.92680233 26.6288315C1.28836159 26.6288315.710538365 26.8874901.292311711 27.3057168-.125914943 27.7239434-.384573576 28.3017666-.384573576 28.9402074-.384573576 29.5786482-.125914954 30.1564715.292311663 30.5746982.710538324 30.9929249 1.28836156 31.2515835 1.92680233 31.2515835L49.2607012 31.2515835C49.8991419 31.2515835 50.4769652 30.9929249 50.8951918 30.5746982 51.3134184 30.1564715 51.5720771 29.5786482 51.5720771 28.9402074 51.5720771 28.3017666 51.3134184 27.7239434 50.8951918 27.3057168 50.4769651 26.8874901 49.8991419 26.6288315 49.2607012 26.6288315L1.92680233 26.6288315z" transform="translate(36.97 13.218)"/>
        <path fill="#EBE0DA" fill-rule="nonzero" stroke="#574CFA" d="M30.3691391,0.5 L24.114113,0.5 C23.5854892,0.5 23.106795,0.714441622 22.7602424,1.0609943 C22.4136896,1.407547 22.199248,1.88624117 22.199248,2.41486494 L22.199248,64.0684414 L29.65173,67.6135791 L29.65173,2.41486494 C29.65173,1.68206388 29.922364,1.01224797 30.3691391,0.5 Z"/>
        <path fill="#FFAD8C" fill-rule="nonzero" stroke="#574CFA" d="M61.0547841,54.4371077 C60.9081362,54.1399485 60.695736,53.9132563 60.4476219,53.7589989 C60.1797957,53.5924861 59.8715736,53.5100131 59.5636404,53.5100131 C59.2557072,53.5100131 58.9474852,53.5924861 58.6796589,53.7589989 C58.4315448,53.9132563 58.2191446,54.1399485 58.0724872,54.437127 L56.6355749,57.3491241 C56.2472206,58.1347864 55.4976471,58.6795718 54.6306392,58.8059874 L51.4166628,59.2731773 C51.0886605,59.320731 50.8075502,59.4525705 50.5842626,59.6407685 C50.343182,59.8439632 50.1695384,60.1115802 50.0743784,60.4044192 C49.9791897,60.6973464 49.9623511,61.0160623 50.0379078,61.3223281 C50.1078984,61.6060317 50.2577927,61.8781594 50.4950287,62.109515 L52.8207119,64.3761245 C53.4485933,64.9883367 53.7349742,65.8701807 53.5861429,66.7340728 L53.0372467,69.9338474 C52.9813153,70.2603659 53.0199841,70.5686491 53.1301055,70.8393325 C53.2489782,71.131527 53.4499159,71.3794904 53.6990932,71.5605463 C53.948204,71.7415538 54.2459976,71.8560286 54.5605061,71.8787611 C54.8518287,71.8998177 55.1568273,71.8412922 55.4500844,71.6871054 L58.3248395,70.1756552 C59.1003499,69.7683163 60.0278398,69.7683163 60.8031719,70.1755615 L63.6772518,71.6871345 C63.97049,71.8413113 64.2755688,71.8998278 64.5669754,71.8787552 C64.8815911,71.8560043 65.1795001,71.7414939 65.428684,71.5604332 C65.6778552,71.3793818 65.8787765,71.1314451 65.997575,70.8392802 C66.1076051,70.5686795 66.1461565,70.2604996 66.0900562,69.9339759 L65.5410773,66.7337196 C65.3933396,65.8685596 65.6797972,64.9881411 66.307396,64.3762042 L68.6322947,62.1094734 C68.8697208,61.8780964 69.0196904,61.6060527 69.0897274,61.3224251 C69.1653365,61.0162327 69.1485106,60.6975883 69.0533394,60.404715 C68.9581603,60.1118173 68.7844442,59.8441433 68.5432921,59.6408982 C68.3199157,59.4526346 68.0387038,59.3207431 67.7108033,59.2732042 L64.4968571,58.8060188 C63.6296338,58.6795718 62.8800603,58.1347864 62.4918584,57.3494327 L61.0547841,54.4371077 Z"/>
        <path fill="#A0CAFE" fill-rule="nonzero" stroke="#574CFA" d="M77.1818877,73.4628679 L60.4621528,81.4194369 C59.8930217,81.6900675 59.2342591,81.6900675 58.6649942,81.4193733 L41.9426383,73.4628805 L-0.174758572,118.230051 C0.207115409,118.853649 0.902079902,119.271913 1.69049639,119.271913 L117.436784,119.271913 C118.225206,119.271913 118.920175,118.853644 119.302047,118.230038 L77.1818877,73.4628679 Z"/>
      </g>
    </g>
  </g>
</svg>
