<svg xmlns="http://www.w3.org/2000/svg" width="80" height="80" viewBox="0 0 80 80">
  <g fill="none">
    <path fill="#4DB7E5" d="M49.6551724,19.3103448 C49.6551724,17.0250286 47.8025576,15.1724138 45.5172414,15.1724138 L4.13793103,15.1724138 C1.85261483,15.1724138 0,17.0250286 0,19.3103448 L0,48.2758621 L49.6551724,48.2758621 L49.6551724,19.3103448 Z"/>
    <path fill="#48ADD9" d="M45.5172414,15.1724138 L12.4137931,48.2758621 L49.6551724,48.2758621 L49.6551724,19.3103448 C49.6551724,17.0250286 47.8025576,15.1724138 45.5172414,15.1724138 Z"/>
    <path fill="#E0E0DE" d="M0,48.2758621 L0,51.0344828 C0,53.319799 1.85261483,55.1724138 4.13793103,55.1724138 L45.5172414,55.1724138 C47.8025576,55.1724138 49.6551724,53.319799 49.6551724,51.0344828 L49.6551724,48.2758621 L0,48.2758621 Z"/>
    <polygon fill="#C7C7C5" points="31.724 63.448 17.931 63.448 20.69 55.172 28.966 55.172"/>
    <rect width="24.828" height="5.517" x="12.414" y="63.448" fill="#E0E0DE" rx="2.759"/>
    <g fill="#419BC2" transform="translate(4.138 19.31)">
      <polygon points="11.893 12.4 26.754 12.4 26.754 15.16 11.893 15.16" transform="rotate(-68.23 19.323 13.78)"/>
      <path d="M12.9655172 19.0344828L7.44827586 14.8965517C7.10095746 14.6360629 6.89655172 14.2272515 6.89655172 13.7931034 6.89655172 13.3589554 7.10095746 12.950144 7.44827586 12.6896552L12.9655172 8.55172414 14.6206897 10.7586207 10.5744828 13.7931034 14.6206897 16.8275862 12.9655172 19.0344828zM25.6551724 19.0344828L24 16.8275862 28.0462069 13.7931034 24 10.7586207 25.6551724 8.55172414 31.1724138 12.6896552C31.5197322 12.950144 31.7241379 13.3589554 31.7241379 13.7931034 31.7241379 14.2272515 31.5197322 14.6360629 31.1724138 14.8965517L25.6551724 19.0344828z"/>
      <polygon points="0 0 2.759 0 2.759 2.759 0 2.759"/>
      <polygon points="5.517 0 8.276 0 8.276 2.759 5.517 2.759"/>
      <polygon points="11.034 0 13.793 0 13.793 2.759 11.034 2.759"/>
    </g>
    <circle cx="66.207" cy="17.931" r="4.138" fill="#7A432A"/>
    <circle cx="41.379" cy="17.931" r="4.138" fill="#7A432A"/>
    <path fill="#FEC9A3" d="M72.8944828,44.502069 L60.6896552,42.7586207 L60.6896552,34.4827586 L46.8965517,34.4827586 L46.8965517,42.7586207 L34.127931,45.4946552 C30.3124365,46.3123125 27.5862069,49.6840841 27.5862069,53.5862069 L27.5862069,64.8275862 L80,64.8275862 L80,52.6948276 C80,48.5763011 76.9716187,45.0844972 72.8944828,44.502069 L72.8944828,44.502069 Z"/>
    <path fill="#FEB784" d="M54.8327586,41.3793103 C56.9054019,41.3784619 58.9356502,40.7921582 60.6896552,39.687931 L60.6896552,34.4827586 L46.8965517,34.4827586 L46.8965517,39.687931 C48.6505567,40.7921582 50.680805,41.3784619 52.7534483,41.3793103 L54.8327586,41.3793103 Z"/>
    <path fill="#F35244" d="M80,52.6948276 L80,70.3448276 L27.5862069,70.3448276 L27.5862069,53.5862069 C27.5862069,49.6842533 30.3122919,46.312612 34.1275862,45.4948276 L46.8965517,42.7586207 C49.2103448,49.237931 58.3758621,49.237931 60.6896552,42.7586207 L69.0362069,43.95 L72.8948276,44.5017241 C76.9719562,45.0843265 80,48.5762838 80,52.6948276 L80,52.6948276 Z"/>
    <polygon fill="#EA4A3B" points="37.241 70.345 70.345 70.345 70.345 80 37.241 80"/>
    <path fill="#EA4A3B" d="M80,52.6948276 L80,70.3448276 L40.9637931,70.3448276 C51.6465517,64.6086207 60.9551724,56.9982759 69.0362069,43.95 L72.8948276,44.5017241 C76.9719562,45.0843265 80,48.5762838 80,52.6948276 L80,52.6948276 Z"/>
    <path fill="#FEB784" d="M67.5862069 17.9310345L66.2068966 17.9310345 66.2068966 26.2068966 67.5862069 26.2068966C69.8715231 26.2068966 71.7241379 24.3542817 71.7241379 22.0689655 71.7241379 19.7836493 69.8715231 17.9310345 67.5862069 17.9310345zM41.3793103 17.9310345L40 17.9310345C37.7146838 17.9310345 35.862069 19.7836493 35.862069 22.0689655 35.862069 24.3542817 37.7146838 26.2068966 40 26.2068966L41.3793103 26.2068966 41.3793103 17.9310345z"/>
    <path fill="#FEC9A3" d="M66.2068966,16.5517241 L66.2068966,26.2068966 C66.2068966,32.8836792 60.9256384,38.3644716 54.2534483,38.612069 C54.1017241,38.6172414 53.9465517,38.6206897 53.7931034,38.6206897 C46.9373915,38.6201184 41.3798816,33.0626085 41.3793103,26.2068966 L41.3793103,16.5517241 C41.379904,10.3529509 45.9527922,5.10450573 52.0931034,4.25517241 L52.0948276,4.25517241 C55.6495499,3.76425097 59.2427978,4.83558901 61.9482781,7.19300938 C64.6537584,9.55042976 66.2068966,12.9632628 66.2068966,16.5517241 L66.2068966,16.5517241 Z"/>
    <path fill="#FEC093" d="M66.2068966,16.5517241 L66.2068966,26.2068966 C66.2068966,32.8836792 60.9256384,38.3644716 54.2534483,38.612069 C58.2913642,35.772192 60.6929011,31.1434597 60.6896552,26.2068966 L60.6896552,17.9310345 C60.6850814,12.1011901 57.3458066,6.78782444 52.0948276,4.25517241 C55.6495499,3.76425097 59.2427978,4.83558901 61.9482781,7.19300938 C64.6537584,9.55042976 66.2067445,12.9632628 66.2068966,16.5517241 Z"/>
    <path fill="#7A432A" d="M67.5862069,8.27586207 C67.562069,8.27586207 67.54,8.28258621 67.5160345,8.28293103 C67.5564064,8.05271467 67.57986,7.81985018 67.5862069,7.5862069 C67.5929527,5.58760549 66.3634364,3.79294374 64.4972808,3.07746028 C62.6311253,2.36197681 60.5169679,2.87467508 59.1858621,4.36551724 C58.6439116,1.81994601 56.3957258,1.13405719e-05 53.7931034,1.13405719e-05 C51.1904811,1.13405719e-05 48.9422953,1.81994601 48.4003448,4.36551724 C47.0052087,2.72711774 44.6858389,2.22567947 42.7385016,3.14144991 C40.7911644,4.05722034 39.6980853,6.16342427 40.0701724,8.28293103 C40.0462069,8.28293103 40.0241379,8.27586207 40,8.27586207 C37.7146838,8.27586212 35.8620691,10.1284769 35.8620691,12.4137931 C35.8620691,14.6991093 37.7146838,16.5517241 40,16.5517241 L41.3793103,20.6896552 L43.4156897,14.5806897 C44.6899238,15.3497761 46.2801995,15.3706232 47.5741564,14.6352035 C48.8681133,13.8997838 49.6639329,12.5228005 49.6551724,11.0344828 L49.9377586,11.1284483 C50.5430857,12.7326334 52.0785099,13.7943529 53.7931034,13.7943529 C55.5076969,13.7943529 57.0431212,12.7326334 57.6484483,11.1284483 L57.9310345,11.0344828 C57.922274,12.5228005 58.7180936,13.8997838 60.0120505,14.6352035 C61.3060074,15.3706232 62.8962831,15.3497761 64.1705172,14.5806897 L66.2068966,20.6896552 L67.5862069,16.5517241 C69.8715231,16.5517241 71.7241379,14.6991093 71.7241379,12.4137931 C71.7241379,10.1284769 69.8715231,8.27586207 67.5862069,8.27586207 L67.5862069,8.27586207 Z"/>
    <path fill="#F7A468" d="M57.9310345,30.1758621 L57.842069,28.7998276 C56.1394828,28.9103448 54.3668966,28.9655172 52.5748276,28.9655172 L49.6551724,28.9655172 L49.6551724,31.7241379 L52.5748276,31.7241379 C54.4262069,31.7241379 56.2581034,31.6662069 58.02,31.5531034 L57.9310345,30.1758621 Z"/>
    <polygon fill="#CF3B2E" points="68.966 56.552 71.724 56.552 71.724 78.621 68.966 78.621"/>
    <polygon fill="#CF3B2E" points="35.862 56.552 38.621 56.552 38.621 78.621 35.862 78.621"/>
    <path fill="#FEB784" d="M33.1034483,80 L37.2413793,80 L63.4482759,74.4827586 L68.9655172,74.4827586 L73.1034483,71.7241379 L80,71.7241379 L80,62.0689655 L73.1034483,62.0689655 L63.4482759,66.2068966 L27.5862069,68.9655172 L27.5862069,74.4827586 C27.5862069,77.5298469 30.05636,80 33.1034483,80 Z"/>
    <path fill="#FEC9A3" d="M74.4827586,80 L70.3448276,80 L44.137931,74.4827586 L38.6206897,74.4827586 L34.4827586,71.7241379 L27.5862069,71.7241379 L27.5862069,62.0689655 L34.4827586,62.0689655 L44.137931,66.2068966 L80,68.9655172 L80,74.4827586 C80,77.5298469 77.5298469,80 74.4827586,80 Z"/>
    <circle cx="46.897" cy="22.069" r="4.138" fill="#E0E0DE"/>
    <circle cx="60.69" cy="22.069" r="4.138" fill="#E0E0DE"/>
    <path fill="#7A432A" d="M60.6896552,16.5517241 C58.1808126,16.5591274 55.9935359,18.2599647 55.3682759,20.6896552 L52.217931,20.6896552 C51.5233558,17.9995769 48.9368459,16.2456204 46.1806889,16.5956982 C43.424532,16.9457761 41.3586437,19.2906647 41.3586437,22.0689655 C41.3586437,24.8472664 43.424532,27.192155 46.1806889,27.5422328 C48.9368459,27.8923106 51.5233558,26.1383541 52.217931,23.4482759 L55.3682759,23.4482759 C56.0896467,26.2180534 58.8121153,27.9738593 61.6328346,27.4884874 C64.453554,27.0031155 66.4325585,24.4383093 66.1866392,21.586719 C65.9407198,18.7351287 63.5518259,16.5470072 60.6896552,16.5517241 L60.6896552,16.5517241 Z M46.8965517,24.8275862 C45.3730076,24.8275862 44.137931,23.5925097 44.137931,22.0689655 C44.137931,20.5454214 45.3730076,19.3103448 46.8965517,19.3103448 C48.4200959,19.3103448 49.6551724,20.5454214 49.6551724,22.0689655 C49.6533673,23.5917613 48.4193475,24.8257811 46.8965517,24.8275862 L46.8965517,24.8275862 Z M60.6896552,24.8275862 C59.166111,24.8275862 57.9310345,23.5925097 57.9310345,22.0689655 C57.9310345,20.5454214 59.166111,19.3103448 60.6896552,19.3103448 C62.2131993,19.3103448 63.4482759,20.5454214 63.4482759,22.0689655 C63.4464708,23.5917613 62.212451,24.8257811 60.6896552,24.8275862 Z"/>
  </g>
</svg>
