<svg xmlns="http://www.w3.org/2000/svg" width="80" height="80" viewBox="0 0 80 80">
  <g fill="none" transform="translate(0 1)">
    <path fill="#FEC9A3" d="M58.3050847,39.9505085 L58.3050847,28.4745763 L44.7457627,28.4745763 L44.7457627,39.9505085 C44.7457126,41.1790535 43.9197668,42.2540973 42.7327119,42.570678 L30.4461017,45.8474576 C26.8848696,46.7971354 24.4067797,50.0222827 24.4067797,53.7079661 L24.4067797,77.2881356 L78.6440678,77.2881356 L78.6440678,53.7079661 C78.6440678,50.0222827 76.1659779,46.7971354 72.6047458,45.8474576 L60.3181356,42.5710169 C59.1309589,42.2544038 58.3049813,41.1791795 58.3050847,39.9505085 Z"/>
    <path fill="#FEB784" d="M54.47,43.3898305 C56.1697863,43.3865734 57.8358016,42.9149589 59.2850847,42.0267797 C58.6663101,41.5145514 58.307229,40.7537863 58.3050847,39.9505085 L58.3050847,28.4745763 L44.7457627,28.4745763 L44.7457627,39.9505085 C44.7436185,40.7537863 44.3845373,41.5145514 43.7657627,42.0267797 C45.2150459,42.9149589 46.8810611,43.3865734 48.5808475,43.3898305 L54.47,43.3898305 Z"/>
    <path fill="#C7AE71" d="M72.6047458,45.8474576 L60.7966102,42.6981356 C59.8483584,47.0594252 55.9886096,50.1701479 51.5254237,50.1701479 C47.0622378,50.1701479 43.2024891,47.0594252 42.2542373,42.6981356 L30.4461017,45.8474576 C26.8848696,46.7971354 24.4067797,50.0222827 24.4067797,53.7079661 L24.4067797,77.2881356 L78.6440678,77.2881356 L78.6440678,53.7079661 C78.6440678,50.0222827 76.1659779,46.7971354 72.6047458,45.8474576 L72.6047458,45.8474576 Z"/>
    <polygon fill="#FEC9A3" points="24.407 59.661 35.254 59.661 35.254 77.288 24.407 77.288"/>
    <polygon fill="#FEB784" points="67.797 59.661 78.644 59.661 78.644 77.288 67.797 77.288"/>
    <polygon fill="#C7C7C5" points="5.424 71.864 52.881 71.864 52.881 77.288 5.424 77.288"/>
    <path fill="#E0E0DE" d="M36.8932203,77.2881356 L7.91355932,77.2881356 C6.59703589,77.2877028 5.42394012,76.4569581 4.98644068,75.2152542 C4.94407256,75.0984739 4.90953278,74.9790002 4.88305085,74.8576271 L0.0576271186,53.1423729 C0.0197725656,52.9686354 0.000455438476,52.7913723 -8.48920642e-07,52.6135593 C-0.000540235705,51.9651868 0.256785537,51.3432146 0.715254321,50.8847458 C1.17372311,50.4262771 1.79569525,50.1689513 2.4440678,50.1694907 L32.7050847,50.1694907 C34.1869404,50.1694907 35.4630359,51.2148348 35.7542373,52.6677966 L36.1762712,54.7830508 L39.9355932,73.5762712 C40.1180509,74.487846 39.8821659,75.4332023 39.2928473,76.1522037 C38.7035288,76.8712052 37.8228759,77.2881356 36.8932203,77.2881356 Z"/>
    <ellipse cx="19.008" cy="63.694" fill="#EBEBE9" rx="2.595" ry="2.834" transform="rotate(-46.296 19.008 63.694)"/>
    <polygon fill="#D6D6D4" points="70.508 77.288 59.661 77.288 58.305 59.661 71.864 59.661"/>
    <polygon fill="#95573A" points="58.722 65.085 59.244 71.864 70.926 71.864 71.447 65.085"/>
    <path fill="#EBEBE9" d="M67.7966102,40.6779661 L67.7966102,42.0338983 C63.3034461,42.0338983 59.6610169,45.6763275 59.6610169,50.1694915 L59.6610169,54.2372881 L70.5084746,54.2372881 L70.5084746,51.5254237 C70.5084746,50.0277024 71.7226176,48.8135593 73.220339,48.8135593 C74.7180603,48.8135593 75.9322034,47.5994163 75.9322034,46.1016949 L75.9322034,44.7457627 C75.9322034,42.4991807 77.753418,40.6779661 80,40.6779661 L80,28.4745763 C73.2602539,28.4745763 67.7966102,33.93822 67.7966102,40.6779661 L67.7966102,40.6779661 Z"/>
    <path fill="#FEC9A3" d="M67.7966102,65.0847458 L78.6440678,65.0847458 L78.6440678,77.2881356 L67.7966102,77.2881356 C66.2988888,77.2881356 65.0847458,76.0739925 65.0847458,74.5762712 L65.0847458,67.7966102 C65.0847458,66.2988888 66.2988888,65.0847458 67.7966102,65.0847458 Z"/>
    <path fill="#FEB784" d="M65.0847458 14.9152542L63.7288136 14.9152542 63.7288136 23.0508475 65.0847458 23.0508475C67.3313278 23.0508475 69.1525424 21.2296329 69.1525424 18.9830508 69.1525424 16.7364688 67.3313278 14.9152542 65.0847458 14.9152542zM38.0338983 14.9152542L37.9661017 14.9152542C35.7195197 14.9152542 33.8983051 16.7364688 33.8983051 18.9830508 33.8983051 21.2296329 35.7195197 23.0508475 37.9661017 23.0508475L39.3220339 23.0508475 39.3220339 14.9152542 38.0338983 14.9152542z"/>
    <path fill="#FEC9A3" d="M51.5254237,37.9661017 C44.7856776,37.9661017 39.3220339,32.502458 39.3220339,25.7627119 L39.3220339,13.559322 C39.3220339,6.81957593 44.7856776,1.3559322 51.5254237,1.3559322 C58.2651698,1.3559322 63.7288136,6.81957593 63.7288136,13.559322 L63.7288136,25.7627119 C63.7288136,32.502458 58.2651698,37.9661017 51.5254237,37.9661017 Z"/>
    <path fill="#FEC093" d="M51.5254237,1.3559322 C50.6126159,1.35853801 49.7029783,1.46348744 48.8135593,1.66881356 C54.3638749,2.93274739 58.302542,7.86691256 58.3050847,13.559322 L58.3050847,25.7627119 C58.302542,31.4551213 54.3638749,36.3892865 48.8135593,37.6532203 C52.4339612,38.4903771 56.2384613,37.628035 59.1440737,35.3116676 C62.049686,32.9953003 63.7381444,29.4786308 63.728852,25.7627119 L63.728852,13.559322 C63.728852,6.81957593 58.2651698,1.3559322 51.5254237,1.3559322 L51.5254237,1.3559322 Z"/>
    <circle cx="45.424" cy="16.949" r="2.034" fill="#7A432A"/>
    <circle cx="57.627" cy="16.949" r="2.034" fill="#7A432A"/>
    <path fill="#F7A468" d="M48.8135593,24.4067797 L54.2372881,24.4067797 L54.2372881,21.6949153 L50.6949153,21.6949153 L52.8122034,15.3442373 L50.239322,14.4862712 L47.5274576,22.6218644 C47.3895622,23.0353366 47.4588362,23.4898904 47.7136372,23.8435158 C47.9684382,24.1971411 48.3776988,24.4067797 48.8135593,24.4067797 L48.8135593,24.4067797 Z"/>
    <path fill="#7A432A" d="M39.3220339,14.9152542 L43.940678,21.8432203 C44.4436346,22.5976803 45.2903799,23.0508509 46.1971186,23.0508475 L56.8537288,23.0508475 C57.7604676,23.0508509 58.6072128,22.5976803 59.1101695,21.8432203 L63.7288136,14.9152542 L63.7288136,31.4191525 C63.7288136,33.8747421 62.7533318,36.2297563 61.0169492,37.9661017 C59.2806038,39.7024844 56.9255895,40.6779661 54.47,40.6779661 L48.5808475,40.6779661 C46.1252579,40.6779661 43.7702437,39.7024844 42.0338983,37.9661017 C40.2975156,36.2297563 39.3220339,33.8747421 39.3220339,31.4191525 L39.3220339,14.9152542 Z"/>
    <path fill="#743B20" d="M59.1101695,21.8432203 C58.8979765,22.1517266 58.6237779,22.4125905 58.3050847,22.6091525 L58.3050847,31.4191525 C58.3050847,36.5326541 54.1597727,40.6779661 49.0462712,40.6779661 L54.47,40.6779661 C59.5835015,40.6779661 63.7288136,36.5326541 63.7288136,31.4191525 L63.7288136,14.9152542 L59.1101695,21.8432203 Z"/>
    <path fill="#FEC9A3" d="M55.2,25.8210169 C53.6198571,26.2972567 51.9781449,26.5379795 50.3277966,26.5354237 L47.4576271,26.5354237 L47.4576271,29.2473075 L50.3277966,29.2473075 C52.2445719,29.2499878 54.1512779,28.9701441 55.9864407,28.4167797 L55.2,25.8210169 Z"/>
    <path fill="#FEC093" d="M43.3898305,10.8474576 L63.4159322,10.8474576 C62.6539422,7.51468338 60.5295428,4.65405421 57.559322,2.96118644 C56.9165932,2.79811315 56.2563093,2.71438232 55.5932203,2.71186441 L45.9522034,2.71186441 C43.283065,4.08756873 41.2134421,6.39730524 40.1377966,9.20084746 C40.8995694,10.2341128 42.1061136,10.8450252 43.3898305,10.8474576 L43.3898305,10.8474576 Z"/>
    <path fill="#95573A" d="M39.3220339 14.9152542L39.3220339 8.13559322C39.3220339 3.64237288 42.3574576 1.3559322 46.1016949 1.3559322L45.8630508 2.21491525C44.5338983 7 42.2944068 11.3484746 39.3220339 14.9152542zM63.7288136 14.9152542L63.7288136 6.77966102C63.7288136 2.28644068 60.6933898 1.3559322 56.9491525 1.3559322L57.1877966 2.21474576C58.5169492 7 60.7564407 11.3484746 63.7288136 14.9152542z"/>
    <path fill="#7A432A" d="M63.7288136,8.13559322 L43.3898305,8.13559322 C41.1432485,8.13559322 39.3220339,6.31437864 39.3220339,4.06779661 L39.3220339,-7.10542736e-15 L56.9491525,-7.10542736e-15 C58.7472304,-7.10542736e-15 60.4716637,0.714283663 61.7430968,1.98571674 C63.0145299,3.25714981 63.7288136,4.98158312 63.7288136,6.77966102 L63.7288136,8.13559322 Z"/>
    <path fill="#743B20" d="M56.9491525,0 L51.5254237,0 C55.2697271,0 58.3050847,3.03535763 58.3050847,6.77966102 L58.3050847,8.13559322 L63.7288136,8.13559322 L63.7288136,6.77966102 C63.7288136,3.03535763 60.6934559,0 56.9491525,0 L56.9491525,0 Z"/>
    <polygon fill="#C7C7C5" points="71.656 62.373 71.864 59.661 58.305 59.661 58.514 62.373"/>
    <polygon fill="#7A432A" points="56.949 54.237 73.22 54.237 73.22 59.661 56.949 59.661"/>
    <polygon fill="#743B20" points="67.797 54.237 73.22 54.237 73.22 59.661 67.797 59.661"/>
    <path fill="#D4BD81" d="M63.329661,43.3728814 C61.0392172,44.8751061 59.6599506,47.4303655 59.6610163,50.1694915 L59.6610163,54.2372881 L70.5084746,54.2372881 L70.5084746,51.5254237 C70.5084746,50.0277024 71.7226176,48.8135593 73.220339,48.8135593 C74.2128497,48.8111563 75.1240361,48.2644444 75.5932203,47.3898305 C74.7165177,46.6715116 73.6984728,46.1457133 72.6052542,45.8466102 L63.329661,43.3728814 Z"/>
    <path fill="#D6D6D4" d="M36.8932203,77.2881356 L7.91355932,77.2881356 C6.59703589,77.2877028 5.42394012,76.4569581 4.98644068,75.2152542 C16.0508475,71.7322034 28.2118644,65.5898305 36.1762712,54.7830508 L39.9355932,73.5762712 C40.1180509,74.487846 39.8821659,75.4332023 39.2928473,76.1522037 C38.7035288,76.8712052 37.8228759,77.2881356 36.8932203,77.2881356 L36.8932203,77.2881356 Z"/>
  </g>
</svg>
