<svg xmlns="http://www.w3.org/2000/svg" width="80" height="80" viewBox="0 0 80 80">
  <g fill="none">
    <path fill="#D6D6D4" d="M80,11.0344828 L80,68.9655172 L5.51724138,68.9655172 C2.4701531,68.9655172 0,66.4953641 0,63.4482759 L0,11.0344828 L80,11.0344828 Z"/>
    <path fill="#EBEBE9" d="M5.51724138,57.9310345 C2.4701531,57.9310345 0,60.4011876 0,63.4482759 L0,5.51724138 C0,2.4701531 2.4701531,0 5.51724138,0 L5.51724138,57.9310345 Z"/>
    <polygon fill="#C7C7C5" points="80 11.034 80 68.966 6.948 68.966 74.195 11.034"/>
    <g fill="#B0B0AE" transform="translate(9.655 15.172)">
      <path d="M5.51724138 0C2.4701531 0 0 2.4701531 0 5.51724138 0 8.56432965 2.4701531 11.0344828 5.51724138 11.0344828 8.56432965 11.0344828 11.0344828 8.56432965 11.0344828 5.51724138 11.0310621 2.47157109 8.56291167.00342061003 5.51724138 0zM5.51724138 8.27586207C3.99369724 8.27586207 2.75862069 7.04078552 2.75862069 5.51724138 2.75862069 3.99369724 3.99369724 2.75862069 5.51724138 2.75862069 7.04078552 2.75862069 8.27586207 3.99369724 8.27586207 5.51724138 8.27405696 7.04003719 7.04003719 8.27405696 5.51724138 8.27586207L5.51724138 8.27586207zM5.51724138 30.3448276C2.4701531 30.3448276 0 32.8149807 0 35.862069 0 38.9091572 2.4701531 41.3793103 5.51724138 41.3793103 8.56432965 41.3793103 11.0344828 38.9091572 11.0344828 35.862069 11.0310621 32.8163987 8.56291167 30.3482482 5.51724138 30.3448276L5.51724138 30.3448276zM5.51724138 38.6206897C3.99369724 38.6206897 2.75862069 37.3856131 2.75862069 35.862069 2.75862069 34.3385248 3.99369724 33.1034483 5.51724138 33.1034483 7.04078552 33.1034483 8.27586207 34.3385248 8.27586207 35.862069 8.27405696 37.3848648 7.04003719 38.6188845 5.51724138 38.6206897L5.51724138 38.6206897z"/>
      <polygon points="2.355 25.803 5.517 22.64 8.68 25.803 10.631 23.852 7.468 20.69 10.631 17.527 8.68 15.576 5.517 18.739 2.355 15.576 .404 17.527 3.567 20.69 .404 23.852"/>
      <path d="M20.217931 10.9482759C19.9529801 10.6995003 19.675492 10.4644237 19.3865517 10.2439655L21.2894828 9.87534483 20.7648276 7.16706897 14.9101724 8.3012069C14.5384338 8.37320763 14.2126414 8.59486316 14.009182 8.9142031 13.8057226 9.23354305 13.7424901 9.62248202 13.8343103 9.98982759L15.2136207 15.507069 17.8898276 14.8381034 17.1986207 12.0731034C17.6005179 12.3345901 17.9786926 12.6308414 18.3287931 12.9584483 20.4982759 14.997069 21.197931 17.9686207 20.4084483 21.7901724L23.11 22.3482759C24.3515517 16.3387931 22.2225862 12.8317241 20.217931 10.9482759L20.217931 10.9482759zM60.6896552 9.65517241C57.6425669 9.65517241 55.1724138 12.1253255 55.1724138 15.1724138 55.1724138 18.2195021 57.6425669 20.6896552 60.6896552 20.6896552 63.7367434 20.6896552 66.2068966 18.2195021 66.2068966 15.1724138 66.2034759 12.1267435 63.7353255 9.65859302 60.6896552 9.65517241L60.6896552 9.65517241zM60.6896552 17.9310345C59.166111 17.9310345 57.9310345 16.6959579 57.9310345 15.1724138 57.9310345 13.6488697 59.166111 12.4137931 60.6896552 12.4137931 62.2131993 12.4137931 63.4482759 13.6488697 63.4482759 15.1724138 63.4464708 16.6952096 62.212451 17.9292294 60.6896552 17.9310345L60.6896552 17.9310345z"/>
    </g>
    <rect width="24.828" height="31.724" x="37.241" y="1.379" fill="#FEC9A3" rx="12.414"/>
    <polygon fill="#FEC9A3" points="57.931 40 57.931 31.724 41.379 31.724 41.379 40 49.655 71.724"/>
    <path fill="#FEB784" d="M53.0344828,40 C54.8368791,39.9992171 56.5773842,39.3424828 57.9310345,38.1524138 L57.9310345,27.5862069 L49.6551724,27.5862069 L41.3793103,27.5862069 L41.3793103,38.1524138 C42.7329358,39.342524 44.4734571,39.9992644 46.2758621,40 L53.0344828,40 Z"/>
    <path fill="#374559" d="M74.7758621,44.2112069 L63.4482759,41.3793103 L57.9310345,40 L49.6551724,42.7586207 L41.3793103,40 L35.862069,41.3793103 L24.5344828,44.2112069 C21.4642492,44.9786455 19.3103448,47.7372013 19.3103448,50.9018966 L19.3103448,75.862069 L80,75.862069 L80,50.9018966 C80,47.7372013 77.8460956,44.9786455 74.7758621,44.2112069 L74.7758621,44.2112069 Z"/>
    <polygon fill="#BFBFBD" points="41.379 40 49.655 71.724 57.931 39.999 49.655 42.759"/>
    <polygon fill="#95573A" points="52.414 61.149 52.414 44.966 49.655 42.759 46.897 44.966 46.897 61.149 49.655 71.724"/>
    <polygon fill="#4C5D72" points="38.621 52.414 37.241 57.931 49.655 71.724 41.379 40 35.862 41.379 31.724 51.034"/>
    <polygon fill="#4C5D72" points="60.69 52.414 62.069 57.931 49.655 71.724 57.931 40 63.448 41.379 67.586 51.034"/>
    <polygon fill="#22303D" points="30.345 56.552 33.103 56.552 33.103 73.103 30.345 73.103"/>
    <polygon fill="#22303D" points="66.207 56.552 68.966 56.552 68.966 73.103 66.207 73.103"/>
    <polygon fill="#FEC9A3" points="71.724 59.31 80 59.31 80 71.724 73.103 71.724 64.8 72.91 63.448 63.448"/>
    <polygon fill="#E0E0DE" points="64.8 72.91 58.79 74.116 57.078 63.847 63.448 63.448"/>
    <path fill="#374559" d="M58.7896552,74.1155172 L31.7241379,80 L23.4482759,80 C21.1631962,79.9994289 19.3109159,78.1471486 19.3103448,75.862069 L19.3103448,66.2068966 L57.0775862,63.8465517 L58.7896552,74.1155172 Z"/>
    <path fill="#FEB784" d="M62.0689655 13.7922414L63.4482759 13.7922414C65.7335921 13.7922414 67.5862069 15.6448562 67.5862069 17.9301724 67.5862069 20.2154886 65.7335921 22.0681034 63.4482759 22.0681034L62.0689655 22.0681034 62.0689655 13.7922414zM37.2413793 13.7931034L35.862069 13.7931034C33.5795432 13.7998261 31.7308606 15.6485087 31.7241379 17.9310345 31.7308606 20.2135603 33.5795432 22.0622428 35.862069 22.0689655L37.2413793 22.0689655 37.2413793 13.7931034z"/>
    <circle cx="43.448" cy="15.862" r="2.069" fill="#7A432A"/>
    <circle cx="55.862" cy="15.862" r="2.069" fill="#7A432A"/>
    <path fill="#F7A468" d="M52.4137931,23.4482759 L46.8965517,23.4482759 C46.4531881,23.4482759 46.0368631,23.2351058 45.7776372,22.8754209 C45.5184113,22.515736 45.4478897,22.053367 45.5881034,21.6327586 L48.3467241,13.3568966 L50.9636207,14.2291379 L48.8103448,20.6896552 L52.4137931,20.6896552 L52.4137931,23.4482759 Z"/>
    <path fill="#7A432A" d="M61.1465517 6.89655172L56.4862069 6.89655172C57.6926632 10.10934 59.3784195 13.1210309 61.4862069 15.8293103 61.6758621 16.0741379 61.8706897 16.3137931 62.0689655 16.5517241L62.0689655 11.0344828C62.0755947 9.60346291 61.7603472 8.18926859 61.1465517 6.89655172L61.1465517 6.89655172zM37.2413793 16.5517241L37.2413793 7.06637931C37.2413174 5.69902762 37.8712534 4.40790676 38.9490049 3.56641859 40.0267564 2.72493042 41.4321077 2.42693716 42.7586207 2.75862069L42.7586207 6.89655172C42.7586207 6.89655172 40.265 12.9234483 37.2413793 16.5517241z"/>
    <path fill="#7A432A" d="M53.0344828,37.2413793 L46.2758621,37.2413793 C43.3051107,37.2413793 40.6202166,35.4709046 39.45,32.7403448 C37.9926625,29.3394262 37.2413793,25.6779418 37.2413793,21.977931 L37.2413793,13.7931034 L39.6243103,21.3177586 C40.068712,22.2064938 40.8733388,22.8616193 41.8337061,23.1166442 C42.7940733,23.3716691 43.8177135,23.2020386 44.6444828,22.6508621 C45.2135512,22.2715413 45.8821316,22.0690775 46.5660345,22.0689655 L52.7441379,22.0689655 C53.4280996,22.0690435 54.0967447,22.2715087 54.6658621,22.6508621 L54.9072414,22.8124138 C55.695508,23.3378557 56.6645648,23.5175669 57.5888211,23.3097119 C58.5130773,23.1018568 59.3118937,22.5245703 59.7993103,21.7122414 L62.0689655,13.7931034 L62.0689655,21.9782759 C62.0689655,25.6783656 61.3174511,29.3399062 59.86,32.7408621 C58.6896019,35.4710432 56.0049576,37.2413793 53.0344828,37.2413793 L53.0344828,37.2413793 Z"/>
    <path fill="#FEC9A3" d="M48.0846552,28.9655172 L45.5172414,28.9655172 L45.5172414,26.2068966 L48.0846552,26.2068966 C49.9727586,26.2068966 51.8,25.7725862 53.0981034,25.0153448 L54.4881034,27.3982759 C52.7555172,28.4086207 50.4813793,28.9655172 48.0846552,28.9655172 Z"/>
    <path fill="#7A432A" d="M62.0689731,6.89655172 L42.7586207,6.89655172 L42.7586207,2.75862069 C44.5251907,0.992414477 46.9209155,0.000139115464 49.4189655,-7.10542736e-15 L55.1724138,-7.10542736e-15 C57.001385,0.000182232066 58.7553406,0.72706906 60.0482759,2.02068966 C60.1465517,2.11896552 60.2413793,2.21896552 60.3327586,2.32413793 C61.4534526,3.58329422 62.0714762,5.21089955 62.0689731,6.89655172 L62.0689731,6.89655172 Z"/>
    <polygon fill="#8C5137" points="54.279 0 48.559 6.897 44.976 6.897 50.695 0"/>
    <path fill="#8C5137" d="M60.3327586,2.32413793 L55.8224138,6.89655172 L51.9465517,6.89655172 L58.1051724,0.655172414 C58.8272308,0.994096791 59.4847537,1.45617146 60.0482759,2.02068966 C60.1465517,2.11896552 60.2413793,2.21896552 60.3327586,2.32413793 L60.3327586,2.32413793 Z"/>
    <polygon fill="#E0E0DE" points="57.931 39.999 49.655 42.759 55.907 47.76"/>
    <polygon fill="#E0E0DE" points="49.655 42.759 41.379 40 43.404 47.76"/>
    <polygon fill="#FEC9A3" points="27.586 59.31 19.31 59.31 19.31 71.724 26.207 71.724 34.511 72.91 35.862 63.448"/>
    <path fill="#3D4D63" d="M80,66.2068966 L80,75.862069 C79.9994289,78.1471486 78.1471486,79.9994289 75.862069,80 L67.5862069,80 L41.4896552,74.3258621 L42.237931,63.8465517 L80,66.2068966 Z"/>
    <polygon fill="#22303D" points="46.897 70.345 49.655 70.345 49.655 73.103 46.897 73.103"/>
    <polygon fill="#22303D" points="52.414 70.345 55.172 70.345 55.172 73.103 52.414 73.103"/>
    <polygon fill="#E0E0DE" points="41.49 74.326 34.51 72.91 35.862 63.448 42.238 63.847"/>
  </g>
</svg>
