<svg xmlns="http://www.w3.org/2000/svg" width="80" height="80" viewBox="0 0 80 80">
  <g fill="none">
    <circle cx="40" cy="40" r="40" fill="#C00"/>
    <g fill="#FFF" transform="translate(14.957 13.757)">
      <path d="M5.453125,49.21875 L29.859375,49.21875 C29.859375,49.21875 24.453125,36.921875 25.828125,25.640625 C27.203125,14.359375 36.109375,9.21875 41.15625,8.671875 C46.203125,8.125 48.953125,11.234375 48.953125,11.234375 L50.046875,9.578125 C50.046875,9.578125 42.796875,2.234375 33.625,3.0625 C24.453125,3.890625 18.125,9.9375 14.171875,17.28125 C10.234375,24.625 7.9375,29.765625 6.375,37.46875 C4.8125,45.1875 5.453125,49.21875 5.453125,49.21875 Z"/>
      <polygon points=".594 36.922 5.359 37.281 4.531 42.047 .031 41.5"/>
      <polygon points="8.109 26.828 9.391 23.25 5.172 21.594 3.797 25.453"/>
      <polygon points="14.078 14.547 16.563 11.609 13.359 9.5 10.781 12.344"/>
      <polygon points="20.594 3.172 22.797 5.828 25.828 4.078 23.625 1.594"/>
      <polygon points="31.328 .141 31.875 2.797 35.641 2.703 35.266 .313"/>
      <polygon points="44.078 2.984 43.984 4.641 46.547 6.016 47.094 5.188"/>
      <polygon points="43.531 10.047 43.531 11.422 46.016 11.703 46.016 10.609"/>
      <polygon points="35.641 11.234 36.828 13.438 38.578 12.063 38.219 10.594"/>
      <polygon points="31.875 14.078 33.703 16.828 32.609 18.75 29.953 15.813"/>
      <polygon points="28.203 21.703 27.016 24.094 30.141 26.75 30.875 23.719"/>
      <polygon points="26.922 30.047 26.734 33.25 30.594 34.906 30.406 31.875"/>
      <polygon points="28.031 41.422 28.953 44.719 33.813 45 32.063 41.422"/>
    </g>
  </g>
</svg>
