<svg xmlns="http://www.w3.org/2000/svg" width="80" height="80" viewBox="0 0 80 80">
  <g fill="none">
    <path fill="#346DA6" d="M40,80 C62.0913911,80 80,62.0913911 80,40 C80,17.9086089 62.0913911,0 40,0 C17.9086089,0 0,17.9086089 0,40 C0,62.0913911 17.9086089,80 40,80 Z"/>
    <path fill="#FFF" d="M18.7679248,28.5786731 C22.8544794,20.9730144 31.0499106,16 40.4997277,16 C46.6170376,16 52.2062421,18.6011353 56.4996833,22.2724955 C55.2730636,22.0356335 53.9337451,22.3018316 52.5851713,23.0716329 C49.427973,24.8785202 48.3957178,29.9927824 52.4893501,32.5613221 C55.0465772,34.155794 55.9563338,38.1476784 55.8708569,40.5858354 C55.7864691,43.027795 49.9266785,54.2423388 49.9266785,54.2423388 L44.2215087,34.6963391 C44.2215087,34.6963391 44.0255108,33.3251475 44.0255108,32.9296533 C44.0255108,32.4309393 44.1904756,31.8203135 44.4986277,31.4715398 C44.7109588,31.2395671 45.0348995,30.7522617 45.4181842,30.7522617 L48.1218653,30.7522617 L48.1218653,28.5792164 L33.4220286,28.5792164 L33.4220286,30.7522617 L33.878268,30.7522617 C34.3595515,30.7522617 34.8299463,31.3981995 35.284008,31.8621447 C35.8208242,32.4151847 36.4970167,34.4958757 37.3147631,36.6542529 L39.4522283,43.680252 L34.845735,54.3020977 L29.7917134,33.0730742 C29.7917134,33.0730742 29.941434,31.6182204 30.246864,31.3710364 C30.4455839,31.2015389 30.7521028,30.7522617 31.1054433,30.7522617 L31.2442751,30.7522617 L31.2442751,28.5792164 L18.7679248,28.5792164 L18.7679248,28.5786731 Z M21.6496373,32.2679609 C21.6496373,32.2679609 20.4605838,30.7517186 19.1985756,30.7517186 L17.9180565,30.7517186 C16.6821813,33.4680252 16,37.1160251 16,40.4592554 C16,50.5171959 22.1815535,59.1436427 30.9878447,62.8198922 L21.6496373,32.2679609 L21.6496373,32.2679609 Z M61.5831046,28.3847289 C62.0485994,30.5887401 61.9527782,33.2626724 61.044655,36.2038893 C58.6758036,43.8568118 52.8116576,57.6235975 50.5413495,62.8676992 C59.0628993,59.071389 65,50.5954255 65,40.741208 C64.9994555,36.2283361 63.7505138,32.0039359 61.5831046,28.3847289 L61.5831046,28.3847289 Z M40.9951668,49.0487604 L34.7308585,64.3165772 C36.5808603,64.7587919 38.5114388,65 40.4997277,65 C42.5582493,65 44.5552494,64.7452104 46.4651393,64.2720298 L40.9951668,49.0487604 L40.9951668,49.0487604 Z"/>
  </g>
</svg>
