<svg xmlns="http://www.w3.org/2000/svg" width="80" height="80" viewBox="0 0 80 80">
  <g fill="none" fill-rule="evenodd">
    <circle cx="40" cy="40" r="40" fill="#0FCE8D" fill-rule="nonzero"/>
    <path fill="#FFF" fill-rule="nonzero" d="M45.229,40.442 C45.203,40.43 42.677,39.338 43.142,37.424 C43.634,35.4 42.862,32.096 40.754,30.289 C39.56,29.266 37.494,28.33 34.323,29.44 L30.51,25.625 C30.491,25.575 30.482,25.523 30.455,25.476 C30.013,24.678 29.554,23.898 29.094,23.133 L42.82,9.408 C43.46,8.767 43.812,7.916 43.812,7.011 C43.812,6.105 43.458,5.255 42.819,4.616 L39.433,1.228 C38.152,-0.051 35.919,-0.051 34.64,1.228 L30.929,4.94 C30.928,4.94 30.928,4.94 30.926,4.941 C30.926,4.942 30.926,4.943 30.924,4.943 L22.183,13.685 C17.953,8.832 13.453,5.242 8.434,2.742 C4.962,1.017 3.635,1.416 3.226,1.669 C3.103,1.745 3,1.848 2.925,1.97 C2.672,2.38 2.272,3.709 4,7.179 C6.377,11.955 10.16,16.685 14.945,20.923 L2.963,32.905 C2.885,32.981 2.83,33.075 2.785,33.175 C2.774,33.198 2.764,33.221 2.754,33.245 C2.747,33.266 2.734,33.285 2.728,33.307 L0.053,42.865 C-0.036,43.184 0.053,43.527 0.288,43.761 C0.462,43.936 0.696,44.031 0.937,44.031 C1.019,44.031 1.102,44.02 1.184,43.997 L10.742,41.321 C10.763,41.314 10.782,41.301 10.804,41.296 C10.828,41.286 10.85,41.276 10.875,41.265 C10.974,41.22 11.066,41.163 11.144,41.087 L24.387,27.843 C25.16,28.319 25.764,28.664 26.62,29.14 L30.692,33.214 C30.535,34.29 30.511,36.734 32.607,39.775 C34.345,42.302 37.217,43.4 40.074,43.4 C41.934,43.4 43.786,42.935 45.314,42.093 C45.622,41.923 45.807,41.593 45.788,41.241 C45.77,40.889 45.553,40.579 45.229,40.442 Z M31.69,31.614 L28.475,28.397 L29.58,27.292 L32.796,30.51 L31.69,31.614 Z M10.494,39.138 L8.352,36.995 L35.017,10.33 L37.16,12.474 L10.494,39.138 Z M4.91,33.554 L31.575,6.889 L33.719,9.033 L7.054,35.697 L4.91,33.554 Z M35.938,2.526 C36.525,1.94 37.547,1.94 38.136,2.526 L41.522,5.914 C41.815,6.206 41.976,6.596 41.976,7.011 C41.976,7.426 41.815,7.817 41.521,8.11 L38.457,11.175 L35.666,8.383 L35.666,8.383 C35.665,8.383 35.665,8.383 35.665,8.382 L32.873,5.59 L35.938,2.526 Z M5.644,6.361 C4.848,4.764 4.611,3.806 4.55,3.295 C5.061,3.356 6.018,3.592 7.616,4.387 C12.448,6.792 16.79,10.269 20.882,14.986 L16.245,19.623 C11.594,15.523 7.931,10.955 5.644,6.361 Z M4.074,35.313 L6.406,37.645 L6.406,37.645 L6.406,37.645 L8.736,39.975 L2.26,41.787 L4.074,35.313 Z M27.751,24.477 C28.007,24.907 28.264,25.326 28.514,25.765 L27.019,27.259 C26.557,26.999 26.159,26.768 25.723,26.506 L27.751,24.477 Z M34.117,38.731 C32.224,35.981 32.408,33.977 32.522,33.379 L34.601,31.3 C36.648,30.495 38.318,30.618 39.559,31.684 C41.206,33.095 41.668,35.718 41.358,36.991 C40.92,38.802 41.842,40.214 42.917,41.132 C39.871,42.111 36.067,41.563 34.117,38.731 Z" transform="translate(17 18)"/>
  </g>
</svg>
