<svg xmlns="http://www.w3.org/2000/svg" width="80" height="80" viewBox="0 0 80 80">
  <g fill="none" fill-rule="evenodd">
    <circle cx="40" cy="40" r="40" fill="#46B4DB" fill-rule="nonzero"/>
    <g fill="#FFF" fill-rule="nonzero" transform="translate(12.11 15.087)">
      <circle cx="27.95" cy="24.814" r="4.983"/>
      <path d="M52.942928,19.8511166 C51.2158809,18.4218362 48.7940447,17.1315136 45.8957816,16.1389578 C45.3200993,15.9404467 44.7245658,15.7419355 44.1091811,15.5831266 C44.2084367,15.1662531 44.3076923,14.7493797 44.3870968,14.3523573 C45.7766749,7.6426799 44.7841191,2.42183623 41.8263027,0.714640199 C40.3771712,-0.1191067 38.3920596,-0.1191067 36.1091811,0.714640199 C34.0049628,1.48883375 31.6823821,2.95781638 29.3796526,4.96277916 C28.9230769,5.35980149 28.4466501,5.79652605 27.9900744,6.23325062 C27.6724566,5.93548387 27.3746898,5.65756824 27.057072,5.37965261 C21.9354839,0.833746898 16.9131514,-0.933002481 13.955335,0.774193548 C12.5062035,1.60794045 11.5136476,3.33498759 11.0967742,5.7369727 C10.719603,7.94044665 10.8387097,10.6997519 11.4143921,13.6972705 C11.5334988,14.292804 11.6724566,14.9280397 11.8312655,15.5434243 C11.1166253,15.7419355 10.4218362,15.9602978 9.76674938,16.1985112 C3.71215881,18.3027295 0.0992555831,21.5186104 0.0992555831,24.8138958 C0.0992555831,26.5210918 1.11166253,28.3076923 3.01736973,29.9354839 C4.80397022,31.4640199 7.32506203,32.8138958 10.3027295,33.8263027 C10.7990074,33.9851117 11.2952854,34.1439206 11.8114144,34.3027295 C11.6526055,34.9776675 11.4937965,35.6327543 11.3746898,36.2878412 C10.1836228,42.5806452 11.1761787,47.325062 14.0148883,48.9727047 C14.7692308,49.4094293 15.662531,49.6277916 16.674938,49.6277916 C17.6476427,49.6277916 18.7394541,49.4292804 19.8908189,49.0124069 C22.1141439,48.2382134 24.5359801,46.7295285 26.898263,44.6650124 C27.2754342,44.3275434 27.6724566,43.9702233 28.0496278,43.5930521 C28.5459057,44.0694789 29.0620347,44.5260546 29.5583127,44.9627792 C33.1315136,48.0397022 36.5459057,49.6674938 39.2456576,49.6674938 C40.2183623,49.6674938 41.1116625,49.4491315 41.8461538,49.0124069 C43.3349876,48.1588089 44.3672457,46.3920596 44.8238213,43.9305211 C45.2406948,41.6079404 45.1414392,38.7493797 44.5459057,35.6724566 C44.4466501,35.1761787 44.3473945,34.6799007 44.2084367,34.1836228 C44.5657568,34.0843672 44.9032258,33.9652605 45.2406948,33.866005 C51.751861,31.7220844 55.7819298,28.248139 55.7819298,24.8337469 C55.8014888,23.146402 54.808933,21.4193548 52.942928,19.8511166 Z M36.9230769,2.95781638 C38.5111663,2.382134 39.82134,2.32258065 40.6352357,2.77915633 C42.2233251,3.69230769 43.3548387,7.56327543 42.044665,13.8759305 C41.9652605,14.2332506 41.8858561,14.6104218 41.7866005,14.9677419 C39.4640199,14.4317618 36.9627792,14.0347395 34.3225806,13.7965261 C32.7940447,11.6129032 31.2059553,9.64764268 29.617866,7.94044665 C30.0347395,7.5235732 30.471464,7.14640199 30.8883375,6.76923077 C33.0124069,4.96277916 35.0967742,3.63275434 36.9230769,2.95781638 Z M35.7320099,29.3598015 C34.8585608,30.8684864 33.9652605,32.3176179 33.0719603,33.6674938 C31.4243176,33.7866005 29.7171216,33.8461538 27.9702233,33.8461538 C26.2233251,33.8461538 24.5359801,33.7866005 22.9280397,33.6873449 C21.9751861,32.2977667 21.0620347,30.8486352 20.2084367,29.3796526 C19.3548387,27.8908189 18.560794,26.382134 17.8263027,24.8933002 C18.5409429,23.3846154 19.3349876,21.8759305 20.1885856,20.4069479 L20.1885856,20.4069479 C21.0421836,18.9181141 21.955335,17.4689826 22.8883375,16.0992556 C24.5558313,15.9801489 26.2431762,15.9007444 27.9503722,15.9007444 C29.6774194,15.9007444 31.3647643,15.9602978 33.0322581,16.0992556 C33.9454094,17.4689826 34.8585608,18.898263 35.7121588,20.3870968 C36.5856079,21.9156328 37.3995037,23.4044665 38.1141439,24.853598 C37.3995037,26.3424318 36.6054591,27.8511166 35.7320099,29.3598015 Z M39.4044665,27.5930521 C40.1588089,29.3002481 40.7741935,30.9280397 41.2704715,32.4962779 C39.662531,32.8734491 37.9156328,33.1712159 36.0694789,33.3895782 C36.6451613,32.4764268 37.2208437,31.5235732 37.7766749,30.5508685 C38.3722084,29.5583127 38.9081886,28.5657568 39.4044665,27.5930521 Z M28.0496278,40.17866 C26.9181141,38.9677419 25.7866005,37.617866 24.6947891,36.1687345 C25.7468983,36.2084367 26.8387097,36.2282878 27.9503722,36.2282878 C29.0818859,36.2282878 30.2133995,36.2084367 31.325062,36.1488834 C30.2332506,37.617866 29.1414392,38.9677419 28.0496278,40.17866 Z M19.8908189,33.4094293 C18.0645161,33.2109181 16.337469,32.9330025 14.7692308,32.5756824 C15.2655087,30.9875931 15.8610422,29.3399504 16.5756824,27.6724566 C17.0719603,28.6253102 17.6079404,29.5980149 18.1637717,30.5508685 C18.6997519,31.5434243 19.2754342,32.4962779 19.8908189,33.4094293 Z M18.1439206,19.1960298 C17.5880893,20.1488834 17.0719603,21.1215881 16.5558313,22.0744417 C15.8610422,20.426799 15.2655087,18.8188586 14.7890819,17.2506203 C16.3771712,16.8933002 18.0843672,16.5955335 19.8511166,16.3771712 C19.2555831,17.3101737 18.6799007,18.2431762 18.1439206,19.1960298 Z M27.9900744,9.64764268 C29.0818859,10.8387097 30.1736973,12.1488834 31.2655087,13.5980149 C30.1736973,13.5384615 29.0620347,13.5186104 27.9503722,13.5186104 C26.8585608,13.5186104 25.7667494,13.5384615 24.6947891,13.5980149 C25.7667494,12.1687345 26.8784119,10.8387097 27.9900744,9.64764268 Z M37.7766749,19.1761787 C37.2208437,18.2233251 36.6650124,17.2903226 36.08933,16.3970223 C37.8560794,16.6153846 39.5632754,16.9131514 41.1712159,17.2903226 C40.6947891,18.8387097 40.0992556,20.4466501 39.3846154,22.0942928 C38.8883375,21.1215881 38.3523573,20.1488834 37.7766749,19.1761787 Z M13.7568238,13.2406948 C13.2208437,10.5409429 13.1215881,8.07940447 13.4590571,6.15384615 C13.7369727,4.48635236 14.3523573,3.31513648 15.1662531,2.83870968 C16.7543424,1.92555831 20.6650124,2.87841191 25.4888337,7.1662531 C25.7667494,7.4044665 26.044665,7.66253102 26.3225806,7.94044665 C24.6947891,9.68734491 23.1066998,11.6526055 21.5980149,13.7965261 C18.9776675,14.0347395 16.4764268,14.4317618 14.1538462,14.9478908 C13.9950372,14.3722084 13.8759305,13.8163772 13.7568238,13.2406948 Z M11.057072,31.5831266 C5.16129032,29.5781638 2.48138958,26.6600496 2.48138958,24.8138958 C2.48138958,23.0471464 4.98263027,20.3870968 10.560794,18.4416873 C11.1761787,18.2233251 11.8114144,18.0248139 12.4665012,17.8461538 C13.1612903,20.1290323 14.0744417,22.4913151 15.1861042,24.8933002 C14.0744417,27.3151365 13.1414392,29.7171216 12.4466501,32.0198511 C11.9702233,31.8808933 11.5136476,31.7220844 11.057072,31.5831266 Z M16.674938,47.2456576 C16.0794045,47.2456576 15.5831266,47.1265509 15.2059553,46.9081886 C13.6774194,46.0347395 12.6253102,42.5409429 13.7171216,36.7444169 C13.8362283,36.1488834 13.9751861,35.5334988 14.1141439,34.898263 C16.3771712,35.3945409 18.898263,35.7717122 21.617866,35.9900744 C23.1662531,38.1538462 24.7741935,40.1588089 26.4019851,41.9057072 C26.044665,42.2431762 25.6873449,42.5806452 25.3498759,42.8784119 C21.7369727,45.9950372 18.6401985,47.2456576 16.674938,47.2456576 Z M42.2431762,36.1290323 C43.4540943,42.2431762 42.2828784,46.0148883 40.6947891,46.9280397 C39.1662531,47.82134 35.6129032,46.9875931 31.146402,43.1364764 C30.6898263,42.7394541 30.2133995,42.3027295 29.7369727,41.866005 C31.3052109,40.1588089 32.8734491,38.1736973 34.4019851,35.9305211 C37.101737,35.6923077 39.6426799,35.2952854 41.9454094,34.7593052 C42.044665,35.235732 42.1439206,35.6923077 42.2431762,36.1290323 Z M44.5260546,31.5831266 C44.2282878,31.6823821 43.91067,31.7816377 43.5930521,31.8808933 C42.898263,29.6575682 41.9454094,27.2952854 40.7741935,24.8337469 C41.8858561,22.4317618 42.7990074,20.08933 43.4937965,17.866005 C44.0694789,18.0248139 44.6253102,18.2034739 45.1612903,18.382134 C47.7617866,19.2754342 49.9454094,20.426799 51.4540943,21.6774194 C52.7444169,22.7493797 53.4590571,23.8610422 53.4590571,24.8138958 C53.439206,26.6600496 50.6401985,29.5583127 44.5260546,31.5831266 Z"/>
    </g>
  </g>
</svg>
