<svg xmlns="http://www.w3.org/2000/svg" width="80" height="80" viewBox="0 0 80 80">
  <g fill="none">
    <circle cx="40" cy="40" r="40" fill="#F16529"/>
    <g transform="translate(17.969 18.125)">
      <polygon fill="#FFF" points="0 0 4.016 45 22.016 50 40.047 45 44.063 0"/>
      <polygon fill="#F16529" points="35.359 14.719 22.031 14.719 14.234 14.719 14.75 20.375 22.031 20.375 34.859 20.375 33.344 37.328 22.031 40.453 22.016 40.453 10.719 37.328 9.922 28.453 15.469 28.453 15.875 33.063 22.031 34.719 22.031 34.719 22.031 34.719 28.188 33.047 28.828 25.891 22.031 25.891 22.031 25.891 9.703 25.891 8.203 9.203 22.031 9.203 35.859 9.203"/>
    </g>
  </g>
</svg>
