<svg xmlns="http://www.w3.org/2000/svg" width="80" height="80" viewBox="0 0 80 80">
  <g fill="none" fill-rule="evenodd">
    <circle cx="40" cy="40" r="40" fill="#556AED" fill-rule="nonzero"/>
    <g fill="#FFF" fill-rule="nonzero" transform="translate(15 16)">
      <circle cx="25.2" cy="4.2" r="4.2"/>
      <circle cx="25.2" cy="4.2" r="4.2"/>
      <path d="M13.9103994,13.0703994 C12.7093076,14.271854 10.9027133,14.6314206 9.33312527,13.9814148 C7.76353716,13.3314089 6.74010281,11.7998563 6.74010281,10.1009996 C6.74010281,8.40214281 7.76353716,6.8705902 9.33312527,6.22058436 C10.9027133,5.57057852 12.7093076,5.93014516 13.9103994,7.13159969 C14.7008782,7.91756719 15.1453458,8.98627912 15.1453458,10.1009996 C15.1453458,11.21572 14.7008782,12.284432 13.9103994,13.0703994 L13.9103994,13.0703994 Z"/>
      <path d="M13.9103994,13.0703994 C12.7093076,14.271854 10.9027133,14.6314206 9.33312527,13.9814148 C7.76353716,13.3314089 6.74010281,11.7998563 6.74010281,10.1009996 C6.74010281,8.40214281 7.76353716,6.8705902 9.33312527,6.22058436 C10.9027133,5.57057852 12.7093076,5.93014516 13.9103994,7.13159969 C14.7008782,7.91756719 15.1453458,8.98627912 15.1453458,10.1009996 C15.1453458,11.21572 14.7008782,12.284432 13.9103994,13.0703994 L13.9103994,13.0703994 Z"/>
      <circle cx="4.2" cy="24.36" r="4.2"/>
      <circle cx="4.2" cy="24.36" r="4.2"/>
      <path d="M13.9103994,41.5883982 C12.7093076,42.7898527 10.9027133,43.1494193 9.33312527,42.4994135 C7.76353716,41.8494077 6.74010281,40.3178551 6.74010281,38.6189983 C6.74010281,36.9201416 7.76353716,35.388589 9.33312527,34.7385831 C10.9027133,34.0885773 12.7093076,34.4481439 13.9103994,35.6495984 C15.5500035,37.2896978 15.5500035,39.9482988 13.9103994,41.5883982 L13.9103994,41.5883982 Z"/>
      <path d="M13.9103994,41.5883982 C12.7093076,42.7898527 10.9027133,43.1494193 9.33312527,42.4994135 C7.76353716,41.8494077 6.74010281,40.3178551 6.74010281,38.6189983 C6.74010281,36.9201416 7.76353716,35.388589 9.33312527,34.7385831 C10.9027133,34.0885773 12.7093076,34.4481439 13.9103994,35.6495984 C15.5500035,37.2896978 15.5500035,39.9482988 13.9103994,41.5883982 L13.9103994,41.5883982 Z"/>
      <circle cx="25.2" cy="44.52" r="4.2"/>
      <circle cx="25.2" cy="44.52" r="4.2"/>
      <path d="M42.4283982,41.5883982 C41.2273064,42.7898527 39.4207121,43.1494193 37.851124,42.4994135 C36.2815359,41.8494077 35.2581016,40.3178551 35.2581016,38.6189983 C35.2581016,36.9201416 36.2815359,35.388589 37.851124,34.7385831 C39.4207121,34.0885773 41.2273064,34.4481439 42.4283982,35.6495984 C44.0680022,37.2896978 44.0680022,39.9482988 42.4283982,41.5883982 L42.4283982,41.5883982 Z"/>
      <path d="M42.4283982,41.5883982 C41.2273064,42.7898527 39.4207121,43.1494193 37.851124,42.4994135 C36.2815359,41.8494077 35.2581016,40.3178551 35.2581016,38.6189983 C35.2581016,36.9201416 36.2815359,35.388589 37.851124,34.7385831 C39.4207121,34.0885773 41.2273064,34.4481439 42.4283982,35.6495984 C44.0680022,37.2896978 44.0680022,39.9482988 42.4283982,41.5883982 L42.4283982,41.5883982 Z"/>
      <circle cx="46.2" cy="24.36" r="4.2"/>
      <circle cx="46.2" cy="24.36" r="4.2"/>
      <path d="M42.4283982,13.0703994 C41.2273064,14.271854 39.4207121,14.6314206 37.851124,13.9814148 C36.2815359,13.3314089 35.2581016,11.7998563 35.2581016,10.1009996 C35.2581016,8.40214281 36.2815359,6.8705902 37.851124,6.22058436 C39.4207121,5.57057852 41.2273064,5.93014516 42.4283982,7.13159969 C43.2188769,7.91756719 43.6633445,8.98627912 43.6633445,10.1009996 C43.6633445,11.21572 43.2188769,12.284432 42.4283982,13.0703994 L42.4283982,13.0703994 Z"/>
      <path d="M42.4283982 13.0703994C41.2273064 14.271854 39.4207121 14.6314206 37.851124 13.9814148 36.2815359 13.3314089 35.2581016 11.7998563 35.2581016 10.1009996 35.2581016 8.40214281 36.2815359 6.8705902 37.851124 6.22058436 39.4207121 5.57057852 41.2273064 5.93014516 42.4283982 7.13159969 43.2188769 7.91756719 43.6633445 8.98627912 43.6633445 10.1009996 43.6633445 11.21572 43.2188769 12.284432 42.4283982 13.0703994L42.4283982 13.0703994zM26.0399989 10.0127996L26.0399989 14.4227994C25.561356 14.3283216 25.0746768 14.2804977 24.5867989 14.2799994 24.5111017 14.2786032 24.4353854 14.2814075 24.3599989 14.2883994L24.3599989 10.0127996C24.9164149 10.1023996 25.4835829 10.1023996 26.0399989 10.0127996L26.0399989 10.0127996zM18.8999992 16.8671993C18.5192752 17.2940935 18.1868604 17.7617279 17.9087992 18.2615992L14.4647994 14.8175994C14.9164305 14.4779746 15.3179746 14.0764305 15.6575993 13.6247994L18.8999992 16.8671993zM12.4319995 23.519999C12.1659788 24.0506007 11.9764949 24.6162242 11.8691995 25.1999989L10.0127996 25.1999989C10.1023996 24.6435829 10.1023996 24.076415 10.0127996 23.519999L12.4319995 23.519999zM17.9927992 32.7599986L15.6575993 35.0951985C15.3179746 34.6435674 14.9164305 34.2420233 14.4647994 33.9023985L15.9599993 32.4071986C16.6094738 32.6404008 17.2943265 32.7597527 17.9843992 32.7599986L17.9927992 32.7599986zM26.0399989 32.7599986L26.0399989 38.7071983C25.4835829 38.6175983 24.9164149 38.6175983 24.3599989 38.7071983L24.3599989 32.7599986 26.0399989 32.7599986zM35.9351984 33.9023985C35.4835673 34.2420233 35.0820232 34.6435674 34.7423985 35.0951985L32.3735986 32.7263986C33.0289547 32.6595431 33.6712 32.4982745 34.2803985 32.2475986L35.9351984 33.9023985zM40.3199982 24.3599989C40.3169762 24.641454 40.3394682 24.922604 40.3871982 25.1999989L38.6231983 25.1999989C38.5902268 24.630545 38.4915727 24.0668074 38.3291983 23.519999L40.3871982 23.519999C40.3394682 23.7973939 40.3169762 24.0785438 40.3199982 24.3599989zM36.9431984 25.1999989C36.7145708 22.4387147 34.4539753 20.2864544 31.6847986 20.1935991 31.2309693 20.1927094 30.7790273 20.2520267 30.3407987 20.3699991 30.2599169 20.0875508 30.1559673 19.8122249 30.0299987 19.5467991 29.9118267 19.2725566 29.7713556 19.008471 29.6099987 18.7571992 28.6450642 17.222087 27.0349992 16.2084568 25.2335989 16.0019993 25.0194381 15.971019 24.8031677 15.9569755 24.5867989 15.9599993 24.5108109 15.9572297 24.4347495 15.962864 24.3599989 15.9767993 22.706369 16.0339595 21.1549832 16.791329 20.0927991 18.0599992 19.8979462 18.278745 19.7236128 18.5149387 19.5719991 18.7655992 18.9925363 19.6550223 18.6538915 20.6796399 18.5891992 21.7391991 18.3887242 21.7120894 18.186697 21.6980597 17.9843992 21.6971991 16.2225038 21.7105224 14.6289973 22.7466295 13.9019994 24.3515989 13.7687018 24.622618 13.6645194 24.9070079 13.5911994 25.1999989 13.2606892 26.4737178 13.4773073 27.8275977 14.1887299 28.9346094 14.9001524 30.0416211 16.041688 30.8011016 17.3375992 31.0295986 17.5515373 31.0633903 17.767809 31.0803468 17.9843992 31.0799986L31.6847986 31.0799986C31.7604958 31.0813948 31.8362121 31.0785906 31.9115986 31.0715986 32.2612329 31.0608886 32.6082293 31.0072875 32.9447986 30.9119987 35.3323662 30.2791632 36.9859482 28.1066747 36.9599984 25.6367989 36.9599984 25.4855989 36.9515984 25.3427989 36.9431984 25.1999989zM35.9351984 14.8175994L32.2139986 18.5387992C32.0375986 18.5219992 31.8611986 18.5135992 31.6847986 18.5135992 31.5923986 18.5135992 31.4999986 18.5135992 31.4075986 18.5219992 31.234872 18.184613 31.0354361 17.8615831 30.8111987 17.5559992L34.7423985 13.6247994C35.0820232 14.0764305 35.4835673 14.4779746 35.9351984 14.8175994z"/>
    </g>
  </g>
</svg>
