<svg xmlns="http://www.w3.org/2000/svg" width="24" height="24" viewBox="0 0 24 24">
  <g fill="none" fill-rule="evenodd">
    <polygon points="0 0 24 0 24 24 0 24"/>
    <path fill="#4A4F53" fill-rule="nonzero" d="M17,3 L21,3 C21.5522847,3 22,3.44771525 22,4 L22,20 C22,20.5522847 21.5522847,21 21,21 L3,21 C2.44771525,21 2,20.5522847 2,20 L2,4 C2,3.44771525 2.44771525,3 3,3 L7,3 L7,1 L9,1 L9,3 L15,3 L15,1 L17,1 L17,3 Z M4,9 L4,19 L20,19 L20,9 L4,9 Z M6,11 L8,11 L8,13 L6,13 L6,11 Z M11,11 L13,11 L13,13 L11,13 L11,11 Z M16,11 L18,11 L18,13 L16,13 L16,11 Z"/>
  </g>
</svg>
