<svg xmlns="http://www.w3.org/2000/svg" width="24" height="24" viewBox="0 0 24 24">
  <g fill="none" fill-rule="evenodd">
    <polygon points="0 0 24 0 24 24 0 24"/>
    <path fill="#4A4F53" fill-rule="nonzero" d="M10.9,2.1 L20.799,3.515 L22.213,13.415 L13.021,22.607 C12.6305001,22.9973819 11.9974999,22.9973819 11.607,22.607 L1.707,12.707 C1.31661806,12.3165001 1.31661806,11.6834999 1.707,11.293 L10.9,2.1 Z M13.728,10.586 C14.2333522,11.0911736 14.9698237,11.288371 15.6599929,11.10331 C16.3501622,10.9182489 16.8891759,10.3790445 17.073993,9.68880994 C17.25881,8.99857533 17.0613522,8.26217354 16.556,7.757 C15.7747932,6.97606936 14.5084306,6.97629322 13.7275,7.7575 C12.9465694,8.53870678 12.9467932,9.80506936 13.728,10.586 L13.728,10.586 Z"/>
  </g>
</svg>
