<svg xmlns="http://www.w3.org/2000/svg" width="24" height="24" viewBox="0 0 24 24">
  <g fill="none" fill-rule="evenodd">
    <polygon points="0 0 24 0 24 24 0 24"/>
    <path fill="#574CFA" d="M4.583,17.321 C3.553,16.227 3,15 3,13.011 C3,9.511 5.457,6.374 9.03,4.823 L9.923,6.201 C6.588,8.005 5.936,10.346 5.676,11.822 C6.213,11.544 6.916,11.447 7.605,11.511 C9.409,11.678 10.831,13.159 10.831,15 C10.831,16.9329966 9.26399662,18.5 7.331,18.5 C6.258,18.5 5.232,18.01 4.583,17.321 L4.583,17.321 Z M14.583,17.321 C13.553,16.227 13,15 13,13.011 C13,9.511 15.457,6.374 19.03,4.823 L19.923,6.201 C16.588,8.005 15.936,10.346 15.676,11.822 C16.213,11.544 16.916,11.447 17.605,11.511 C19.409,11.678 20.831,13.159 20.831,15 C20.831,16.9329966 19.2639966,18.5 17.331,18.5 C16.258,18.5 15.232,18.01 14.583,17.321 L14.583,17.321 Z"/>
  </g>
</svg>
