<svg xmlns="http://www.w3.org/2000/svg" width="36" height="36" viewBox="0 0 36 36">
  <g fill="none" fill-rule="evenodd">
    <rect width="36" height="36" fill="#EEF0F1" rx="18"/>
    <path fill="#4A4F53" fill-rule="nonzero" d="M3.12739421,13.9688196 L0.230734967,13.9688196 L0.230734967,4.64276169 L3.12739421,4.64276169 L3.12739421,13.9688196 Z M1.67750557,3.37060134 C0.751447661,3.37060134 0,2.60356347 0,1.67750557 C0,0.751447661 0.751447661,0 1.67750557,0 C2.60356347,0 3.35501114,0.751447661 3.35501114,1.67750557 C3.35501114,2.60356347 2.60356347,3.37060134 1.67750557,3.37060134 Z M13.9688196,13.9688196 L11.0783964,13.9688196 L11.0783964,9.42895323 C11.0783964,8.34699332 11.0565702,6.95946548 9.57238307,6.95946548 C8.06636971,6.95946548 7.83563474,8.13496659 7.83563474,9.35100223 L7.83563474,13.9688196 L4.94209354,13.9688196 L4.94209354,4.64276169 L7.72026726,4.64276169 L7.72026726,5.91492205 L7.76080178,5.91492205 C8.14743875,5.18218263 9.0922049,4.40890869 10.501559,4.40890869 C13.4325167,4.40890869 13.9719376,6.3389755 13.9719376,8.84587973 L13.9719376,13.9688196 L13.9688196,13.9688196 Z" transform="translate(11 11)"/>
  </g>
</svg>
