<svg xmlns="http://www.w3.org/2000/svg" width="36" height="36" viewBox="0 0 36 36">
  <g fill="none" fill-rule="evenodd">
    <rect width="36" height="36" fill="#EEF0F1" rx="18"/>
    <path fill="#4A4F53" fill-rule="nonzero" d="M8.93079688,5.09662891 C10.5645039,6.73203125 10.542082,9.35399609 8.94064063,10.9643242 C8.93763281,10.9676055 8.93407813,10.9711602 8.93079688,10.9744414 L7.09329688,12.8119414 C5.47263281,14.4326055 2.83590234,14.4323867 1.21548438,12.8119414 C-0.405179687,11.1915508 -0.405179687,8.55451953 1.21548438,6.93412891 L2.23010156,5.91951172 C2.49916406,5.65044922 2.96253125,5.82927734 2.97642188,6.20951953 C2.99414063,6.69410547 3.08103906,7.18096094 3.24138281,7.65110937 C3.2956875,7.81030469 3.25688672,7.98639844 3.13794141,8.10534375 L2.78009375,8.46319141 C2.01375781,9.22952734 1.98972266,10.477332 2.74851172,11.2511602 C3.51479297,12.0326172 4.77430078,12.0372656 5.54646094,11.2651055 L7.38396094,9.42787891 C8.15480859,8.65703125 8.15158203,7.41108594 7.38396094,6.64346484 C7.28276172,6.54245703 7.18082422,6.46398047 7.10119922,6.40915625 C6.98697888,6.33072116 6.91654792,6.20291742 6.91124219,6.06446094 C6.90041406,5.77551953 7.00278906,5.47777344 7.23110938,5.24945312 L7.80680469,4.67373047 C7.95776953,4.52276562 8.19459375,4.50422656 8.36964844,4.62639844 C8.57012423,4.76638463 8.75789741,4.92373457 8.93079688,5.09662891 Z M12.7844883,1.24274609 C11.1640703,-0.377699219 8.52733984,-0.377917969 6.90667578,1.24274609 L5.06917578,3.08024609 C5.06589453,3.08352734 5.06233984,3.08708203 5.05933203,3.09036328 C3.45791797,4.70069141 3.43546875,7.32265625 5.06917578,8.95805859 C5.24206504,9.13094511 5.42982927,9.28828606 5.63029687,9.42826172 C5.80535156,9.55043359 6.04220312,9.53186719 6.19314062,9.38092969 L6.76883594,8.80520703 C6.99715625,8.57688672 7.09953125,8.27914063 7.08870312,7.99019922 C7.08339739,7.85174273 7.01296644,7.72393899 6.89874609,7.64550391 C6.81912109,7.59067969 6.71718359,7.51220313 6.61598437,7.41119531 C5.84836328,6.64357422 5.84513672,5.39762891 6.61598437,4.62678125 L8.45348437,2.78955469 C9.22564453,2.01739453 10.485125,2.02204297 11.2514336,2.8035 C12.0102227,3.57732813 11.9862148,4.82513281 11.2198516,5.59146875 L10.8620039,5.94931641 C10.7430586,6.06826172 10.7042578,6.24435547 10.7585625,6.40355078 C10.9189062,6.87369922 11.0058047,7.36055469 11.0235234,7.84514063 C11.0374414,8.22538281 11.5007812,8.40421094 11.7698437,8.13514844 L12.7844609,7.12053125 C14.4051523,5.50016797 14.4051523,2.86313672 12.7844883,1.24274609 L12.7844883,1.24274609 Z" transform="translate(11 11)"/>
  </g>
</svg>
