<svg xmlns="http://www.w3.org/2000/svg" width="36" height="36" viewBox="0 0 36 36">
  <g fill="none" fill-rule="evenodd">
    <rect width="36" height="36" fill="#EEF0F1" rx="18"/>
    <path fill="#4A4F53" fill-rule="nonzero" d="M14.3553125,3.241125 C14.3654687,3.38325 14.3654687,3.52540625 14.3654687,3.66753125 C14.3654687,8.00253125 11.066,12.9974687 5.03553125,12.9974687 C3.17765625,12.9974687 1.45178125,12.459375 0,11.5254062 C0.26396875,11.5558437 0.51775,11.566 0.791875,11.566 C2.32484375,11.566 3.73603125,11.04825 4.8629375,10.165 C3.4213125,10.1345312 2.2131875,9.190375 1.7969375,7.890875 C2,7.9213125 2.20303125,7.941625 2.41625,7.941625 C2.71065625,7.941625 3.00509375,7.901 3.2791875,7.82996875 C1.77665625,7.525375 0.64971875,6.20559375 0.64971875,4.6116875 L0.64971875,4.57109375 C1.08625,4.81475 1.59390625,4.96703125 2.1319375,4.9873125 C1.2486875,4.39846875 0.67003125,3.39340625 0.67003125,2.25634375 C0.67003125,1.64721875 0.8324375,1.08884375 1.11671875,0.60153125 C2.7309375,2.591375 5.15734375,3.89084375 7.878125,4.033 C7.827375,3.78934375 7.79690625,3.5355625 7.79690625,3.28175 C7.79690625,1.474625 9.25884375,0.0025625 11.0760938,0.0025625 C12.02025,0.0025625 12.8730313,0.3985 13.4720313,1.03809375 C14.213125,0.89596875 14.9237813,0.62184375 15.55325,0.24621875 C15.3095625,1.00765625 14.7918125,1.64725 14.111625,2.0533125 C14.7715313,1.98228125 15.411125,1.7995 15.9999375,1.54571875 C15.5533125,2.1954375 14.9949063,2.77409375 14.3553125,3.241125 Z" transform="translate(10 12)"/>
  </g>
</svg>
