<svg xmlns="http://www.w3.org/2000/svg" width="96" height="96" viewBox="0 0 96 96">
  <g fill="none">
    <path fill="#FEC970" d="M95.8026315,34.8567251 L95.8026315,86.8026315 C95.8026315,89.4671053 94.6688597,91.866228 92.8581872,93.5460527 C91.2156433,95.0687135 89.0182748,95.9992691 86.6038011,95.9992691 L9.19736851,95.9992691 C6.78289478,95.9992691 4.58552627,95.0687135 2.94517539,93.5475146 C1.13450292,91.866228 0.000730994152,89.4671053 0.000730994152,86.8026315 L0.000730994152,34.8567251 L95.8026315,34.8567251 Z"/>
    <path fill="#FBA028" d="M95.8026315,34.8567251 L58.9780701,4.19517549 C52.5599416,-1.14912281 43.2419591,-1.14912281 36.8238305,4.19517549 L-5.68434189e-14,34.8567251 L-5.68434189e-14,34.8567251 L10.8538012,43.8932749 L36.8238305,65.5168129 C43.2426901,70.8625731 52.5606726,70.8625731 58.9773391,65.5168129 L84.9495615,43.8932749 L95.8026315,34.8567251"/>
    <path fill="#BFDADD" d="M84.9495615,15.7214913 L84.9495615,43.8932749 L58.9773391,65.5168129 C52.5606726,70.8625731 43.2426901,70.8625731 36.8238305,65.5168129 L10.8538012,43.8932749 L10.8538012,15.7214913 C10.8538012,9.84795322 15.6162281,5.08552627 21.4912281,5.08552627 L74.3135964,5.08552627 C80.1885964,5.08552627 84.9495615,9.84795322 84.9495615,15.7214913 Z"/>
    <path fill="#E4F5F7" d="M84.9495615,15.7214913 L84.9495615,37.4407895 L58.9773391,59.0650584 C52.5606726,64.4100877 43.2426901,64.4100877 36.8238305,59.0650584 L10.8538012,37.4407895 L10.8538012,15.7214913 C10.8538012,9.84795322 15.6162281,5.08552627 21.4912281,5.08552627 L74.3135964,5.08552627 C80.1885964,5.08552627 84.9495615,9.84795322 84.9495615,15.7214913 Z"/>
    <path fill="#4B5051" d="M44.5190059 20.005117L1.5065789 20.005117C.69663738 20.005117.0402047251 19.3486842.0402047251 18.5387426.0402047251 17.7295323.69663738 17.0723685 1.5065789 17.0723685L44.5190059 17.0723685C45.3289473 17.0723685 45.9853801 17.7295323 45.9853801 18.5387426 45.9853801 19.3486842 45.3289473 20.005117 44.5190059 20.005117zM44.5190059 28.5219297L1.5065789 28.5219297C.69663738 28.5219297.0402047251 27.8654971.0402047251 27.0555556.0402047251 26.245614.69663738 25.5891814 1.5065789 25.5891814L44.5190059 25.5891814C45.3289473 25.5891814 45.9853801 26.245614 45.9853801 27.0555556 45.9853801 27.8654971 45.3289473 28.5219297 44.5190059 28.5219297zM44.5190059 2.97295326L1.5065789 2.97295326C.69663738 2.97295326.0402047251 2.31652042.0402047251 1.5065789.0402047251.69663738.69663738.0402047251 1.5065789.0402047251L44.5190059.0402047251C45.3289473.0402047251 45.9853801.69663738 45.9853801 1.5065789 45.9853801 2.31652042 45.3289473 2.97295326 44.5190059 2.97295326zM44.5190059 11.489035L1.5065789 11.489035C.69663738 11.489035.0402047251 10.8326024.0402047251 10.0226609.0402047251 9.21271935.69663738 8.5562865 1.5065789 8.5562865L44.5190059 8.5562865C45.3289473 8.5562865 45.9853801 9.21271935 45.9853801 10.0226609 45.9853801 10.8326024 45.3289473 11.489035 44.5190059 11.489035z" transform="translate(24.889 22.269)"/>
    <path fill="#26BF64" d="M93.8472223,20.7163743 C93.8472223,32.0007309 84.6995614,41.1483919 73.4159356,41.1483919 C62.1315789,41.1483919 52.983918,32.0007309 52.983918,20.7163743 C52.983918,9.43274854 62.1315789,0.285087813 73.4159356,0.285087813 C84.6995614,0.285087813 93.8472223,9.43274854 93.8472223,20.7163743 Z"/>
    <path fill="#49D685" d="M93.8472223,20.7163743 C93.8472223,31.4093567 85.635965,40.1820175 75.1761695,41.0738304 C64.7141812,40.1820175 56.5043859,31.4093567 56.5043859,20.7163743 C56.5043859,10.0255848 64.7141812,1.25292388 75.1761695,0.361842152 C85.635965,1.25292388 93.8472223,10.0255848 93.8472223,20.7163743 Z"/>
    <path fill="#FFF" d="M73.3179825,33.2865497 C72.8888889,33.2865497 72.4766082,33.0972222 72.1959064,32.7631579 L63.6922515,22.636696 C63.1717837,22.016082 63.2521929,21.0913742 63.872076,20.5709064 C64.49269,20.0497076 65.4173977,20.130848 65.9378655,20.750731 L72.9093567,29.0526316 L80.7690058,10.7134503 C81.0877193,9.96929834 81.9502924,9.6242691 82.6944445,9.9437135 C83.4385965,10.2624269 83.7836257,11.1242689 83.4641813,11.869152 L74.6659357,32.3976608 C74.4656432,32.866228 74.0365496,33.1966374 73.5328947,33.2704677 C73.4612574,33.2814327 73.3896198,33.2865497 73.3179825,33.2865497 L73.3179825,33.2865497 Z"/>
    <path fill="#FBA028" d="M86.8728069 90.0307017C86.5423978 90.0307017 86.2097954 89.9195905 85.9356725 89.6915204L62.5533625 70.2236841C61.9312865 69.7054093 61.8472223 68.7807018 62.3647661 68.1586257 62.8830409 67.5365498 63.8077485 67.4517543 64.4298246 67.9700293L87.8114036 87.4371346C88.4342104 87.9554094 88.5190059 88.879386 88.0007309 89.502193 87.7105263 89.8508772 87.2931286 90.0307017 86.8728069 90.0307017L86.8728069 90.0307017zM33.2032165 70.2624269L13.9875731 86.6754386C11.3406432 88.9371344 12.5241228 93.259503 15.9546783 93.8559942 21.4729533 94.8150585 27.9210526 95.8910819 29.6549708 96L9.19809946 96C6.78289478 96 4.58552627 95.0694445 2.94517539 93.5482457 1.13450292 91.866959.000730994152 89.4678363.000730994152 86.8033626L.000730994152 34.8567251 6.9437135 34.8567251 6.9437135 70.2668128C7.01023401 77.4247076 15.4013157 81.2660819 20.9035088 76.6871345L31.3728071 67.9692983C32.0065789 67.4437135 32.9546783 67.5394736 33.4671053 68.1944444 33.9619883 68.8252924 33.8187135 69.7499999 33.2032165 70.2624269L33.2032165 70.2624269z"/>
  </g>
</svg>
